<?xml version="1.0" standalone="no"?>
<!DOCTYPE svg PUBLIC "-//W3C//DTD SVG 1.1//EN" "http://www.w3.org/Graphics/SVG/1.1/DTD/svg11.dtd" >
<svg xmlns="http://www.w3.org/2000/svg" xmlns:xlink="http://www.w3.org/1999/xlink" version="1.1">
<metadata>
Created by FontForge 20170910 at Sun Nov 25 01:31:11 2012
 By Jimmy Wärting
Copyright (c) 2012 by Ahmet Altun. All rights reserved.
</metadata>
<defs>
<font id="HalisGR-Bold" horiz-adv-x="585" >
  <font-face 
    font-family="Halis GR Bold"
    font-weight="700"
    font-stretch="normal"
    units-per-em="1000"
    panose-1="2 0 5 5 3 0 0 2 0 4"
    ascent="800"
    descent="-200"
    x-height="500"
    cap-height="700"
    bbox="-190 -342 1213 994"
    underline-thickness="50"
    underline-position="-130"
    stemh="130"
    stemv="142"
    unicode-range="U+0020-FB04"
  />
<missing-glyph horiz-adv-x="490" 
d="M460 650v-600h-430v600h430zM210 209c0 -16 14 -30 31 -30c16 0 29 14 29 30s-13 28 -29 28c-17 0 -31 -12 -31 -28zM262 267v28c0 33 73 71 73 135c0 53 -38 82 -87 82c-44 0 -71 -17 -104 -52l29 -28c23 24 40 37 65 38c41 2 47 -26 47 -41c0 -57 -68 -78 -68 -132v-30
h45z" />
    <glyph glyph-name="f_f_l" unicode="ffl" horiz-adv-x="892" 
d="M198 383v-383h-136v383h-52v117h52v37c0 124 83 170 179 170c55 0 113 -18 164 -42c31 30 75 44 122 44c59 0 123 -22 173 -63l14 54h98v-700h-135v539c-16 33 -72 59 -119 59c-36 0 -66 -16 -66 -57v-41h115v-117h-115v-383h-136v383h-158zM198 541v-41h158v37
c0 13 1 25 3 37c-22 13 -57 26 -89 26c-38 0 -72 -14 -72 -59z" />
    <glyph glyph-name="f_f_i" unicode="ffi" horiz-adv-x="881" 
d="M680 671l-40 -107c-32 13 -71 22 -96 22c-26 0 -52 -13 -52 -53v-33h309v-500h-136v383h-173v-383h-136v383h-158v-383h-136v383h-52v117h52v37c0 124 83 170 179 170c56 0 115 -18 166 -43c33 29 79 43 129 43c41 0 93 -11 144 -36zM198 541v-41h158v37c0 13 1 25 3 37
c-22 12 -57 26 -89 26c-38 0 -72 -14 -72 -59z" />
    <glyph glyph-name="fl" unicode="fl" horiz-adv-x="598" 
d="M518 700v-700h-135v539c-16 33 -72 59 -119 59c-36 0 -66 -16 -66 -57v-41h106v-117h-106v-383h-136v383h-52v117h52v37c0 119 80 172 171 172c59 0 123 -22 173 -63l14 54h98z" />
    <glyph glyph-name="fi" unicode="fi" horiz-adv-x="590" 
d="M510 500v-500h-136v383h-176v-383h-136v383h-52v117h52v37c0 116 81 170 180 170c41 0 93 -11 144 -36l-40 -107c-32 13 -71 22 -96 22c-26 0 -52 -13 -52 -53v-33h312z" />
    <glyph glyph-name="f_h" unicode="fh" horiz-adv-x="960" 
d="M386 671l-40 -107c-32 13 -71 22 -96 22c-26 0 -52 -13 -52 -53v-33h93v-117h-93v-383h-136v383h-52v117h52v37c0 116 81 170 180 170c41 0 93 -11 144 -36zM591 0h-135v700h135v-218c30 18 65 26 96 26c192 0 213 -131 213 -250v-258h-135v258c0 62 -9 130 -95 128
c-35 -1 -66 -20 -79 -38v-348z" />
    <glyph glyph-name="f_j" unicode="fj" horiz-adv-x="595" 
d="M515 500v-513c0 -42 -10 -190 -178 -190c-67 0 -133 35 -157 59l57 87c28 -16 59 -28 84 -28c32 0 58 19 58 75v393h-181v-383h-136v383h-52v117h52v37c0 116 81 170 180 170c41 0 93 -11 144 -36l-40 -107c-32 13 -71 22 -96 22c-26 0 -52 -13 -52 -53v-33h317z" />
    <glyph glyph-name="f_f" unicode="ff" horiz-adv-x="670" 
d="M680 671l-40 -107c-32 13 -71 22 -96 22c-26 0 -52 -13 -52 -53v-33h93v-117h-93v-383h-136v383h-158v-383h-136v383h-52v117h52v37c0 124 83 170 179 170c56 0 115 -18 166 -43c33 29 79 43 129 43c41 0 93 -11 144 -36zM198 541v-41h158v37c0 13 1 25 3 37
c-22 12 -57 26 -89 26c-38 0 -72 -14 -72 -59z" />
    <glyph glyph-name="f_k" unicode="fk" horiz-adv-x="903" 
d="M723 0l-205 224v-224h-135v539c-16 33 -72 59 -119 59c-36 0 -66 -16 -66 -57v-41h99v-117h-99v-383h-136v383h-52v117h52v37c0 119 80 172 171 172c59 0 123 -22 173 -63l14 54h98v-415l191 215h144l2 -8l-205 -232l223 -252l-3 -8h-147z" />
    <glyph glyph-name="f_b" unicode="fb" horiz-adv-x="917" 
d="M518 700v-208c24 11 57 17 90 17c201 0 249 -148 249 -259c0 -107 -53 -259 -239 -259c-41 0 -102 18 -131 44l-11 -35h-93v538c-15 33 -72 60 -119 60c-36 0 -66 -17 -66 -58v-41h99v-117h-99v-383h-136v383h-52v117h52v37c0 119 80 172 171 172c59 0 123 -22 173 -63
l14 55h98zM608 113c103 0 115 97 115 137c0 49 -14 138 -123 138c-23 0 -62 -11 -82 -24v-212c13 -18 49 -39 90 -39z" />
    <glyph glyph-name="f_f_b" unicode="ffb" horiz-adv-x="1211" 
d="M198 383v-383h-136v383h-52v117h52v37c0 124 83 170 179 170c55 0 113 -18 164 -42c31 30 75 44 122 44c59 0 123 -22 173 -63l14 54h98v-208c24 11 57 17 90 17c201 0 249 -148 249 -259c0 -107 -53 -259 -239 -259c-41 0 -102 18 -131 44l-11 -35h-93v539
c-16 33 -72 59 -119 59c-36 0 -66 -16 -66 -57v-41h115v-117h-115v-383h-136v383h-158zM902 113c103 0 115 97 115 137c0 49 -14 138 -123 138c-23 0 -62 -11 -82 -24v-212c13 -18 49 -39 90 -39zM198 541v-41h158v37c0 13 1 25 3 37c-22 13 -57 26 -89 26
c-38 0 -72 -14 -72 -59z" />
    <glyph glyph-name="f_f_h" unicode="ffh" horiz-adv-x="1181" 
d="M198 383v-383h-136v383h-52v117h52v37c0 124 83 170 179 170c55 0 113 -18 164 -42c31 30 75 44 122 44c59 0 123 -22 173 -63l14 54h98v-218c30 18 65 26 96 26c192 0 213 -131 213 -250v-258h-135v258c0 62 -9 130 -95 128c-35 -1 -66 -20 -79 -38v-348h-135v539
c-16 33 -72 59 -119 59c-36 0 -66 -16 -66 -57v-41h115v-117h-115v-383h-136v383h-158zM198 541v-41h158v37c0 13 1 25 3 37c-22 13 -57 26 -89 26c-38 0 -72 -14 -72 -59z" />
    <glyph glyph-name="f_f_j" unicode="ffj" horiz-adv-x="881" 
d="M680 671l-40 -107c-32 13 -71 22 -96 22c-26 0 -52 -13 -52 -53v-33h309v-513c0 -42 -10 -190 -178 -190c-67 0 -133 35 -157 59l57 87c28 -16 59 -28 84 -28c32 0 58 19 58 75v393h-173v-383h-136v383h-158v-383h-136v383h-52v117h52v37c0 124 83 170 179 170
c56 0 115 -18 166 -43c33 29 79 43 129 43c41 0 93 -11 144 -36zM198 541v-41h158v37c0 13 1 25 3 37c-22 12 -57 26 -89 26c-38 0 -72 -14 -72 -59z" />
    <glyph glyph-name="f_f_k" unicode="ffk" horiz-adv-x="1198" 
d="M198 383v-383h-136v383h-52v117h52v37c0 124 83 170 179 170c55 0 113 -18 164 -42c31 30 75 44 122 44c59 0 123 -22 173 -63l14 54h98v-415l191 215h144l4 -9l-207 -231l224 -251l-4 -9h-147l-205 224v-224h-135v539c-16 33 -72 59 -119 59c-36 0 -66 -16 -66 -57v-41
h115v-117h-115v-383h-136v383h-158zM198 541v-41h158v37c0 13 1 25 3 37c-22 13 -57 26 -89 26c-38 0 -72 -14 -72 -59z" />
    <glyph glyph-name=".notdef" horiz-adv-x="490" 
d="M460 650v-600h-430v600h430zM210 209c0 -16 14 -30 31 -30c16 0 29 14 29 30s-13 28 -29 28c-17 0 -31 -12 -31 -28zM262 267v28c0 33 73 71 73 135c0 53 -38 82 -87 82c-44 0 -71 -17 -104 -52l29 -28c23 24 40 37 65 38c41 2 47 -26 47 -41c0 -57 -68 -78 -68 -132v-30
h45z" />
    <glyph glyph-name=".null" horiz-adv-x="0" 
 />
    <glyph glyph-name="CR" horiz-adv-x="250" 
 />
    <glyph glyph-name="space" unicode=" " horiz-adv-x="300" 
 />
    <glyph glyph-name="l" unicode="l" horiz-adv-x="297" 
d="M217 701v-701h-137v701h137z" />
    <glyph glyph-name="o" unicode="o" horiz-adv-x="618" 
d="M309 510c192 0 249 -155 249 -260c0 -108 -57 -259 -249 -259s-249 151 -249 259c0 105 57 260 249 260zM309 112c100 0 114 104 114 138s-14 139 -114 139s-115 -105 -115 -139s15 -138 115 -138z" />
    <glyph glyph-name="n" unicode="n" 
d="M215 344v-344h-135v500h92l12 -36c38 31 83 44 126 44c190 0 215 -133 215 -250v-258h-138v258c0 54 -8 129 -82 129c-42 0 -74 -21 -90 -43z" />
    <glyph glyph-name="m" unicode="m" horiz-adv-x="855" 
d="M215 344v-344h-135v500h92l12 -38c35 30 83 46 126 46c73 0 117 -18 147 -50c41 32 90 50 140 50c191 0 198 -133 198 -250v-258h-138v271c1 52 1 117 -65 117c-38 0 -69 -23 -85 -43v-345h-137v271c1 52 1 117 -65 117c-42 0 -74 -22 -90 -44z" />
    <glyph glyph-name="i" unicode="i" horiz-adv-x="313" 
d="M224 500v-500h-136v500h136zM80 663c0 43 33 77 77 77c43 0 76 -34 76 -77c0 -44 -33 -76 -76 -76c-44 0 -77 32 -77 76z" />
    <glyph glyph-name="r" unicode="r" horiz-adv-x="415" 
d="M395 498l-39 -124c-19 4 -38 7 -59 7c-32 0 -63 -9 -82 -41v-340h-135v500h92l12 -31c40 26 82 37 128 37c22 0 60 -3 83 -8z" />
    <glyph glyph-name="e" unicode="e" horiz-adv-x="547" 
d="M498 227h-313c8 -59 45 -110 110 -110c42 0 87 16 125 45l66 -91c-60 -50 -118 -77 -191 -77c-191 0 -250 149 -250 257c0 105 59 256 250 256c133 0 207 -85 207 -215c0 -21 -2 -43 -4 -65zM295 386c-56 0 -91 -33 -106 -79h179c-1 41 -15 78 -73 79z" />
    <glyph glyph-name="c" unicode="c" horiz-adv-x="554" 
d="M421 173l79 -95c-51 -52 -110 -85 -188 -85c-192 0 -252 150 -252 255c0 111 50 260 250 260c84 0 147 -42 199 -99l-78 -87c-32 35 -81 60 -121 60c-77 0 -115 -66 -115 -131c0 -82 56 -128 116 -128c31 0 73 14 110 50z" />
    <glyph glyph-name="h" unicode="h" horiz-adv-x="584" 
d="M215 0h-135v700h135v-218c30 18 65 26 96 26c192 0 213 -131 213 -250v-258h-135v258c0 62 -9 130 -95 128c-35 -1 -66 -20 -79 -38v-348z" />
    <glyph glyph-name="j" unicode="j" horiz-adv-x="293" 
d="M-73 -57c28 -16 59 -28 84 -28c32 0 56 19 56 75v510h138v-502v-11c0 -42 -10 -190 -178 -190c-67 0 -133 35 -157 59zM60 664c0 43 32 77 76 77c43 0 77 -34 77 -77c0 -45 -34 -76 -77 -76c-44 0 -76 31 -76 76z" />
    <glyph glyph-name="t" unicode="t" horiz-adv-x="330" 
d="M62 380h-52v120h52l10 98h126v-98h94v-120h-94v-235c0 -24 12 -32 28 -32c20 0 47 9 71 15l23 -110c-66 -19 -118 -24 -139 -24c-109 0 -119 100 -119 136v250z" />
    <glyph glyph-name="f" unicode="f" horiz-adv-x="376" 
d="M386 671l-40 -107c-32 13 -71 22 -96 22c-26 0 -52 -13 -52 -53v-33h93v-117h-93v-383h-136v383h-52v117h52v37c0 116 81 170 180 170c41 0 93 -11 144 -36z" />
    <glyph glyph-name="s" unicode="s" horiz-adv-x="512" 
d="M207 357c0 -18 33 -29 74 -42c75 -24 171 -55 171 -170c0 -91 -80 -153 -188 -153c-75 0 -134 20 -204 61l54 106c51 -26 103 -46 145 -46c29 0 55 12 55 31c0 29 -38 41 -83 54c-71 22 -155 50 -155 155c0 97 69 155 170 155c28 0 101 -6 194 -52l-51 -111
c-41 20 -97 39 -127 39c-28 0 -55 -6 -55 -27z" />
    <glyph glyph-name="a" unicode="a" horiz-adv-x="548" 
d="M87 456c60 31 125 53 196 53c171 0 185 -111 185 -213v-296h-94l-10 32c-31 -26 -74 -40 -119 -42c-156 -7 -185 98 -185 157c0 137 111 166 214 166c21 0 40 -3 58 -7c0 70 -23 82 -67 82c-23 0 -83 -13 -134 -35zM332 147v54c-15 4 -39 11 -62 11
c-40 0 -81 -11 -81 -58c0 -30 28 -46 59 -46c37 0 72 21 84 39z" />
    <glyph glyph-name="k" unicode="k" horiz-adv-x="601" 
d="M420 0l-205 224v-224h-135v700h135v-415l191 215h144l4 -9l-207 -231l224 -251l-4 -9h-147z" />
    <glyph glyph-name="g" unicode="g" 
d="M60 -66c1 31 17 76 53 100c-24 19 -41 46 -41 93c0 33 21 69 52 84c-23 25 -35 59 -35 105c0 85 48 196 201 196c40 0 68 -5 95 -20l71 67l79 -79l-70 -75c20 -29 28 -68 28 -91c0 -82 -51 -194 -203 -194c-29 0 -53 3 -76 12c-12 -1 -23 -9 -23 -18c0 -23 10 -37 54 -35
c222 10 273 -58 273 -146c0 -28 -18 -156 -222 -156c-185 0 -236 91 -236 157zM290 242c55 0 62 56 62 74s-7 75 -62 75c-54 0 -63 -53 -63 -75c0 -18 6 -74 63 -74zM290 -109c95 0 100 38 100 40c0 31 -62 37 -100 37c-87 0 -102 -18 -102 -35c0 -9 15 -40 102 -42z" />
    <glyph glyph-name="v" unicode="v" horiz-adv-x="564" 
d="M282 257l106 243h149l-252 -502h-7l-251 502h149z" />
    <glyph glyph-name="w" unicode="w" horiz-adv-x="764" 
d="M272 267l107 238h8l105 -238l101 233h143l-237 -503h-7l-110 222l-111 -222h-7l-236 503h143z" />
    <glyph glyph-name="y" unicode="y" horiz-adv-x="609" 
d="M235 40c-55 132 -143 317 -205 460h155l123 -301c31 81 81 206 119 301h152l-297 -699h-141v11z" />
    <glyph glyph-name="x" unicode="x" horiz-adv-x="504" 
d="M474 500l-149 -250l149 -250h-155l-67 123l-67 -123h-155l148 250l-148 250h155l67 -123l67 123h155z" />
    <glyph glyph-name="z" unicode="z" horiz-adv-x="509" 
d="M67 371v129h394l3 -8l-197 -363h187v-129h-406l-3 7l199 364h-177z" />
    <glyph glyph-name="V" unicode="V" horiz-adv-x="724" 
d="M358 -9l-328 709h158l174 -419l175 419h157l-328 -709h-8z" />
    <glyph glyph-name="W" unicode="W" horiz-adv-x="1091" 
d="M1061 700l-327 -704h-6l-183 379l-182 -379h-7l-326 704h158l174 -411l179 416l8 -1l180 -415l174 411h158z" />
    <glyph glyph-name="I" unicode="I" horiz-adv-x="342" 
d="M242 700v-700h-142v700h142z" />
    <glyph glyph-name="H" unicode="H" horiz-adv-x="775" 
d="M242 280v-280h-142v700h142v-290h292v290h141v-700h-141v280h-292z" />
    <glyph glyph-name="L" unicode="L" horiz-adv-x="564" 
d="M242 700v-570h262v-130h-404v700h142z" />
    <glyph glyph-name="F" unicode="F" horiz-adv-x="636" 
d="M503 280h-262v-280h-141v700h476v-130h-335v-160h262v-130z" />
    <glyph glyph-name="A" unicode="A" horiz-adv-x="724" 
d="M30 0l327 709h10l327 -709h-157l-69 165h-212l-68 -165h-158zM362 419l-57 -137h114z" />
    <glyph glyph-name="E" unicode="E" horiz-adv-x="636" 
d="M503 280h-262v-150h335v-130h-476v700h476v-130h-335v-160h262v-130z" />
    <glyph glyph-name="O" unicode="O" horiz-adv-x="814" 
d="M408 712c265 0 346 -215 346 -361c0 -150 -81 -362 -346 -362c-267 0 -348 212 -348 362c0 146 81 361 348 361zM408 120c176 0 202 174 202 231s-26 229 -202 229c-179 0 -204 -172 -204 -229s25 -231 204 -231z" />
    <glyph glyph-name="Q" unicode="Q" horiz-adv-x="824" 
d="M408 710c265 0 346 -213 346 -359c0 -99 -37 -222 -136 -296l158 -186v-13h-162l-115 145c-25 -5 -61 -10 -91 -10c-267 0 -348 210 -348 360c0 146 81 359 348 359zM408 122c176 0 202 172 202 229s-26 227 -202 227c-179 0 -204 -170 -204 -227s25 -229 204 -229z" />
    <glyph glyph-name="T" unicode="T" horiz-adv-x="613" 
d="M234 0v570h-189v130h523v-130h-191v-570h-143z" />
    <glyph glyph-name="U" unicode="U" horiz-adv-x="736" 
d="M368 122c108 0 135 109 135 150v428h143v-428c0 -118 -72 -279 -278 -279s-278 161 -278 279v428h142v-428c0 -41 28 -150 136 -150z" />
    <glyph glyph-name="C" unicode="C" horiz-adv-x="741" 
d="M681 579l-93 -90c-38 47 -115 89 -180 89c-179 0 -204 -170 -204 -227s26 -226 205 -226c67 0 141 38 188 81l80 -97c-72 -72 -157 -118 -269 -118c-267 0 -348 210 -348 360c0 146 81 359 348 359c120 0 203 -52 273 -131z" />
    <glyph glyph-name="G" unicode="G" horiz-adv-x="727" 
d="M523 245h-138v128h280v-279c-66 -66 -147 -103 -257 -103c-267 0 -348 210 -348 360c0 146 81 359 348 359c113 0 193 -43 259 -114l-87 -94c-39 41 -112 76 -172 76c-179 0 -204 -168 -204 -225s25 -233 204 -233c39 0 90 14 115 36v89z" />
    <glyph glyph-name="D" unicode="D" horiz-adv-x="755" 
d="M349 0h-249v700h249c266 0 346 -203 346 -349c0 -150 -80 -351 -346 -351zM240 130h109c177 0 203 164 203 221s-26 220 -203 220h-109v-441z" />
    <glyph glyph-name="S" unicode="S" horiz-adv-x="642" 
d="M214 514c2 -47 60 -66 129 -90c109 -37 248 -81 239 -231c-7 -114 -109 -201 -255 -201c-105 0 -185 25 -271 71l62 117c67 -32 134 -57 202 -57c61 0 105 26 112 67c8 50 -44 77 -112 98c-106 33 -248 67 -248 219c0 128 95 204 227 204c40 0 137 -9 255 -64l-51 -119
c-34 14 -124 51 -194 51c-49 0 -93 -16 -95 -65z" />
    <glyph glyph-name="Z" unicode="Z" horiz-adv-x="661" 
d="M282 130h313v-130h-531l-4 8l316 563h-286v129h507l4 -8z" />
    <glyph glyph-name="N" unicode="N" horiz-adv-x="776" 
d="M100 702l9 4l425 -403v397h142v-701l-10 -4l-424 406v-401h-142v702z" />
    <glyph glyph-name="J" unicode="J" horiz-adv-x="631" 
d="M20 206l126 46c21 -66 56 -126 129 -124c108 3 113 107 113 145v427h143v-427c0 -115 -48 -279 -256 -279c-158 0 -221 97 -255 212z" />
    <glyph glyph-name="X" unicode="X" horiz-adv-x="659" 
d="M464 701h165l-222 -350l222 -351h-163l-137 226l-136 -226h-163l221 351l-221 350h165l134 -224z" />
    <glyph glyph-name="B" unicode="B" horiz-adv-x="675" 
d="M615 491c0 -52 -36 -116 -86 -140c47 -24 86 -77 86 -143c0 -93 -58 -208 -250 -208h-265v700h265c192 0 250 -116 250 -209zM378 409c81 2 93 59 93 82c0 19 -12 80 -96 80h-135v-162h138zM375 130c84 0 96 59 96 78c0 26 -12 73 -93 75h-138v-153h135z" />
    <glyph glyph-name="P" unicode="P" horiz-adv-x="677" 
d="M242 243v-243h-142v700h267c192 0 250 -134 250 -227c0 -138 -121 -230 -237 -230h-138zM376 374c81 2 99 68 99 99c0 34 -18 98 -103 98h-130v-197h134z" />
    <glyph glyph-name="R" unicode="R" horiz-adv-x="675" 
d="M240 243v-243h-140v700h265c192 0 250 -134 250 -227c0 -101 -59 -174 -138 -208l125 -265h-154l-114 243h-94zM374 374c81 2 99 68 99 99c0 34 -18 98 -103 98h-130v-197h134z" />
    <glyph glyph-name="Y" unicode="Y" horiz-adv-x="677" 
d="M409 313v-313h-141v311l-238 389h156l152 -254l152 254h157z" />
    <glyph glyph-name="M" unicode="M" horiz-adv-x="1012" 
d="M511 -6h-10l-194 383l-126 -377h-151l257 704h11l208 -430l208 430h11l257 -704h-151l-126 377z" />
    <glyph glyph-name="K" unicode="K" horiz-adv-x="710" 
d="M242 0h-142v700h142v-280l247 280h155l3 -8l-293 -331l316 -354l-2 -7h-160l-266 295v-295z" />
    <glyph glyph-name="period" unicode="." horiz-adv-x="327" 
d="M80 77c0 47 39 84 84 84c46 0 83 -37 83 -84c0 -46 -37 -83 -83 -83c-45 0 -84 37 -84 83z" />
    <glyph glyph-name="comma" unicode="," horiz-adv-x="332" 
d="M150 -168l-70 34c22 37 48 100 56 128c-38 12 -54 39 -54 78c0 46 34 82 81 82c66 0 89 -46 89 -90c0 -66 -64 -184 -102 -232z" />
    <glyph glyph-name="colon" unicode=":" horiz-adv-x="327" 
d="M80 77c0 47 39 84 84 84c46 0 83 -37 83 -84c0 -46 -37 -83 -83 -83c-45 0 -84 37 -84 83zM80 419c0 47 39 84 84 84c46 0 83 -37 83 -84c0 -46 -37 -83 -83 -83c-45 0 -84 37 -84 83z" />
    <glyph glyph-name="ellipsis" unicode="&#x2026;" horiz-adv-x="780" 
d="M80 77c0 47 39 84 84 84c46 0 83 -37 83 -84c0 -46 -37 -83 -83 -83c-45 0 -84 37 -84 83zM326 77c0 47 39 84 84 84c46 0 83 -37 83 -84c0 -46 -37 -83 -83 -83c-45 0 -84 37 -84 83zM573 77c0 47 39 84 84 84c46 0 83 -37 83 -84c0 -46 -37 -83 -83 -83
c-45 0 -84 37 -84 83z" />
    <glyph glyph-name="dieresis" unicode="&#xa8;" horiz-adv-x="582" 
d="M99 667c0 43 33 77 77 77c43 0 76 -34 76 -77c0 -44 -33 -76 -76 -76c-44 0 -77 32 -77 76zM328 667c0 43 33 77 77 77c43 0 76 -34 76 -77c0 -44 -33 -76 -76 -76c-44 0 -77 32 -77 76z" />
    <glyph glyph-name="zero" unicode="0" horiz-adv-x="646" 
d="M322 683c202 0 264 -205 264 -344c0 -143 -62 -345 -264 -345c-201 0 -262 202 -262 345c0 139 61 344 262 344zM322 115c111 0 127 170 127 224s-16 222 -127 222c-110 0 -127 -168 -127 -222s17 -224 127 -224z" />
    <glyph glyph-name="one" unicode="1" horiz-adv-x="417" 
d="M327 678v-678h-136v473l-93 -52l-58 92l238 165h49z" />
    <glyph glyph-name="two" unicode="2" horiz-adv-x="538" 
d="M121 480l-81 86c75 82 155 118 227 118c119 0 211 -64 211 -196c0 -58 -38 -125 -83 -187l-128 -174h193v-127h-427l-3 7l265 374c44 62 51 98 51 111c0 34 -18 71 -78 71c-43 0 -92 -30 -147 -83z" />
    <glyph glyph-name="three" unicode="3" horiz-adv-x="536" 
d="M476 487c0 -56 -26 -116 -71 -148c51 -30 71 -94 71 -145c0 -72 -41 -199 -222 -199c-103 0 -169 53 -214 95l77 91c36 -35 96 -68 137 -68c47 0 91 26 91 81c0 56 -44 87 -91 87h-99v118h99c47 0 91 32 91 88c0 55 -44 81 -91 81c-41 0 -101 -34 -137 -68l-77 91
c45 42 111 95 214 95c181 0 222 -127 222 -199z" />
    <glyph glyph-name="four" unicode="4" horiz-adv-x="555" 
d="M437 133v-133h-139v133h-268v78l299 464h108v-418h88v-124h-88zM298 404l-92 -147h92v147z" />
    <glyph glyph-name="five" unicode="5" horiz-adv-x="567" 
d="M60 108l91 81c41 -52 83 -73 119 -73c67 0 104 52 104 104c0 51 -36 100 -105 100h-171v359h366v-123h-224v-119h29c192 0 238 -132 238 -222c0 -72 -48 -221 -238 -221c-93 0 -158 49 -209 114z" />
    <glyph glyph-name="six" unicode="6" horiz-adv-x="586" 
d="M356 688l65 -99c-70 -37 -131 -92 -177 -157c11 5 31 12 69 12c174 -9 213 -139 213 -228c0 -69 -43 -222 -232 -222c-190 0 -233 161 -233 231c-1 244 158 389 295 463zM294 118c65 0 100 51 100 103c0 51 -33 102 -100 102s-99 -49 -101 -102c0 -52 34 -103 101 -103z
" />
    <glyph glyph-name="nine" unicode="9" horiz-adv-x="586" 
d="M230 -9l-65 99c70 37 131 92 177 157c-11 -5 -31 -12 -69 -12c-174 9 -213 139 -213 228c0 69 43 222 232 222c190 0 233 -161 233 -231c1 -244 -158 -389 -295 -463zM292 561c-65 0 -100 -51 -100 -103c0 -51 33 -102 100 -102s99 49 101 102c0 52 -34 103 -101 103z
" />
    <glyph glyph-name="seven" unicode="7" horiz-adv-x="493" 
d="M30 555v123h430l3 -7l-269 -671h-141l220 555h-243z" />
    <glyph glyph-name="eight" unicode="8" horiz-adv-x="566" 
d="M506 485c0 -37 -16 -105 -76 -146c62 -37 76 -97 76 -143c0 -72 -41 -202 -223 -202s-223 129 -223 201c0 54 24 117 72 145c-39 28 -72 72 -72 145c0 72 41 199 223 199s223 -127 223 -199zM283 112c48 0 91 31 91 83c0 56 -43 85 -91 85s-92 -29 -92 -85
c0 -55 44 -83 92 -83zM283 400c48 0 91 29 91 85c0 55 -43 81 -91 81s-92 -26 -92 -81c0 -56 44 -85 92 -85z" />
    <glyph glyph-name="quotedbl" unicode="&#x22;" horiz-adv-x="430" 
d="M390 702l-24 -255h-92l-24 255h140zM180 702l-24 -255h-92l-24 255h140z" />
    <glyph glyph-name="asterisk" unicode="*" horiz-adv-x="480" 
d="M197 333l-5 100l-89 -45l-43 74l83 55l-83 54l43 74l89 -45l5 100h86l5 -100l89 45l43 -74l-84 -54l84 -55l-43 -74l-89 45l-5 -100h-86z" />
    <glyph glyph-name="quotesingle" unicode="'" horiz-adv-x="220" 
d="M180 702l-24 -255h-92l-24 255h140z" />
    <glyph glyph-name="plus" unicode="+" horiz-adv-x="558" 
d="M222 140v142h-142v113h142v142h114v-142h142v-113h-142v-142h-114z" />
    <glyph glyph-name="plusminus" unicode="&#xb1;" horiz-adv-x="553" 
d="M80 115h393v-104h-393v104zM222 182v100h-142v113h142v142h114v-142h142v-113h-142v-100h-114z" />
    <glyph glyph-name="hyphen" unicode="-" horiz-adv-x="446" 
d="M80 353h286v-115h-286v115z" />
    <glyph glyph-name="numbersign" unicode="#" horiz-adv-x="575" 
d="M60 397h80v103h111v-103h73v103h111v-103h80v-110h-80v-74h80v-109h-80v-104h-111v104h-73v-104h-111v104h-80v109h80v74h-80v110zM251 287v-74h73v74h-73z" />
    <glyph glyph-name="bar" unicode="|" horiz-adv-x="222" 
d="M162 -201h-102v972h102v-972z" />
    <glyph glyph-name="equal" unicode="=" horiz-adv-x="510" 
d="M430 389h-350v114h350v-114zM430 176h-350v112h350v-112z" />
    <glyph glyph-name="slash" unicode="/" horiz-adv-x="411" 
d="M381 700l-232 -700h-119l233 700h118z" />
    <glyph glyph-name="percent" unicode="%" horiz-adv-x="854" 
d="M189 706c121 0 157 -98 157 -165s-36 -163 -157 -163c-123 0 -159 96 -159 163s36 165 159 165zM189 486c38 0 43 40 43 55c0 16 -5 56 -43 56c-40 0 -45 -40 -45 -56c0 -15 5 -55 45 -55zM604 700l-232 -700h-119l233 700h118zM667 323c121 0 157 -98 157 -165
s-36 -163 -157 -163c-122 0 -158 96 -158 163s36 165 158 165zM667 103c38 0 44 40 44 55c0 16 -6 56 -44 56c-39 0 -45 -40 -45 -56c0 -15 6 -55 45 -55z" />
    <glyph glyph-name="perthousand" unicode="&#x2030;" horiz-adv-x="1243" 
d="M189 706c121 0 157 -98 157 -165s-36 -163 -157 -163c-123 0 -159 96 -159 163s36 165 159 165zM189 486c38 0 43 40 43 55c0 16 -5 56 -43 56c-40 0 -45 -40 -45 -56c0 -15 5 -55 45 -55zM604 700l-232 -700h-119l233 700h118zM667 323c121 0 157 -98 157 -165
s-36 -163 -157 -163c-122 0 -158 96 -158 163s36 165 158 165zM667 103c38 0 44 40 44 55c0 16 -6 56 -44 56c-39 0 -45 -40 -45 -56c0 -15 6 -55 45 -55zM1056 323c121 0 157 -98 157 -165s-36 -163 -157 -163c-122 0 -158 96 -158 163s36 165 158 165zM1056 103
c38 0 44 40 44 55c0 16 -6 56 -44 56c-39 0 -45 -40 -45 -56c0 -15 6 -55 45 -55z" />
    <glyph glyph-name="ampersand" unicode="&#x26;" horiz-adv-x="719" 
d="M298 450c31 23 57 49 57 90c0 28 -17 56 -52 56c-43 0 -54 -37 -54 -57c0 -38 26 -66 49 -89zM211 207c0 -57 48 -91 99 -91c43 0 72 10 99 33l-131 141c-34 -24 -66 -52 -67 -83zM481 541c0 -77 -48 -137 -101 -179l101 -108c15 35 29 83 34 114l114 -22
c-7 -78 -30 -141 -57 -191l87 -92l-88 -82l-76 78c-52 -46 -114 -66 -192 -66c-132 3 -223 102 -223 208c0 91 49 142 109 182c-4 3 -6 7 -9 10c-38 43 -56 89 -56 145c0 82 56 173 183 173c119 0 174 -86 174 -170z" />
    <glyph glyph-name="exclam" unicode="!" horiz-adv-x="352" 
d="M245 701v-281l-19 -212h-98l-19 212v281h136zM100 69c0 44 32 77 76 77c43 0 76 -33 76 -77c0 -42 -33 -77 -76 -77c-44 0 -76 35 -76 77z" />
    <glyph glyph-name="question" unicode="?" horiz-adv-x="571" 
d="M355 281v-71h-127v74c0 59 32 96 66 135c29 33 60 68 60 114c0 19 -9 57 -65 54c-40 -2 -74 -29 -124 -79l-85 81c75 82 136 121 226 121c106 0 185 -62 185 -176c0 -76 -51 -137 -91 -183c-23 -27 -45 -53 -45 -70zM213 61c0 44 34 77 78 77c43 0 78 -33 78 -77
s-35 -78 -78 -78c-44 0 -78 30 -78 78z" />
    <glyph glyph-name="less" unicode="&#x3c;" horiz-adv-x="441" 
d="M222 294l189 -120l-57 -100l-324 196v48l324 195l57 -99z" />
    <glyph glyph-name="at" unicode="@" horiz-adv-x="1146" 
d="M580 730c311 0 506 -208 506 -481c0 -152 -66 -345 -257 -345c-53 0 -98 24 -123 68c-42 -33 -91 -47 -141 -47c-196 0 -256 158 -256 269c0 112 60 269 256 269c49 0 95 -11 137 -43l12 35h92v-385c1 -24 7 -46 39 -46c64 0 108 97 108 220c0 204 -136 360 -376 360
c-241 0 -388 -164 -385 -421c2 -150 100 -325 345 -407l-55 -113c-282 95 -420 293 -421 520c-2 313 200 547 519 547zM672 95v198c-20 26 -56 53 -102 53c-111 0 -128 -114 -128 -153s18 -151 128 -151c50 0 83 24 102 53z" />
    <glyph glyph-name="bracketleft" unicode="[" horiz-adv-x="270" 
d="M30 -205v985h210v-107h-80v-771h80v-107h-210z" />
    <glyph glyph-name="braceleft" unicode="{" horiz-adv-x="322" 
d="M251 777h41v-106h-20c-6 0 -53 5 -53 -80v-215c0 -36 -26 -73 -50 -86c23 -15 50 -50 50 -88v-215c0 -76 48 -80 54 -80h19v-106h-41c-5 0 -161 5 -161 179v216c0 29 -18 45 -33 48h-27v92h27c15 2 33 17 33 47v216c0 173 156 178 161 178z" />
    <glyph glyph-name="asciicircum" unicode="^" horiz-adv-x="609" 
d="M157 389l-77 68l215 260h21l213 -260l-77 -69l-147 167z" />
    <glyph glyph-name="underscore" unicode="_" horiz-adv-x="421" 
d="M5 -87v84h411v-84h-411z" />
    <glyph glyph-name="grave" unicode="`" horiz-adv-x="510" 
d="M165 786l161 -125l-52 -74l-174 108z" />
    <glyph glyph-name="circumflex" unicode="&#x2c6;" horiz-adv-x="518" 
d="M102 663l161 125l161 -125l-52 -74l-109 67l-109 -67z" />
    <glyph glyph-name="caron" unicode="&#x2c7;" horiz-adv-x="500" 
d="M263 586l-161 125l52 74l109 -67l109 67l52 -74z" />
    <glyph glyph-name="dagger" unicode="&#x2020;" horiz-adv-x="553" 
d="M342 374v-533h-132v533h-130v126h130v200h132v-200h131v-126h-131z" />
    <glyph glyph-name="asciitilde" unicode="~" horiz-adv-x="630" 
d="M146 206l-86 60c56 100 123 128 178 128c37 0 65 -17 92 -32c21 -12 43 -24 66 -24c21 0 49 16 87 66l87 -63c-49 -90 -113 -131 -175 -131c-41 0 -75 18 -104 36c-19 10 -41 22 -57 22c-20 0 -47 -8 -88 -62z" />
    <glyph glyph-name="tilde" unicode="&#x2dc;" horiz-adv-x="535" 
d="M363 735l82 -43c-37 -82 -90 -102 -133 -102c-44 0 -60 34 -94 34c-10 0 -32 -1 -50 -39l-78 36c26 87 86 107 129 107c48 0 68 -32 95 -32c7 0 26 -2 49 39z" />
    <glyph glyph-name="brokenbar" unicode="&#xa6;" horiz-adv-x="222" 
d="M162 188v-387h-102v387h102zM162 774v-386h-102v386h102z" />
    <glyph glyph-name="guilsinglleft" unicode="&#x2039;" horiz-adv-x="320" 
d="M176 256l114 -143l-73 -64l-187 200v13l187 199l73 -64z" />
    <glyph glyph-name="divide" unicode="&#xf7;" horiz-adv-x="461" 
d="M60 299h341v-99h-341v99zM162 434c0 38 29 68 68 68c38 0 68 -30 68 -68c0 -40 -30 -68 -68 -68c-39 0 -68 28 -68 68zM162 68c0 38 29 68 68 68c38 0 68 -30 68 -68c0 -40 -30 -68 -68 -68c-39 0 -68 28 -68 68z" />
    <glyph glyph-name="bullet" unicode="&#x2022;" horiz-adv-x="421" 
d="M208 161c-67 0 -128 61 -128 129c0 71 61 133 128 133c74 0 133 -62 133 -133c0 -68 -59 -129 -133 -129z" />
    <glyph glyph-name="endash" unicode="&#x2013;" horiz-adv-x="550" 
d="M471 261h-391v113h391v-113z" />
    <glyph glyph-name="emdash" unicode="&#x2014;" horiz-adv-x="672" 
d="M592 261h-512v113h512v-113z" />
    <glyph glyph-name="cedilla" unicode="&#xb8;" horiz-adv-x="554" 
d="M326 -86h-26l-12 13v96h82v-51c73 -2 96 -59 96 -91c0 -75 -56 -109 -117 -109c-32 0 -79 11 -106 27l30 66c10 -5 42 -17 66 -17c19 0 36 16 37 33s-13 33 -50 33z" />
    <glyph glyph-name="breve" unicode="&#x2d8;" horiz-adv-x="516" 
d="M328 749l101 -30c-23 -90 -86 -129 -156 -129s-133 38 -155 129l99 29c9 -44 34 -54 56 -54c21 0 46 13 55 55z" />
    <glyph glyph-name="ring" unicode="&#x2da;" horiz-adv-x="523" 
d="M160 692c0 56 46 102 102 102s101 -46 101 -102s-45 -101 -101 -101s-102 45 -102 101zM232 692c0 -15 14 -29 30 -29c15 0 29 14 29 29c0 16 -14 30 -29 30c-16 0 -30 -14 -30 -30z" />
    <glyph glyph-name="Euro" unicode="&#x20ac;" horiz-adv-x="584" 
d="M38 467h63c26 125 100 231 250 231c75 0 136 -32 193 -98l-85 -85c-36 38 -77 59 -108 59c-67 0 -100 -49 -115 -107h186l-27 -95h-172v-19c-1 -10 -1 -22 0 -34h144l-25 -95h-100c19 -58 54 -108 109 -108c31 0 75 20 110 58l82 -82c-57 -65 -116 -99 -192 -99
c-150 0 -222 109 -249 231h-92l28 95h52v36v17h-80z" />
    <glyph glyph-name="section" unicode="&#xa7;" horiz-adv-x="603" 
d="M80 -109l74 94c41 -30 103 -66 146 -66c34 0 71 19 71 56c0 35 -45 69 -111 102h1c-88 38 -161 106 -161 200c0 58 33 102 58 125c-22 27 -51 70 -51 125c0 80 63 180 204 180c81 0 156 -43 203 -77l-70 -102c-48 29 -93 50 -128 52c-51 0 -72 -26 -74 -49
c1 -30 40 -63 88 -86c95 -46 193 -110 193 -209c0 -57 -36 -104 -64 -130c24 -28 55 -75 55 -134c0 -110 -92 -181 -201 -181c-105 0 -187 58 -233 100zM231 285c0 -58 80 -84 123 -110c10 11 27 29 29 55c0 44 -90 74 -129 98c-12 -11 -23 -25 -23 -43z" />
    <glyph glyph-name="registered" unicode="&#xae;" horiz-adv-x="586" 
d="M268 404v-73h-68v250h100c72 0 94 -53 94 -88c0 -28 -19 -58 -41 -73l50 -89h-80l-39 73h-16zM268 471h35c18 1 22 15 22 22s-4 23 -24 23h-33v-45zM293 705c140 0 253 -113 253 -253s-113 -253 -253 -253c-129 0 -253 108 -253 255c0 129 110 251 253 251zM293 272
c101 0 180 79 180 180s-79 181 -180 181s-181 -80 -181 -181s80 -180 181 -180z" />
    <glyph glyph-name="copyright" unicode="&#xa9;" horiz-adv-x="586" 
d="M235 450c0 43 29 70 62 70c20 0 44 -9 66 -34l46 48c-30 36 -62 59 -112 59c-107 0 -144 -86 -144 -143c0 -60 37 -144 144 -144c50 0 82 24 112 59l-45 46c-21 -22 -47 -31 -67 -31c-33 0 -62 26 -62 70zM293 705c140 0 253 -113 253 -253s-113 -253 -253 -253
c-129 0 -253 108 -253 255c0 129 110 251 253 251zM293 272c101 0 180 79 180 180s-79 181 -180 181s-181 -80 -181 -181s80 -180 181 -180z" />
    <glyph glyph-name="logicalnot" unicode="&#xac;" horiz-adv-x="627" 
d="M547 420v-334h-221v127h-246v207h467z" />
    <glyph glyph-name="ordfeminine" unicode="&#xaa;" horiz-adv-x="402" 
d="M187 708c6 0 12 1 18 1c127 0 137 -83 137 -158v-219h-70l-7 24c-23 -20 -55 -30 -88 -31c-116 -6 -137 72 -137 116c0 101 82 123 158 123c16 0 30 -3 43 -6c0 52 -17 61 -49 61c-17 0 -62 -10 -99 -26l-33 76c45 24 87 37 127 39zM241 441v40c-11 3 -29 8 -46 8
c-29 0 -60 -8 -60 -43c0 -22 21 -34 44 -34c28 0 53 15 62 29z" />
    <glyph glyph-name="florin" unicode="&#x192;" horiz-adv-x="384" 
d="M-93 -186l40 107c32 -13 71 -22 96 -22c26 0 52 13 52 53v431h-52v117h52v37c0 116 81 170 180 170c41 0 93 -11 144 -36l-40 -107c-32 13 -71 22 -96 22c-26 0 -52 -13 -52 -53v-33h93v-117h-93v-435c0 -116 -81 -170 -180 -170c-41 0 -93 11 -144 36z" />
    <glyph glyph-name="mu" unicode="&#xb5;" horiz-adv-x="605" 
d="M80 -198v698h138v-258c0 -54 8 -129 82 -129c42 0 74 21 90 43v344h135v-500h-92l-12 36c-38 -31 -83 -45 -126 -44c-38 1 -63 13 -77 27v-217h-138z" />
    <glyph glyph-name="mu" unicode="&#x3bc;" horiz-adv-x="605" 
d="M80 -198v698h138v-258c0 -54 8 -129 82 -129c42 0 74 21 90 43v344h135v-500h-92l-12 36c-38 -31 -83 -45 -126 -44c-38 1 -63 13 -77 27v-217h-138z" />
    <glyph glyph-name="sterling" unicode="&#xa3;" horiz-adv-x="646" 
d="M469 671l-40 -107c-32 13 -71 22 -96 22c-26 0 -52 -13 -52 -53v-33h93v-117h-93v-217c39 -8 76 -44 122 -44c21 0 63 18 96 68l87 -63c-49 -90 -122 -129 -184 -129c-70 0 -125 57 -183 57c-20 0 -47 -8 -88 -62l-88 58c34 60 66 90 102 110v222h-52v117h52v37
c0 116 81 170 180 170c41 0 93 -11 144 -36z" />
    <glyph glyph-name="currency" unicode="&#xa4;" horiz-adv-x="664" 
d="M332 495c41 0 77 -10 105 -26l92 96l75 -76l-95 -95c20 -37 26 -76 26 -109c0 -30 -5 -68 -20 -101l89 -89l-75 -74l-84 84c-29 -17 -68 -30 -113 -30c-47 0 -85 12 -113 29l-84 -83l-75 75l91 88c-17 34 -22 71 -22 101c0 33 6 73 25 110l-93 94l75 76l93 -94
c29 15 62 24 103 24zM332 206c56 0 65 59 65 79s-9 80 -65 80c-57 0 -65 -60 -65 -80s8 -79 65 -79z" />
    <glyph glyph-name="degree" unicode="&#xb0;" horiz-adv-x="330" 
d="M165 440c-75 0 -135 60 -135 135s60 135 135 135c74 0 135 -57 135 -135c0 -75 -61 -135 -135 -135zM165 522c27 0 51 21 51 53c0 30 -24 51 -51 51c-29 0 -54 -24 -54 -51c0 -32 25 -53 54 -53z" />
    <glyph glyph-name="uni00AD" unicode="&#xad;" horiz-adv-x="400" 
d="M61 266h282v-116h-282v116z" />
    <glyph glyph-name="germandbls" unicode="&#xdf;" horiz-adv-x="665" 
d="M306 105c94 0 117 47 117 87c-5 61 -93 96 -93 166c0 62 78 92 78 150c0 5 2 74 -81 74c-30 0 -86 -13 -87 -85v-539h-140v537c0 213 204 214 217 214c183 0 224 -133 224 -200c0 -87 -53 -118 -64 -145c3 -38 88 -69 88 -176c0 -115 -83 -198 -259 -198v115z" />
    <glyph glyph-name="periodcentered" unicode="&#xb7;" horiz-adv-x="284" 
d="M60 299c0 47 34 81 81 81c46 0 83 -34 83 -81c0 -46 -37 -83 -83 -83c-47 0 -81 37 -81 83z" />
    <glyph glyph-name="thorn" unicode="&#xfe;" horiz-adv-x="614" 
d="M305 -8c-33 0 -63 5 -90 14v-205h-135v900h135v-207c27 9 57 14 90 14c192 0 249 -153 249 -258s-57 -258 -249 -258zM215 365v-230c24 -16 55 -22 82 -22c103 0 123 97 123 137s-20 137 -123 137c-27 0 -58 -6 -82 -22z" />
    <glyph glyph-name="Thorn" unicode="&#xde;" horiz-adv-x="655" 
d="M340 83h-101v-83h-139v700h139v-89h101c196 0 255 -157 255 -264s-59 -264 -255 -264zM239 488v-281h93c104 0 125 99 125 140c0 42 -21 141 -125 141h-93z" />
    <glyph glyph-name="eth" unicode="&#xf0;" horiz-adv-x="584" 
d="M161 621l73 96c18 -12 37 -25 57 -41l59 60l64 -64l-55 -55c87 -89 166 -218 166 -392c0 -70 -43 -231 -233 -231c-189 0 -232 153 -232 222c0 89 39 219 213 228c38 0 58 -7 69 -12c-15 32 -40 66 -71 98l-48 -48l-62 62l45 45c-15 12 -31 23 -45 32zM292 118
c67 0 101 51 101 103c-2 53 -34 102 -101 102s-100 -51 -100 -102c0 -52 35 -103 100 -103z" />
    <glyph glyph-name="paragraph" unicode="&#xb6;" horiz-adv-x="734" 
d="M40 491c0 86 46 210 204 210h410v-108h-67v-792h-130v792h-88v-792h-130v480c-153 2 -199 125 -199 210z" />
    <glyph glyph-name="macron" unicode="&#xaf;" horiz-adv-x="516" 
d="M113 694h301v-97h-301v97z" />
    <glyph glyph-name="ordmasculine" unicode="&#xba;" horiz-adv-x="378" 
d="M189 706c115 0 149 -92 149 -155c0 -65 -34 -155 -149 -155s-149 90 -149 155c0 63 34 155 149 155zM189 501c38 0 43 37 43 50c0 12 -5 49 -43 49s-43 -37 -43 -49c0 -13 5 -50 43 -50zM59 322h259v-105h-259v105z" />
    <glyph glyph-name="fraction" unicode="&#x2044;" horiz-adv-x="67" 
d="M261 700l-349 -700h-102l350 700h101z" />
    <glyph glyph-name="zero.oldstyle" horiz-adv-x="578" 
d="M289 506c176 0 229 -157 229 -262c0 -99 -43 -250 -229 -250s-229 157 -229 256c0 94 43 256 229 256zM289 117c89 0 93 101 93 127c0 28 -4 138 -93 138c-88 0 -92 -104 -92 -132s4 -133 92 -133z" />
    <glyph glyph-name="one.oldstyle" horiz-adv-x="474" 
d="M61 105h121v217l-102 -53l-50 83l229 160h48v-407h107v-105h-353v105z" />
    <glyph glyph-name="two.oldstyle" horiz-adv-x="444" 
d="M383 354c0 -50 -24 -94 -62 -145l-69 -93h132v-116h-352v29l193 257c25 31 30 58 30 63c0 12 -6 37 -37 37c-24 0 -62 -15 -115 -62l-73 84c69 76 136 98 188 98c93 0 165 -51 165 -152z" />
    <glyph glyph-name="three.oldstyle" horiz-adv-x="503" 
d="M443 324c0 -37 -20 -95 -69 -124c51 -28 69 -83 69 -131c0 -61 -37 -185 -200 -185c-93 0 -156 41 -203 89l72 85c36 -35 89 -50 131 -50c37 0 67 26 71 62c5 43 -28 79 -74 79h-91v104h94c37 0 70 29 70 71s-33 63 -70 63s-91 -20 -131 -54l-70 87c43 40 108 86 201 86
c172 0 200 -117 200 -182z" />
    <glyph glyph-name="four.oldstyle" horiz-adv-x="516" 
d="M400 7v-118h-136v118h-234v73l264 420h106v-371h86v-122h-86zM264 239l-71 -110h71v110z" />
    <glyph glyph-name="five.oldstyle" horiz-adv-x="544" 
d="M60 -3l80 80c47 -57 96 -66 124 -66c54 0 89 41 89 82c0 48 -34 85 -91 85h-148v322h338v-123h-205v-80h21c175 0 216 -117 216 -208c0 -65 -48 -201 -221 -201c-80 0 -144 37 -203 109z" />
    <glyph glyph-name="six.oldstyle" horiz-adv-x="554" 
d="M339 634l65 -92c-80 -46 -133 -102 -163 -143c10 5 25 8 37 8c178 0 216 -134 216 -212c0 -63 -41 -207 -216 -207c-174 0 -216 141 -217 207c-5 218 140 360 278 439zM278 111c56 0 85 46 85 89s-28 87 -85 87c-56 0 -86 -42 -86 -87c0 -43 30 -89 86 -89z" />
    <glyph glyph-name="seven.oldstyle" horiz-adv-x="440" 
d="M237 378h-207v122h383l4 -9l-236 -602h-136z" />
    <glyph glyph-name="eight.oldstyle" horiz-adv-x="545" 
d="M272 -5c-165 0 -212 113 -212 189c0 57 33 110 74 131c-40 24 -67 79 -67 129c0 67 38 186 208 186c166 0 204 -119 204 -186c0 -50 -22 -100 -66 -129c44 -21 72 -83 72 -131c0 -76 -47 -189 -213 -189zM274 257c-64 0 -87 -45 -87 -73c0 -53 43 -77 87 -77
c42 0 84 24 84 77c0 28 -23 73 -84 73zM352 444c0 45 -39 70 -79 70c-41 0 -79 -25 -79 -70c0 -20 17 -72 79 -74c61 2 79 54 79 74z" />
    <glyph glyph-name="nine.oldstyle" horiz-adv-x="554" 
d="M215 -140l-67 92c80 46 137 107 167 148c-10 -5 -27 -10 -39 -10c-178 0 -216 131 -216 209c0 63 41 207 216 207c174 0 216 -141 217 -207c5 -218 -140 -360 -278 -439zM276 383c-56 0 -85 -46 -85 -89s28 -87 85 -87c56 0 86 42 86 87c0 43 -30 89 -86 89z" />
    <glyph glyph-name="Euro.oldstyle" horiz-adv-x="583" 
d="M60 168l24 64h34v32h-58l24 64h43c25 108 104 178 218 178c64 0 126 -14 178 -62l-67 -96c-27 20 -64 33 -98 33c-37 0 -71 -15 -91 -53h142l-24 -64h-134v-32h103l-24 -64h-64c20 -39 51 -54 84 -54c35 0 72 16 102 38l63 -96c-52 -40 -109 -62 -170 -62
c-117 0 -193 67 -218 174h-67z" />
    <glyph glyph-name="florin.oldstyle" horiz-adv-x="492" 
d="M-40 -126l40 107c32 -13 71 -22 96 -22c26 0 52 13 52 53v176h-52v117h52v37c0 116 81 170 180 170c41 0 93 -11 144 -36l-40 -107c-32 13 -71 22 -96 22c-26 0 -52 -13 -52 -53v-33h93v-117h-93v-180c0 -116 -81 -170 -180 -170c-41 0 -93 11 -144 36z" />
    <glyph glyph-name="sterling.oldstyle" horiz-adv-x="648" 
d="M471 488l-40 -107c-32 13 -71 22 -96 22c-26 0 -52 -13 -52 -53v-48h93v-72h-93v-64c39 -8 76 -44 122 -44c21 0 63 18 96 68l87 -63c-49 -90 -122 -129 -184 -129c-70 0 -125 57 -183 57c-20 0 -47 -8 -88 -62l-88 58c34 60 66 90 102 110v69h-52v72h52v52
c0 116 81 170 180 170c41 0 93 -11 144 -36z" />
    <glyph glyph-name="yen.oldstyle" horiz-adv-x="630" 
d="M136 268h87l-163 220v12h149l105 -157l104 157h152v-10l-162 -222h84v-81h-108v-51h108v-75h-108v-61h-139v61h-109v75h109v51h-109v81z" />
    <glyph glyph-name="percent.oldstyle" horiz-adv-x="900" 
d="M189 560c121 0 157 -98 157 -165s-36 -163 -157 -163c-123 0 -159 96 -159 163s36 165 159 165zM713 323c121 0 157 -98 157 -165s-36 -163 -157 -163c-122 0 -158 96 -158 163s36 165 158 165zM418 0h-119l186 557h118zM713 103c38 0 44 40 44 55c0 16 -6 56 -44 56
c-39 0 -45 -40 -45 -56c0 -15 6 -55 45 -55zM189 340c38 0 43 40 43 55c0 16 -5 56 -43 56c-40 0 -45 -40 -45 -56c0 -15 5 -55 45 -55z" />
    <glyph glyph-name="ogonek" unicode="&#x2db;" horiz-adv-x="611" 
d="M268 26h88v-29c0 -24 -34 -56 -34 -94c0 -32 22 -40 51 -40c25 0 61 10 82 18v-81c-37 -16 -81 -23 -113 -23c-62 0 -116 33 -116 106c0 53 42 94 42 117v26z" />
    <glyph glyph-name="dotaccent" unicode="&#x2d9;" horiz-adv-x="579" 
d="M206 667c0 43 33 77 77 77c43 0 76 -34 76 -77c0 -44 -33 -76 -76 -76c-44 0 -77 32 -77 76z" />
    <glyph glyph-name="hungarumlaut" unicode="&#x2dd;" horiz-adv-x="530" 
d="M465 754l-65 -158h-97l49 158h113zM262 754l-65 -158h-97l49 158h113z" />
    <glyph glyph-name="minus" unicode="&#x2212;" horiz-adv-x="557" 
d="M75 428h414v-97h-414v97z" />
    <glyph glyph-name="commaaccent" horiz-adv-x="250" 
d="M126 -342l-58 26c15 30 31 66 38 88c-34 11 -49 37 -49 70c0 38 30 71 70 71c56 0 77 -39 77 -77c0 -53 -47 -131 -78 -178z" />
    <glyph glyph-name="Lslash" unicode="&#x141;" horiz-adv-x="560" 
d="M66 219l-56 93l98 57v331h142v-249l124 72l55 -93l-179 -105v-195h250v-130h-392v245z" />
    <glyph glyph-name="lslash" unicode="&#x142;" horiz-adv-x="379" 
d="M65 214l-55 90l96 57v330h138v-251c23 13 50 29 71 41l54 -91l-125 -73v-316h-138v238c-14 -9 -30 -19 -41 -25z" />
    <glyph glyph-name="a.alt" horiz-adv-x="614" 
d="M304 -9c-186 0 -244 152 -244 259s58 258 244 258c44 0 88 -13 126 -39l11 31h93v-500h-93l-11 35c-36 -32 -83 -44 -126 -44zM309 387c-100 0 -115 -103 -115 -137s15 -137 115 -137c43 0 71 16 90 37v202c-18 18 -52 35 -90 35z" />
    <glyph glyph-name="aogonek.alt" horiz-adv-x="616" 
d="M304 -9c-186 0 -244 152 -244 259s58 258 244 258c44 0 88 -13 126 -39l11 31h93v-503c0 -24 -35 -56 -35 -94c0 -35 24 -46 53 -46c25 0 53 8 74 16l-1 -75c-37 -16 -72 -21 -104 -21c-62 0 -116 33 -116 106c0 53 41 94 41 117l-16 35c-36 -32 -83 -44 -126 -44z
M309 387c-100 0 -115 -103 -115 -137s15 -137 115 -137c43 0 71 16 90 37v202c-18 18 -52 35 -90 35z" />
    <glyph glyph-name="amacron.alt" horiz-adv-x="612" 
d="M304 -9c-186 0 -244 152 -244 259s58 258 244 258c44 0 88 -13 126 -39l11 31h93v-500h-93l-11 35c-36 -32 -83 -44 -126 -44zM309 387c-100 0 -115 -103 -115 -137s15 -137 115 -137c43 0 71 16 90 37v202c-18 18 -52 35 -90 35zM166 688h301v-97h-301v97z" />
    <glyph glyph-name="adieresis.alt" horiz-adv-x="613" 
d="M304 -9c-186 0 -244 152 -244 259s58 258 244 258c44 0 88 -13 126 -39l11 31h93v-500h-93l-11 35c-36 -32 -83 -44 -126 -44zM309 387c-100 0 -115 -103 -115 -137s15 -137 115 -137c43 0 71 16 90 37v202c-18 18 -52 35 -90 35zM130 662c0 43 33 77 77 77
c43 0 76 -34 76 -77c0 -44 -33 -76 -76 -76c-44 0 -77 32 -77 76zM359 662c0 43 33 77 77 77c43 0 76 -34 76 -77c0 -44 -33 -76 -76 -76c-44 0 -77 32 -77 76z" />
    <glyph glyph-name="aring.alt" horiz-adv-x="612" 
d="M304 -9c-186 0 -244 152 -244 259s58 258 244 258c44 0 88 -13 126 -39l11 31h93v-500h-93l-11 35c-36 -32 -83 -44 -126 -44zM309 387c-100 0 -115 -103 -115 -137s15 -137 115 -137c43 0 71 16 90 37v202c-18 18 -52 35 -90 35zM213 688c0 56 46 102 102 102
s101 -46 101 -102s-45 -101 -101 -101s-102 45 -102 101zM285 688c0 -15 14 -29 30 -29c15 0 29 14 29 29c0 16 -14 30 -29 30c-16 0 -30 -14 -30 -30z" />
    <glyph glyph-name="agrave.alt" horiz-adv-x="612" 
d="M304 -9c-186 0 -244 152 -244 259s58 258 244 258c44 0 88 -13 126 -39l11 31h93v-500h-93l-11 35c-36 -32 -83 -44 -126 -44zM309 387c-100 0 -115 -103 -115 -137s15 -137 115 -137c43 0 71 16 90 37v202c-18 18 -52 35 -90 35zM232 786l161 -125l-52 -74l-174 108z
" />
    <glyph glyph-name="acircumflex.alt" horiz-adv-x="612" 
d="M304 -9c-186 0 -244 152 -244 259s58 258 244 258c44 0 88 -13 126 -39l11 31h93v-500h-93l-11 35c-36 -32 -83 -44 -126 -44zM309 387c-100 0 -115 -103 -115 -137s15 -137 115 -137c43 0 71 16 90 37v202c-18 18 -52 35 -90 35zM152 660l161 125l161 -125l-52 -74
l-109 67l-109 -67z" />
    <glyph glyph-name="aacute.alt" horiz-adv-x="612" 
d="M304 -9c-186 0 -244 152 -244 259s58 258 244 258c44 0 88 -13 126 -39l11 31h93v-500h-93l-11 35c-36 -32 -83 -44 -126 -44zM309 387c-100 0 -115 -103 -115 -137s15 -137 115 -137c43 0 71 16 90 37v202c-18 18 -52 35 -90 35zM208 661l161 125l65 -91l-174 -108z" />
    <glyph glyph-name="atilde.alt" horiz-adv-x="612" 
d="M304 -9c-186 0 -244 152 -244 259s58 258 244 258c44 0 88 -13 126 -39l11 31h93v-500h-93l-11 35c-36 -32 -83 -44 -126 -44zM309 387c-100 0 -115 -103 -115 -137s15 -137 115 -137c43 0 71 16 90 37v202c-18 18 -52 35 -90 35zM405 733l82 -43
c-37 -82 -90 -102 -133 -102c-44 0 -60 34 -94 34c-10 0 -32 -1 -50 -39l-78 36c26 87 86 107 129 107c48 0 68 -32 95 -32c7 0 26 -2 49 39z" />
    <glyph glyph-name="abreve.alt" horiz-adv-x="612" 
d="M304 -9c-186 0 -244 152 -244 259s58 258 244 258c44 0 88 -13 126 -39l11 31h93v-500h-93l-11 35c-36 -32 -83 -44 -126 -44zM309 387c-100 0 -115 -103 -115 -137s15 -137 115 -137c43 0 71 16 90 37v202c-18 18 -52 35 -90 35zM365 746l101 -30
c-23 -90 -86 -129 -156 -129s-133 38 -155 129l99 29c9 -44 34 -54 56 -54c21 0 46 13 55 55z" />
    <glyph glyph-name="notequal" unicode="&#x2260;" horiz-adv-x="509" 
d="M151 91h-71v113h106l29 87h-135v114h170l34 95h105l-33 -95h74v-114h-108l-30 -87h138v-113h-173l-31 -91h-103z" />
    <glyph glyph-name="infinity" unicode="&#x221e;" horiz-adv-x="670" 
d="M224 143c-103 0 -144 78 -144 152c0 72 41 152 144 152c44 0 85 -25 112 -58c25 34 65 58 110 58c104 0 144 -80 144 -153s-40 -151 -144 -151c-43 0 -84 23 -110 55c-26 -33 -66 -55 -112 -55zM438 248c26 0 43 21 43 46c0 24 -17 43 -43 43c-22 0 -39 -17 -50 -43
c11 -27 28 -46 50 -46zM233 247c22 0 38 20 49 48c-10 25 -26 44 -49 44c-26 0 -43 -17 -43 -44c0 -30 17 -48 43 -48z" />
    <glyph glyph-name="partialdiff" unicode="&#x2202;" horiz-adv-x="586" 
d="M161 621l69 93c138 -82 296 -245 295 -489c0 -70 -43 -231 -233 -231c-189 0 -232 153 -232 222c0 77 39 219 213 228c38 0 58 -7 69 -12c-50 85 -98 139 -181 189zM292 118c67 0 101 51 101 103c-2 53 -34 102 -101 102s-100 -51 -100 -102c0 -52 35 -103 100 -103z" />
    <glyph glyph-name="summation" unicode="&#x2211;" horiz-adv-x="521" 
d="M248 577l151 -227l-151 -227h243v-123h-458l-3 8l216 342l-215 342l3 8h457v-123h-243z" />
    <glyph glyph-name="lessequal" unicode="&#x2264;" horiz-adv-x="441" 
d="M30 111h356v-111h-356v111zM222 378l189 -120l-57 -100l-324 196v48l324 195l57 -99z" />
    <glyph glyph-name="greaterequal" unicode="&#x2265;" horiz-adv-x="441" 
d="M411 111h-356v-111h356v111zM30 258l189 120l-189 120l57 99l324 -195v-48l-324 -196z" />
    <glyph glyph-name="approxequal" unicode="&#x2248;" horiz-adv-x="609" 
d="M162 279l-82 56c54 93 109 115 158 115c53 0 94 -44 131 -44c16 0 48 15 79 55l81 -62c-45 -82 -105 -113 -159 -113c-50 0 -87 47 -134 47c-14 0 -40 -10 -74 -54zM162 75l-82 56c54 93 109 115 158 115c53 0 94 -44 131 -44c16 0 48 15 79 55l81 -62
c-45 -82 -105 -113 -159 -113c-50 0 -87 47 -134 47c-14 0 -40 -10 -74 -54z" />
    <glyph glyph-name="product" unicode="&#x220f;" horiz-adv-x="612" 
d="M117 0v580h-72v122h522v-122h-70v-580h-139v580h-103v-580h-138z" />
    <glyph glyph-name="pi" unicode="&#x3c0;" horiz-adv-x="646" 
d="M455 -4c-108 0 -119 100 -119 136v239h-82v-371h-136v371h-68v129h516v-129h-93v-224c0 -17 2 -33 21 -32c8 0 34 6 79 17l23 -112c-66 -19 -120 -24 -141 -24z" />
    <glyph glyph-name="integral" unicode="&#x222b;" horiz-adv-x="482" 
d="M435 560c-28 16 -59 28 -84 28c-32 0 -56 -19 -56 -75v-526c0 -42 -10 -190 -178 -190c-67 0 -133 35 -157 59l57 87c28 -16 59 -28 84 -28c32 0 56 19 56 75v526c0 42 10 190 178 190c67 0 133 -35 157 -59z" />
    <glyph glyph-name="lozenge" unicode="&#x25ca;" horiz-adv-x="660" 
d="M60 348l270 373l270 -373l-270 -373zM330 496l-104 -148l104 -148l104 148z" />
    <glyph glyph-name="Delta" unicode="&#x394;" horiz-adv-x="763" 
d="M381 707l322 -707h-643zM262 130h238l-119 295z" />
    <glyph glyph-name="Delta" unicode="&#x2206;" horiz-adv-x="763" 
d="M381 707l322 -707h-643zM262 130h238l-119 295z" />
    <glyph glyph-name="Omega" unicode="&#x3a9;" horiz-adv-x="848" 
d="M424 708c267 0 346 -213 346 -359c0 -69 -22 -157 -82 -219h100v-130h-291v119c112 58 129 186 129 230c0 57 -25 228 -202 228s-202 -171 -202 -228c0 -44 17 -172 129 -230v-119h-291v130h100c-60 62 -82 150 -82 219c0 146 79 359 346 359z" />
    <glyph glyph-name="Omega" unicode="&#x2126;" horiz-adv-x="848" 
d="M424 708c267 0 346 -213 346 -359c0 -69 -22 -157 -82 -219h100v-130h-291v119c112 58 129 186 129 230c0 57 -25 228 -202 228s-202 -171 -202 -228c0 -44 17 -172 129 -230v-119h-291v130h100c-60 62 -82 150 -82 219c0 146 79 359 346 359z" />
    <glyph glyph-name="radical" unicode="&#x221a;" horiz-adv-x="685" 
d="M288 292l175 408h192v-109h-98l-265 -596h-9l-253 505h150z" />
    <glyph glyph-name="estimated" unicode="&#x212e;" horiz-adv-x="815" 
d="M618 178l64 -52c-71 -89 -150 -135 -275 -135c-268 0 -347 212 -347 362c0 145 79 359 347 359s348 -214 348 -359v-27h-537v-172c38 -47 98 -86 189 -86c93 0 156 44 211 110zM407 636c-91 0 -152 -39 -189 -86v-147h376c0 25 1 50 1 151c-38 46 -96 82 -188 82z" />
    <glyph glyph-name="arrowleft" unicode="&#x2190;" horiz-adv-x="616" 
d="M556 198h-277l125 -136l-80 -75l-264 267v8l263 269l79 -79l-123 -134h277v-120z" />
    <glyph glyph-name="arrowup" unicode="&#x2191;" horiz-adv-x="664" 
d="M271 11v277l-136 -125l-75 80l267 264h8l269 -263l-79 -79l-134 123v-277h-120z" />
    <glyph glyph-name="arrowright" unicode="&#x2192;" horiz-adv-x="616" 
d="M337 198h-277v120h277l-123 134l79 79l263 -269v-8l-264 -267l-80 75z" />
    <glyph glyph-name="arrowdown" unicode="&#x2193;" horiz-adv-x="664" 
d="M271 230v277h120v-277l134 123l79 -79l-269 -263h-8l-267 264l75 80z" />
    <glyph glyph-name="afii61289" unicode="&#x2113;" horiz-adv-x="450" 
d="M20 285v121h52v124c0 150 107 180 166 180c125 0 182 -94 182 -190c0 -125 -97 -219 -211 -233v-94c0 -31 4 -80 46 -78c17 0 45 11 87 40l63 -99c-19 -15 -68 -59 -144 -65c-176 -11 -189 135 -189 192v102h-52zM209 537v-129c49 10 84 55 81 120c-2 39 -25 60 -50 59
c-16 -2 -31 -14 -31 -50z" />
    <glyph glyph-name="b" unicode="b" horiz-adv-x="614" 
d="M305 509c201 0 249 -148 249 -259c0 -107 -53 -259 -239 -259c-41 0 -102 18 -131 44l-11 -35h-93v701h135v-209c24 11 57 17 90 17zM305 113c103 0 115 97 115 137c0 49 -14 138 -123 138c-23 0 -62 -11 -82 -24v-212c13 -18 49 -39 90 -39z" />
    <glyph glyph-name="onethird" unicode="&#x2153;" horiz-adv-x="630" 
d="M512 700l-349 -700h-102l350 700h101zM183 703v-327h-88v208l-41 -22l-34 56l119 85h44zM598 228c0 -20 -11 -49 -31 -66c23 -18 31 -42 31 -64c0 -35 -22 -104 -116 -104c-53 0 -90 25 -116 49l49 54c22 -21 48 -26 67 -26c18 0 35 11 35 27c0 21 -17 31 -35 31h-55v67
h55c18 0 35 11 35 32c0 17 -17 27 -35 27c-17 0 -48 -12 -67 -28l-47 54c24 24 62 51 114 51c94 0 116 -67 116 -104z" />
    <glyph glyph-name="twothirds" unicode="&#x2154;" horiz-adv-x="690" 
d="M568 700l-349 -700h-102l350 700h101zM654 228c0 -20 -11 -49 -31 -66c23 -18 31 -42 31 -64c0 -35 -22 -104 -116 -104c-53 0 -90 25 -116 49l49 54c22 -21 48 -26 67 -26c18 0 35 11 35 27c0 21 -17 31 -35 31h-55v67h55c18 0 35 11 35 32c0 17 -17 27 -35 27
c-17 0 -48 -12 -67 -28l-47 54c24 24 62 51 114 51c94 0 116 -67 116 -104zM82 586l-54 52c41 50 83 68 126 68c70 0 109 -43 109 -104c0 -29 -16 -61 -40 -94l-41 -57h76v-78h-222l-3 8l123 177c20 29 18 36 18 43c0 10 -9 23 -24 23c-19 0 -35 -8 -68 -38z" />
    <glyph glyph-name="oneeighth" unicode="&#x215b;" horiz-adv-x="628" 
d="M512 700l-349 -700h-102l350 700h101zM183 703v-327h-88v208l-41 -22l-34 56l119 85h44zM593 231c0 -18 -10 -52 -36 -68c31 -20 35 -57 35 -72c0 -35 -21 -97 -112 -97c-93 0 -115 60 -115 98c0 22 12 58 35 72c-23 11 -35 42 -35 66c0 32 22 100 115 100
c91 0 113 -58 113 -99zM480 71c14 0 28 10 28 26s-14 26 -28 26c-15 0 -30 -10 -30 -26s15 -26 30 -26zM480 201c14 0 28 10 28 26c0 17 -14 27 -28 27c-15 0 -30 -10 -30 -27c0 -16 15 -26 30 -26z" />
    <glyph glyph-name="threeeighths" unicode="&#x215c;" horiz-adv-x="644" 
d="M548 700l-349 -700h-102l350 700h101zM612 231c0 -18 -10 -52 -36 -68c31 -20 35 -57 35 -72c0 -35 -21 -97 -112 -97c-93 0 -115 60 -115 98c0 22 12 58 35 72c-23 11 -35 42 -35 66c0 32 22 100 115 100c91 0 113 -58 113 -99zM499 71c14 0 28 10 28 26s-14 26 -28 26
c-15 0 -30 -10 -30 -26s15 -26 30 -26zM499 201c14 0 28 10 28 26c0 17 -14 27 -28 27c-15 0 -30 -10 -30 -27c0 -16 15 -26 30 -26zM254 598c0 -20 -11 -49 -31 -66c23 -18 31 -42 31 -64c0 -35 -22 -104 -116 -104c-53 0 -90 25 -116 49l49 54c22 -21 48 -26 67 -26
c18 0 35 11 35 27c0 21 -17 31 -35 31h-55v67h55c18 0 35 11 35 32c0 17 -17 27 -35 27c-17 0 -48 -12 -67 -28l-47 54c24 24 62 51 114 51c94 0 116 -67 116 -104z" />
    <glyph glyph-name="fiveeighths" unicode="&#x215d;" horiz-adv-x="655" 
d="M548 700l-349 -700h-102l350 700h101zM612 231c0 -18 -10 -52 -36 -68c31 -20 35 -57 35 -72c0 -35 -21 -97 -112 -97c-93 0 -115 60 -115 98c0 22 12 58 35 72c-23 11 -35 42 -35 66c0 32 22 100 115 100c91 0 113 -58 113 -99zM499 71c14 0 28 10 28 26s-14 26 -28 26
c-15 0 -30 -10 -30 -26s15 -26 30 -26zM499 201c14 0 28 10 28 26c0 17 -14 27 -28 27c-15 0 -30 -10 -30 -27c0 -16 15 -26 30 -26zM18 431l57 52c22 -29 52 -33 66 -33c23 0 36 20 36 35c0 19 -13 34 -37 34h-88v183h189v-73h-102v-39c104 0 124 -61 124 -105
c0 -38 -26 -115 -123 -115c-49 0 -92 23 -122 61z" />
    <glyph glyph-name="seveneighths" unicode="&#x215e;" horiz-adv-x="614" 
d="M511 700l-349 -700h-102l350 700h101zM575 231c0 -18 -10 -52 -36 -68c31 -20 35 -57 35 -72c0 -35 -21 -97 -112 -97c-93 0 -115 60 -115 98c0 22 12 58 35 72c-23 11 -35 42 -35 66c0 32 22 100 115 100c91 0 113 -58 113 -99zM462 71c14 0 28 10 28 26s-14 26 -28 26
c-15 0 -30 -10 -30 -26s15 -26 30 -26zM462 201c14 0 28 10 28 26c0 17 -14 27 -28 27c-15 0 -30 -10 -30 -27c0 -16 15 -26 30 -26zM32 621v79h226v-9l-130 -318h-89l101 248h-108z" />
    <glyph glyph-name="parenleft" unicode="(" horiz-adv-x="320" 
d="M30 294c0 162 51 329 168 497l92 -56c-81 -149 -125 -299 -125 -440c0 -144 44 -298 125 -447l-92 -55c-118 167 -168 340 -168 501z" />
    <glyph glyph-name="parenleft.case" horiz-adv-x="320" 
d="M30 352c0 162 51 329 168 497l92 -56c-81 -149 -125 -299 -125 -440c0 -144 44 -298 125 -447l-92 -55c-118 167 -168 340 -168 501z" />
    <glyph glyph-name="parenright.case" horiz-adv-x="320" 
d="M290 353c0 -161 -50 -334 -168 -501l-92 55c81 149 125 303 125 447c0 141 -44 291 -125 440l92 56c117 -168 168 -335 168 -497z" />
    <glyph glyph-name="hyphen.case" horiz-adv-x="438" 
d="M80 411h286v-115h-286v115z" />
    <glyph glyph-name="bracketleft.case" horiz-adv-x="270" 
d="M30 -136v985h210v-107h-80v-771h80v-107h-210z" />
    <glyph glyph-name="bracketright.case" horiz-adv-x="270" 
d="M240 849v-985h-210v107h80v771h-80v107h210z" />
    <glyph glyph-name="braceleft.case" horiz-adv-x="322" 
d="M251 842h41v-106h-20c-6 0 -53 5 -53 -80v-215c0 -36 -26 -73 -50 -86c23 -15 50 -50 50 -88v-215c0 -76 48 -80 54 -80h19v-106h-41c-5 0 -161 5 -161 179v216c0 29 -18 45 -33 48h-27v92h27c15 2 33 17 33 47v216c0 173 156 178 161 178z" />
    <glyph glyph-name="bar.case" horiz-adv-x="222" 
d="M162 -134h-102v972h102v-972z" />
    <glyph glyph-name="braceright.case" horiz-adv-x="322" 
d="M30 842h41c5 0 161 -5 161 -178v-216c0 -30 18 -45 33 -47h27v-92h-27c-15 -3 -33 -19 -33 -48v-216c0 -174 -156 -179 -161 -179h-41v106h19c6 0 54 4 54 80v215c0 38 27 73 50 88c-24 13 -50 50 -50 86v215c0 85 -47 80 -53 80h-20v106z" />
    <glyph glyph-name="guilsinglleft.case" horiz-adv-x="320" 
d="M176 351l114 -143l-73 -64l-187 200v13l187 199l73 -64z" />
    <glyph glyph-name="guilsinglright.case" horiz-adv-x="320" 
d="M30 208l114 143l-114 141l73 64l187 -199v-13l-187 -200z" />
    <glyph glyph-name="guillemotleft.case" horiz-adv-x="563" 
d="M176 351l114 -143l-73 -64l-187 200v13l187 199l73 -64zM419 351l114 -143l-73 -64l-187 200v13l187 199l73 -64z" />
    <glyph glyph-name="guillemotright.case" horiz-adv-x="563" 
d="M273 208l114 143l-114 141l73 64l187 -199v-13l-187 -200zM30 208l114 143l-114 141l73 64l187 -199v-13l-187 -200z" />
    <glyph glyph-name="endash.case" horiz-adv-x="550" 
d="M471 323h-391v113h391v-113z" />
    <glyph glyph-name="emdash.case" horiz-adv-x="672" 
d="M592 323h-512v113h512v-113z" />
    <glyph glyph-name="bullet.case" horiz-adv-x="421" 
d="M208 228c-67 0 -128 61 -128 129c0 71 61 133 128 133c74 0 133 -62 133 -133c0 -68 -59 -129 -133 -129z" />
    <glyph glyph-name="periodcentered.case" horiz-adv-x="284" 
d="M60 365c0 47 34 81 81 81c46 0 83 -34 83 -81c0 -46 -37 -83 -83 -83c-47 0 -81 37 -81 83z" />
    <glyph glyph-name="brokenbar.case" horiz-adv-x="222" 
d="M162 252v-387h-102v387h102zM162 838v-386h-102v386h102z" />
    <glyph glyph-name="onequarter" unicode="&#xbc;" horiz-adv-x="592" 
d="M512 700l-349 -700h-102l350 700h101zM183 703v-327h-88v208l-41 -22l-34 56l119 85h44zM510 48v-47h-83v47h-132v66l147 215h68v-207h46v-74h-46zM427 183l-42 -61h42v61z" />
    <glyph glyph-name="onehalf" unicode="&#xbd;" horiz-adv-x="639" 
d="M512 700l-349 -700h-102l350 700h101zM183 703v-327h-88v208l-41 -22l-34 56l119 85h44zM416 213l-54 52c41 50 83 68 126 68c70 0 109 -49 109 -104c0 -29 -17 -63 -40 -94l-43 -57h78v-78h-225v20l123 165c18 24 18 36 18 43c0 10 -9 23 -24 23c-19 0 -35 -8 -68 -38z
" />
    <glyph glyph-name="Oslash" unicode="&#xd8;" horiz-adv-x="814" 
d="M408 712c79 0 141 -20 190 -50l51 60l78 -65l-53 -63c58 -73 80 -167 80 -243c0 -150 -81 -362 -346 -362c-83 0 -148 20 -198 53l-57 -68l-78 65l61 72c-55 72 -76 164 -76 240c0 146 81 361 348 361zM408 120c176 0 202 174 202 231c0 27 -6 81 -32 129l-278 -332
c27 -17 63 -28 108 -28zM204 351c0 -26 5 -77 28 -125l276 329c-26 15 -59 25 -100 25c-179 0 -204 -172 -204 -229z" />
    <glyph glyph-name="numbersign.oldstyle" horiz-adv-x="575" 
d="M60 397h80v103h111v-103h73v103h111v-103h80v-110h-80v-74h80v-109h-80v-104h-111v104h-73v-104h-111v104h-80v109h80v74h-80v110zM251 287v-74h73v74h-73z" />
    <glyph glyph-name="dollar.oldstyle" horiz-adv-x="512" 
d="M207 357c0 -18 33 -29 74 -42c75 -24 171 -55 171 -170c0 -77 -57 -133 -140 -148v-84h-102v83c-52 7 -98 26 -150 57l54 106c51 -26 103 -46 145 -46c29 0 55 12 55 31c0 29 -38 41 -83 54c-71 22 -155 50 -155 155c0 85 53 140 134 152v77h102v-81
c34 -7 78 -21 128 -45l-51 -111c-41 20 -97 39 -127 39c-28 0 -55 -6 -55 -27z" />
    <glyph glyph-name="cent.oldstyle" horiz-adv-x="554" 
d="M421 173l79 -95c-40 -41 -85 -70 -140 -80v-85h-102v85c-150 25 -198 155 -198 250c0 100 41 232 198 256v78h102v-79c60 -13 108 -49 149 -94l-78 -87c-32 35 -81 60 -121 60c-77 0 -115 -66 -115 -131c0 -82 56 -128 116 -128c31 0 73 14 110 50z" />
    <glyph glyph-name="g.alt" horiz-adv-x="614" 
d="M309 -8c-192 -4 -249 153 -249 258c0 107 58 258 244 258c44 0 95 -11 126 -41l12 33h92v-485c0 -86 -24 -245 -232 -245c-86 0 -158 39 -232 101l77 89c54 -46 104 -69 151 -69c106 0 100 101 100 115v9c-17 -10 -46 -22 -89 -23zM309 387c-101 0 -115 -103 -115 -137
c0 -40 20 -137 122 -137c29 0 59 10 82 31v200c-16 23 -45 43 -89 43z" />
    <glyph glyph-name="gcircumflex.alt" horiz-adv-x="614" 
d="M309 -8c-192 -4 -249 153 -249 258c0 107 58 258 244 258c44 0 95 -11 126 -41l12 33h92v-485c0 -86 -24 -245 -232 -245c-86 0 -158 39 -232 101l77 89c54 -46 104 -69 151 -69c106 0 100 101 100 115v9c-17 -10 -46 -22 -89 -23zM309 387c-101 0 -115 -103 -115 -137
c0 -40 20 -137 122 -137c29 0 59 10 82 31v200c-16 23 -45 43 -89 43zM146 654l161 125l161 -125l-52 -74l-109 67l-109 -67z" />
    <glyph glyph-name="gbreve.alt" horiz-adv-x="614" 
d="M309 -8c-192 -4 -249 153 -249 258c0 107 58 258 244 258c44 0 95 -11 126 -41l12 33h92v-485c0 -86 -24 -245 -232 -245c-86 0 -158 39 -232 101l77 89c54 -46 104 -69 151 -69c106 0 100 101 100 115v9c-17 -10 -46 -22 -89 -23zM309 387c-101 0 -115 -103 -115 -137
c0 -40 20 -137 122 -137c29 0 59 10 82 31v200c-16 23 -45 43 -89 43zM372 751l101 -30c-23 -90 -86 -129 -156 -129s-133 38 -155 129l99 29c9 -44 34 -54 56 -54c21 0 46 13 55 55z" />
    <glyph glyph-name="gdotaccent.alt" horiz-adv-x="614" 
d="M309 -8c-192 -4 -249 153 -249 258c0 107 58 258 244 258c44 0 95 -11 126 -41l12 33h92v-485c0 -86 -24 -245 -232 -245c-86 0 -158 39 -232 101l77 89c54 -46 104 -69 151 -69c106 0 100 101 100 115v9c-17 -10 -46 -22 -89 -23zM309 387c-101 0 -115 -103 -115 -137
c0 -40 20 -137 122 -137c29 0 59 10 82 31v200c-16 23 -45 43 -89 43zM231 658c0 43 33 77 77 77c43 0 76 -34 76 -77c0 -44 -33 -76 -76 -76c-44 0 -77 32 -77 76z" />
    <glyph glyph-name="gcommaaccent.alt" horiz-adv-x="614" 
d="M309 -8c-192 -4 -249 153 -249 258c0 107 58 258 244 258c44 0 95 -11 126 -41l12 33h92v-485c0 -86 -24 -245 -232 -245c-86 0 -158 39 -232 101l77 89c54 -46 104 -69 151 -69c106 0 100 101 100 115v9c-17 -10 -46 -22 -89 -23zM309 387c-101 0 -115 -103 -115 -137
c0 -40 20 -137 122 -137c29 0 59 10 82 31v200c-16 23 -45 43 -89 43zM315 838l58 -26c-15 -30 -31 -66 -38 -88c34 -11 49 -37 49 -70c0 -38 -30 -71 -70 -71c-56 0 -77 39 -77 77c0 53 47 131 78 178z" />
    <glyph glyph-name="acute" unicode="&#xb4;" horiz-adv-x="510" 
d="M141 661l161 125l65 -91l-174 -108z" />
    <glyph glyph-name="d" unicode="d" horiz-adv-x="614" 
d="M309 509c33 0 66 -6 90 -17v209h135v-701h-93l-11 35c-29 -26 -90 -44 -131 -44c-186 0 -239 152 -239 259c0 111 48 259 249 259zM309 113c41 0 77 21 90 39v212c-20 13 -59 24 -82 24c-109 0 -123 -89 -123 -138c0 -40 12 -137 115 -137z" />
    <glyph glyph-name="u" unicode="u" 
d="M370 156v344h135v-500h-92l-12 36c-38 -31 -83 -44 -126 -44c-190 0 -215 133 -215 250v258h138v-258c0 -54 8 -129 82 -129c42 0 74 21 90 43z" />
    <glyph glyph-name="quotedblbase" unicode="&#x201e;" horiz-adv-x="544" 
d="M150 -168l-70 34c22 37 48 100 56 128c-38 12 -54 39 -54 78c0 46 34 82 81 82c66 0 89 -46 89 -90c0 -66 -64 -184 -102 -232zM402 -168l-70 34c22 37 48 100 56 128c-38 12 -54 39 -54 78c0 46 34 82 81 82c66 0 89 -46 89 -90c0 -66 -64 -184 -102 -232z" />
    <glyph glyph-name="trademark" unicode="&#x2122;" horiz-adv-x="659" 
d="M109 491v190h-64v76h208v-76h-64v-190h-80zM439 488h-12l-58 108l-32 -105h-83l103 265h7l70 -123l66 123h8l106 -265h-81l-36 108z" />
    <glyph glyph-name="threequarters" unicode="&#xbe;" horiz-adv-x="633" 
d="M549 700l-349 -700h-102l350 700h101zM547 48v-47h-83v47h-132v66l147 215h68v-207h46v-74h-46zM464 183l-42 -61h42v61zM252 603c0 -20 -11 -49 -31 -66c23 -18 31 -42 31 -64c0 -35 -22 -104 -116 -104c-53 0 -90 25 -116 49l49 54c22 -21 48 -26 67 -26
c18 0 35 11 35 27c0 21 -17 31 -35 31h-55v67h55c18 0 35 11 35 32c0 17 -17 27 -35 27c-17 0 -48 -12 -67 -28l-47 54c24 24 62 51 114 51c94 0 116 -67 116 -104z" />
    <glyph glyph-name="ydieresis" unicode="&#xff;" horiz-adv-x="579" 
d="M204 40c-55 132 -143 317 -205 460h155l123 -301c31 81 81 206 119 301h152l-297 -699h-141v11zM98 667c0 43 33 77 77 77c43 0 76 -34 76 -77c0 -44 -33 -76 -76 -76c-44 0 -77 32 -77 76zM327 667c0 43 33 77 77 77c43 0 76 -34 76 -77c0 -44 -33 -76 -76 -76
c-44 0 -77 32 -77 76z" />
    <glyph glyph-name="zero.denom" horiz-adv-x="328" 
d="M164 331c104 0 134 -100 134 -169c0 -71 -30 -166 -134 -166c-103 0 -134 95 -134 166c0 69 31 169 134 169zM164 75c40 0 47 65 47 87c0 23 -7 89 -47 89s-47 -66 -47 -89c0 -22 7 -87 47 -87z" />
    <glyph glyph-name="one.denom" horiz-adv-x="228" 
d="M183 327v-327h-88v208l-41 -22l-34 56l119 85h44z" />
    <glyph glyph-name="two.denom" horiz-adv-x="305" 
d="M84 213l-54 52c41 50 83 68 126 68c70 0 109 -49 109 -104c0 -29 -17 -63 -40 -94l-43 -57h78v-78h-225v20l123 165c18 24 18 36 18 43c0 10 -9 23 -24 23c-19 0 -35 -8 -68 -38z" />
    <glyph glyph-name="three.denom" horiz-adv-x="282" 
d="M252 228c0 -20 -11 -49 -31 -66c23 -18 31 -42 31 -64c0 -35 -22 -104 -116 -104c-53 0 -90 25 -116 49l49 54c22 -21 48 -26 67 -26c18 0 35 11 35 27c0 21 -17 31 -35 31h-55v67h55c18 0 35 11 35 32c0 17 -17 27 -35 27c-17 0 -48 -12 -67 -28l-47 54
c24 24 62 51 114 51c94 0 116 -67 116 -104z" />
    <glyph glyph-name="four.denom" horiz-adv-x="301" 
d="M235 47v-47h-83v47h-132v66l147 215h68v-207h46v-74h-46zM152 182l-42 -61h42v61z" />
    <glyph glyph-name="five.denom" horiz-adv-x="305" 
d="M30 56l57 52c22 -29 52 -33 66 -33c23 0 36 20 36 35c0 19 -13 34 -37 34h-88v183h189v-73h-102v-39c104 0 124 -61 124 -105c0 -38 -26 -115 -123 -115c-49 0 -92 23 -122 61z" />
    <glyph glyph-name="six.denom" horiz-adv-x="300" 
d="M176 334l40 -52c-27 -18 -57 -42 -84 -72c6 4 20 6 31 6c96 0 107 -83 106 -109c-1 -34 -24 -114 -120 -114c-97 0 -119 78 -119 114c0 114 76 186 146 227zM149 74c22 0 35 19 35 36c0 18 -12 34 -35 34c-18 0 -34 -14 -34 -34c0 -17 12 -36 34 -36z" />
    <glyph glyph-name="seven.denom" horiz-adv-x="259" 
d="M20 248v79h221l2 -3l-127 -324h-89l101 248h-108z" />
    <glyph glyph-name="eight.denom" horiz-adv-x="288" 
d="M258 231c0 -18 -10 -52 -36 -68c31 -20 35 -57 35 -72c0 -35 -21 -97 -112 -97c-93 0 -115 60 -115 98c0 22 12 58 35 72c-23 11 -35 42 -35 66c0 32 22 100 115 100c91 0 113 -58 113 -99zM145 71c14 0 28 10 28 26s-14 26 -28 26c-15 0 -30 -10 -30 -26s15 -26 30 -26z
M145 201c14 0 28 10 28 26c0 17 -14 27 -28 27c-15 0 -30 -10 -30 -27c0 -16 15 -26 30 -26z" />
    <glyph glyph-name="nine.denom" horiz-adv-x="300" 
d="M124 -7l-40 52c27 18 57 42 84 72c-6 -4 -20 -6 -31 -6c-96 0 -107 83 -106 109c1 34 24 114 120 114c97 0 119 -78 119 -114c0 -114 -76 -186 -146 -227zM151 253c-22 0 -35 -19 -35 -36c0 -18 12 -34 35 -34c18 0 34 14 34 34c0 17 -12 36 -34 36z" />
    <glyph glyph-name="one.ftd" horiz-adv-x="503" 
d="M73 0v115h137v361l-98 -52l-52 86l247 171h40v-566h96v-115h-370z" />
    <glyph glyph-name="Ncaron" unicode="&#x147;" horiz-adv-x="772" 
d="M85 702l9 4l425 -403v397h142v-701l-9 -5l-425 407v-401h-142v702zM386 786l-161 125l52 74l109 -67l109 67l52 -74z" />
    <glyph glyph-name="ncaron" unicode="&#x148;" horiz-adv-x="582" 
d="M185 344v-344h-135v500h92l12 -36c38 31 83 44 126 44c190 0 215 -133 215 -250v-258h-138v258c0 54 -8 129 -82 129c-42 0 -74 -21 -90 -43zM291 586l-161 125l52 74l109 -67l109 67l52 -74z" />
    <glyph glyph-name="napostrophe" unicode="&#x149;" horiz-adv-x="722" 
d="M352 344v-344h-135v500h92l12 -36c38 31 83 44 126 44c190 0 215 -133 215 -250v-258h-138v258c0 54 -8 129 -82 129c-42 0 -74 -21 -90 -43zM79 486l-58 26c15 30 31 66 38 88c-34 11 -49 37 -49 70c0 38 30 71 70 71c56 0 77 -39 77 -77c0 -53 -47 -131 -78 -178z" />
    <glyph glyph-name="parenright" unicode=")" horiz-adv-x="320" 
d="M290 294c0 -161 -50 -334 -168 -501l-92 55c81 149 125 303 125 447c0 141 -44 291 -125 440l92 56c117 -168 168 -335 168 -497z" />
    <glyph glyph-name="semicolon" unicode=";" horiz-adv-x="332" 
d="M80 419c0 47 39 84 84 84c46 0 83 -37 83 -84c0 -46 -37 -83 -83 -83c-45 0 -84 37 -84 83zM150 -168l-70 34c22 37 48 100 56 128c-38 12 -54 39 -54 78c0 46 34 82 81 82c66 0 89 -46 89 -90c0 -66 -64 -184 -102 -232z" />
    <glyph glyph-name="greater" unicode="&#x3e;" horiz-adv-x="441" 
d="M30 174l189 120l-189 120l57 99l324 -195v-48l-324 -196z" />
    <glyph glyph-name="bracketright" unicode="]" horiz-adv-x="270" 
d="M240 780v-985h-210v107h80v771h-80v107h210z" />
    <glyph glyph-name="backslash" unicode="\" horiz-adv-x="411" 
d="M262 0l-232 700h118l233 -700h-119z" />
    <glyph glyph-name="p" unicode="p" horiz-adv-x="614" 
d="M305 -8c-33 0 -66 6 -90 17v-209h-135v701h93l11 -35c29 26 90 44 131 44c186 0 239 -152 239 -259c0 -111 -48 -259 -249 -259zM305 388c-41 0 -77 -21 -90 -39v-212c20 -13 59 -24 82 -24c109 0 123 89 123 138c0 40 -12 137 -115 137z" />
    <glyph glyph-name="q" unicode="q" horiz-adv-x="614" 
d="M309 -8c-201 0 -249 148 -249 259c0 107 53 259 239 259c41 0 102 -18 131 -44l11 35h93v-701h-135v209c-24 -11 -57 -17 -90 -17zM309 388c-103 0 -115 -97 -115 -137c0 -49 14 -138 123 -138c23 0 62 11 82 24v212c-13 18 -49 39 -90 39z" />
    <glyph glyph-name="braceright" unicode="}" horiz-adv-x="322" 
d="M30 777h41c5 0 161 -5 161 -178v-216c0 -30 18 -45 33 -47h27v-92h-27c-15 -3 -33 -19 -33 -48v-216c0 -174 -156 -179 -161 -179h-41v106h19c6 0 54 4 54 80v215c0 38 27 73 50 88c-24 13 -50 50 -50 86v215c0 85 -47 80 -53 80h-20v106z" />
    <glyph glyph-name="quotesinglbase" unicode="&#x201a;" horiz-adv-x="332" 
d="M150 -168l-70 34c22 37 48 100 56 128c-38 12 -54 39 -54 78c0 46 34 82 81 82c66 0 89 -46 89 -90c0 -66 -64 -184 -102 -232z" />
    <glyph glyph-name="daggerdbl" unicode="&#x2021;" horiz-adv-x="553" 
d="M342 39v-198h-132v198h-130v126h130v209h-130v126h130v200h132v-200h131v-126h-131v-209h131v-126h-131z" />
    <glyph glyph-name="oe" unicode="&#x153;" horiz-adv-x="925" 
d="M876 227h-313c8 -59 45 -110 110 -110c42 0 87 16 125 45l66 -91c-60 -50 -118 -77 -191 -77c-84 0 -144 33 -183 74c-39 -42 -96 -77 -181 -77c-192 0 -249 151 -249 259c0 105 57 260 249 260c84 0 143 -31 182 -74c39 42 98 71 182 71c133 0 207 -85 207 -215
c0 -21 -2 -43 -4 -65zM309 112c95 0 112 94 114 138s-19 139 -114 139c-100 0 -115 -105 -115 -139s15 -138 115 -138zM673 386c-56 0 -91 -33 -106 -79h179c-1 41 -15 78 -73 79z" />
    <glyph glyph-name="quoteleft" unicode="&#x2018;" horiz-adv-x="292" 
d="M162 721l70 -34c-22 -37 -48 -100 -56 -128c38 -12 54 -39 54 -78c0 -46 -34 -82 -81 -82c-66 0 -89 46 -89 90c0 66 64 184 102 232z" />
    <glyph glyph-name="quoteright" unicode="&#x2019;" horiz-adv-x="292" 
d="M130 399l-70 34c22 37 48 100 56 128c-38 12 -54 39 -54 78c0 46 34 82 81 82c66 0 89 -46 89 -90c0 -66 -64 -184 -102 -232z" />
    <glyph glyph-name="quotedblleft" unicode="&#x201c;" horiz-adv-x="523" 
d="M162 721l70 -34c-22 -37 -48 -100 -56 -128c38 -12 54 -39 54 -78c0 -46 -34 -82 -81 -82c-66 0 -89 46 -89 90c0 66 64 184 102 232zM393 721l70 -34c-22 -37 -48 -100 -56 -128c38 -12 54 -39 54 -78c0 -46 -34 -82 -81 -82c-66 0 -89 46 -89 90c0 66 64 184 102 232z
" />
    <glyph glyph-name="quotedblright" unicode="&#x201d;" horiz-adv-x="523" 
d="M361 399l-70 34c22 37 48 100 56 128c-38 12 -54 39 -54 78c0 46 34 82 81 82c66 0 89 -46 89 -90c0 -66 -64 -184 -102 -232zM130 399l-70 34c22 37 48 100 56 128c-38 12 -54 39 -54 78c0 46 34 82 81 82c66 0 89 -46 89 -90c0 -66 -64 -184 -102 -232z" />
    <glyph glyph-name="OE" unicode="&#x152;" horiz-adv-x="1047" 
d="M914 280h-262v-150h335v-130h-476c-31 -6 -65 -11 -103 -11c-267 0 -348 212 -348 362c0 146 81 361 348 361c38 0 72 -5 103 -12h476v-130h-335v-160h262v-130zM408 120c42 0 76 10 103 26v407c-27 16 -61 27 -103 27c-179 0 -204 -172 -204 -229s25 -231 204 -231z" />
    <glyph glyph-name="guilsinglright" unicode="&#x203a;" horiz-adv-x="320" 
d="M30 113l114 143l-114 141l73 64l187 -199v-13l-187 -200z" />
    <glyph glyph-name="guillemotleft" unicode="&#xab;" horiz-adv-x="553" 
d="M176 256l114 -143l-73 -64l-187 200v13l187 199l73 -64zM409 256l114 -143l-73 -64l-187 200v13l187 199l73 -64z" />
    <glyph glyph-name="guillemotright" unicode="&#xbb;" horiz-adv-x="553" 
d="M263 113l114 143l-114 141l73 64l187 -199v-13l-187 -200zM30 113l114 143l-114 141l73 64l187 -199v-13l-187 -200z" />
    <glyph glyph-name="exclamdown" unicode="&#xa1;" horiz-adv-x="352" 
d="M245 82v-281h-136v281l19 212h98zM100 433c0 42 32 77 76 77c43 0 76 -35 76 -77c0 -44 -33 -77 -76 -77c-44 0 -76 33 -76 77z" />
    <glyph glyph-name="cent" unicode="&#xa2;" horiz-adv-x="554" 
d="M421 173l79 -95c-40 -41 -85 -70 -140 -80v-85h-102v85c-150 25 -198 155 -198 250c0 100 41 232 198 256v78h102v-79c60 -13 108 -49 149 -94l-78 -87c-32 35 -81 60 -121 60c-77 0 -115 -66 -115 -131c0 -82 56 -128 116 -128c31 0 73 14 110 50z" />
    <glyph glyph-name="yen" unicode="&#xa5;" horiz-adv-x="676" 
d="M512 57h-104v-57h-141v57h-105v101h105v62h-105v103h97l-229 377h155l152 -254l153 254h156l-232 -377h98v-103h-104v-62h104v-101z" />
    <glyph glyph-name="questiondown" unicode="&#xbf;" horiz-adv-x="571" 
d="M216 209v71h127v-74c0 -59 -32 -96 -66 -135c-29 -33 -60 -68 -60 -114c0 -19 9 -57 65 -54c40 2 74 29 124 79l85 -81c-75 -82 -136 -121 -226 -121c-106 0 -185 62 -185 176c0 76 51 137 91 183c23 27 45 53 45 70zM358 429c0 -44 -34 -77 -78 -77c-43 0 -78 33 -78 77
s35 78 78 78c44 0 78 -30 78 -78z" />
    <glyph glyph-name="Agrave" unicode="&#xc0;" horiz-adv-x="724" 
d="M30 -1l323 709h18l323 -709h-157l-69 165h-212l-68 -165h-158zM362 418l-57 -137h114zM314 986l161 -125l-52 -74l-174 108z" />
    <glyph glyph-name="Aacute" unicode="&#xc1;" horiz-adv-x="724" 
d="M30 -1l323 709h18l323 -709h-157l-69 165h-212l-68 -165h-158zM362 418l-57 -137h114zM249 861l161 125l65 -91l-174 -108z" />
    <glyph glyph-name="Acircumflex" unicode="&#xc2;" horiz-adv-x="724" 
d="M30 -1l323 709h18l323 -709h-157l-69 165h-212l-68 -165h-158zM362 418l-57 -137h114zM201 860l161 125l161 -125l-52 -74l-109 67l-109 -67z" />
    <glyph glyph-name="Atilde" unicode="&#xc3;" horiz-adv-x="724" 
d="M30 -1l323 709h18l323 -709h-157l-69 165h-212l-68 -165h-158zM362 418l-57 -137h114zM457 948l82 -43c-37 -82 -90 -102 -133 -102c-44 0 -60 34 -94 34c-10 0 -32 -1 -50 -39l-78 36c26 87 86 107 129 107c48 0 68 -32 95 -32c7 0 26 -2 49 39z" />
    <glyph glyph-name="Aring" unicode="&#xc5;" horiz-adv-x="724" 
d="M30 -1l323 709h18l323 -709h-157l-69 165h-212l-68 -165h-158zM362 418l-57 -137h114zM260 888c0 56 46 102 102 102s101 -46 101 -102s-45 -101 -101 -101s-102 45 -102 101zM332 888c0 -15 14 -29 30 -29c15 0 29 14 29 29c0 16 -14 30 -29 30c-16 0 -30 -14 -30 -30z
" />
    <glyph glyph-name="AE" unicode="&#xc6;" horiz-adv-x="898" 
d="M765 280h-262v-150h335v-130h-476v164h-106l-68 -165h-158l319 701h489v-130h-335v-160h262v-130zM362 418l-57 -137h57v137z" />
    <glyph glyph-name="Egrave" unicode="&#xc8;" horiz-adv-x="636" 
d="M503 280h-262v-150h335v-130h-476v700h476v-130h-335v-160h262v-130zM270 986l161 -125l-52 -74l-174 108z" />
    <glyph glyph-name="Eacute" unicode="&#xc9;" horiz-adv-x="636" 
d="M503 280h-262v-150h335v-130h-476v700h476v-130h-335v-160h262v-130zM205 861l161 125l65 -91l-174 -108z" />
    <glyph glyph-name="Ecircumflex" unicode="&#xca;" horiz-adv-x="636" 
d="M503 280h-262v-150h335v-130h-476v700h476v-130h-335v-160h262v-130zM157 860l161 125l161 -125l-52 -74l-109 67l-109 -67z" />
    <glyph glyph-name="Ccedilla" unicode="&#xc7;" horiz-adv-x="741" 
d="M394 -86h-26l-12 13v67c-226 25 -296 217 -296 357c0 146 81 359 348 359c120 0 203 -52 273 -131l-93 -90c-38 47 -115 89 -180 89c-179 0 -204 -170 -204 -227s26 -226 205 -226c67 0 141 38 188 81l80 -97c-66 -66 -142 -109 -239 -116v-21c73 -2 96 -59 96 -91
c0 -75 -56 -109 -117 -109c-32 0 -79 11 -106 27l30 66c10 -5 42 -17 66 -17c19 0 36 16 37 33s-13 33 -50 33z" />
    <glyph glyph-name="Igrave" unicode="&#xcc;" horiz-adv-x="266" 
d="M204 700v-700h-142v700h142zM85 986l161 -125l-52 -74l-174 108z" />
    <glyph glyph-name="Iacute" unicode="&#xcd;" horiz-adv-x="266" 
d="M204 700v-700h-142v700h142zM20 861l161 125l65 -91l-174 -108z" />
    <glyph glyph-name="Icircumflex" unicode="&#xce;" horiz-adv-x="322" 
d="M232 700v-700h-142v700h142zM0 860l161 125l161 -125l-52 -74l-109 67l-109 -67z" />
    <glyph glyph-name="Idieresis" unicode="&#xcf;" horiz-adv-x="398" 
d="M270 700v-700h-142v700h142zM0 862c0 43 33 77 77 77c43 0 76 -34 76 -77c0 -44 -33 -76 -76 -76c-44 0 -77 32 -77 76zM245 862c0 43 33 77 77 77c43 0 76 -34 76 -77c0 -44 -33 -76 -76 -76c-44 0 -77 32 -77 76z" />
    <glyph glyph-name="Ntilde" unicode="&#xd1;" horiz-adv-x="776" 
d="M100 702l9 4l425 -403v397h142v-701l-9 -5l-425 407v-401h-142v702zM483 935l82 -43c-37 -82 -90 -102 -133 -102c-44 0 -60 34 -94 34c-10 0 -32 -1 -50 -39l-78 36c26 87 86 107 129 107c48 0 68 -32 95 -32c7 0 26 -2 49 39z" />
    <glyph glyph-name="Ograve" unicode="&#xd2;" horiz-adv-x="814" 
d="M408 712c265 0 346 -215 346 -361c0 -150 -81 -362 -346 -362c-267 0 -348 212 -348 362c0 146 81 361 348 361zM408 120c176 0 202 174 202 231s-26 229 -202 229c-179 0 -204 -172 -204 -229s25 -231 204 -231zM359 986l161 -125l-52 -74l-174 108z" />
    <glyph glyph-name="Oacute" unicode="&#xd3;" horiz-adv-x="814" 
d="M408 712c265 0 346 -215 346 -361c0 -150 -81 -362 -346 -362c-267 0 -348 212 -348 362c0 146 81 361 348 361zM408 120c176 0 202 174 202 231s-26 229 -202 229c-179 0 -204 -172 -204 -229s25 -231 204 -231zM294 861l161 125l65 -91l-174 -108z" />
    <glyph glyph-name="Ocircumflex" unicode="&#xd4;" horiz-adv-x="814" 
d="M408 712c265 0 346 -215 346 -361c0 -150 -81 -362 -346 -362c-267 0 -348 212 -348 362c0 146 81 361 348 361zM408 120c176 0 202 174 202 231s-26 229 -202 229c-179 0 -204 -172 -204 -229s25 -231 204 -231zM246 863l161 125l161 -125l-52 -74l-109 67l-109 -67z
" />
    <glyph glyph-name="Otilde" unicode="&#xd5;" horiz-adv-x="814" 
d="M408 712c265 0 346 -215 346 -361c0 -150 -81 -362 -346 -362c-267 0 -348 212 -348 362c0 146 81 361 348 361zM408 120c176 0 202 174 202 231s-26 229 -202 229c-179 0 -204 -172 -204 -229s25 -231 204 -231zM502 935l82 -43c-37 -82 -90 -102 -133 -102
c-44 0 -60 34 -94 34c-10 0 -32 -1 -50 -39l-78 36c26 87 86 107 129 107c48 0 68 -32 95 -32c7 0 26 -2 49 39z" />
    <glyph glyph-name="Odieresis" unicode="&#xd6;" horiz-adv-x="814" 
d="M408 712c265 0 346 -215 346 -361c0 -150 -81 -362 -346 -362c-267 0 -348 212 -348 362c0 146 81 361 348 361zM408 120c176 0 202 174 202 231s-26 229 -202 229c-179 0 -204 -172 -204 -229s25 -231 204 -231zM216 867c0 43 33 77 77 77c43 0 76 -34 76 -77
c0 -44 -33 -76 -76 -76c-44 0 -77 32 -77 76zM445 867c0 43 33 77 77 77c43 0 76 -34 76 -77c0 -44 -33 -76 -76 -76c-44 0 -77 32 -77 76z" />
    <glyph glyph-name="Eth" unicode="&#xd0;" horiz-adv-x="755" 
d="M29 410h71v290h249c266 0 346 -203 346 -349c0 -150 -80 -351 -346 -351h-249v295h-71v115zM240 130h109c177 0 203 164 203 221s-26 220 -203 220h-109v-161h136v-115h-136v-165z" />
    <glyph glyph-name="multiply" unicode="&#xd7;" horiz-adv-x="562" 
d="M381 21l-100 100l-101 -100l-80 80l101 100l-101 101l81 80l100 -100l101 100l80 -80l-101 -100l101 -101z" />
    <glyph glyph-name="Ugrave" unicode="&#xd9;" horiz-adv-x="736" 
d="M368 122c108 0 135 109 135 150v428h143v-428c0 -118 -72 -279 -278 -279s-278 161 -278 279v428h142v-428c0 -41 28 -150 136 -150zM320 986l161 -125l-52 -74l-174 108z" />
    <glyph glyph-name="Ucircumflex" unicode="&#xdb;" horiz-adv-x="736" 
d="M368 122c108 0 135 109 135 150v428h143v-428c0 -118 -72 -279 -278 -279s-278 161 -278 279v428h142v-428c0 -41 28 -150 136 -150zM207 863l161 125l161 -125l-52 -74l-109 67l-109 -67z" />
    <glyph glyph-name="Uacute" unicode="&#xda;" horiz-adv-x="736" 
d="M368 122c108 0 135 109 135 150v428h143v-428c0 -118 -72 -279 -278 -279s-278 161 -278 279v428h142v-428c0 -41 28 -150 136 -150zM255 861l161 125l65 -91l-174 -108z" />
    <glyph glyph-name="Udieresis" unicode="&#xdc;" horiz-adv-x="736" 
d="M368 122c108 0 135 109 135 150v428h143v-428c0 -118 -72 -279 -278 -279s-278 161 -278 279v428h142v-428c0 -41 28 -150 136 -150zM177 867c0 43 33 77 77 77c43 0 76 -34 76 -77c0 -44 -33 -76 -76 -76c-44 0 -77 32 -77 76zM406 867c0 43 33 77 77 77
c43 0 76 -34 76 -77c0 -44 -33 -76 -76 -76c-44 0 -77 32 -77 76z" />
    <glyph glyph-name="Yacute" unicode="&#xdd;" horiz-adv-x="665" 
d="M403 313v-313h-141v311l-238 389h156l152 -254l152 254h157zM219 861l161 125l65 -91l-174 -108z" />
    <glyph glyph-name="agrave" unicode="&#xe0;" horiz-adv-x="548" 
d="M258 508c9 0 17 1 25 1c171 0 185 -111 185 -213v-296h-94l-10 32c-31 -26 -74 -40 -119 -42c-156 -7 -185 98 -185 157c0 137 111 166 214 166c21 0 40 -3 58 -7c0 70 -23 82 -67 82c-23 0 -83 -13 -134 -35l-44 103c61 32 118 49 171 52zM332 147v54
c-15 4 -39 11 -62 11c-40 0 -81 -11 -81 -58c0 -30 28 -46 59 -46c37 0 72 21 84 39zM226 786l161 -125l-52 -74l-174 108z" />
    <glyph glyph-name="aacute" unicode="&#xe1;" horiz-adv-x="548" 
d="M258 508c9 0 17 1 25 1c171 0 185 -111 185 -213v-296h-94l-10 32c-31 -26 -74 -40 -119 -42c-156 -7 -185 98 -185 157c0 137 111 166 214 166c21 0 40 -3 58 -7c0 70 -23 82 -67 82c-23 0 -83 -13 -134 -35l-44 103c61 32 118 49 171 52zM332 147v54
c-15 4 -39 11 -62 11c-40 0 -81 -11 -81 -58c0 -30 28 -46 59 -46c37 0 72 21 84 39zM161 661l161 125l65 -91l-174 -108z" />
    <glyph glyph-name="acircumflex" unicode="&#xe2;" horiz-adv-x="548" 
d="M258 508c9 0 17 1 25 1c171 0 185 -111 185 -213v-296h-94l-10 32c-31 -26 -74 -40 -119 -42c-156 -7 -185 98 -185 157c0 137 111 166 214 166c21 0 40 -3 58 -7c0 70 -23 82 -67 82c-23 0 -83 -13 -134 -35l-44 103c61 32 118 49 171 52zM332 147v54
c-15 4 -39 11 -62 11c-40 0 -81 -11 -81 -58c0 -30 28 -46 59 -46c37 0 72 21 84 39zM113 660l161 125l161 -125l-52 -74l-109 67l-109 -67z" />
    <glyph glyph-name="atilde" unicode="&#xe3;" horiz-adv-x="548" 
d="M258 508c9 0 17 1 25 1c171 0 185 -111 185 -213v-296h-94l-10 32c-31 -26 -74 -40 -119 -42c-156 -7 -185 98 -185 157c0 137 111 166 214 166c21 0 40 -3 58 -7c0 70 -23 82 -67 82c-23 0 -83 -13 -134 -35l-44 103c61 32 118 49 171 52zM332 147v54
c-15 4 -39 11 -62 11c-40 0 -81 -11 -81 -58c0 -30 28 -46 59 -46c37 0 72 21 84 39zM369 748l82 -43c-37 -82 -90 -102 -133 -102c-44 0 -60 34 -94 34c-10 0 -32 -1 -50 -39l-78 36c26 87 86 107 129 107c48 0 68 -32 95 -32c7 0 26 -2 49 39z" />
    <glyph glyph-name="aring" unicode="&#xe5;" horiz-adv-x="548" 
d="M258 508c9 0 17 1 25 1c171 0 185 -111 185 -213v-296h-94l-10 32c-31 -26 -74 -40 -119 -42c-156 -7 -185 98 -185 157c0 137 111 166 214 166c21 0 40 -3 58 -7c0 70 -23 82 -67 82c-23 0 -83 -13 -134 -35l-44 103c61 32 118 49 171 52zM332 147v54
c-15 4 -39 11 -62 11c-40 0 -81 -11 -81 -58c0 -30 28 -46 59 -46c37 0 72 21 84 39zM172 688c0 56 46 102 102 102s101 -46 101 -102s-45 -101 -101 -101s-102 45 -102 101zM244 688c0 -15 14 -29 30 -29c15 0 29 14 29 29c0 16 -14 30 -29 30c-16 0 -30 -14 -30 -30z" />
    <glyph glyph-name="ae" unicode="&#xe6;" horiz-adv-x="816" 
d="M767 227h-313c8 -59 45 -110 110 -110c42 0 87 16 125 45l66 -91c-60 -50 -118 -77 -191 -77c-76 0 -131 23 -170 58c-56 -52 -119 -60 -149 -62c-156 -7 -185 98 -185 157c0 137 111 166 214 166c16 0 31 -2 45 -4c3 11 6 23 10 35c-8 36 -30 44 -64 44
c-23 0 -83 -13 -134 -35l-44 103c61 32 118 49 171 52c9 0 17 1 25 1c65 0 108 -16 135 -42c37 24 84 40 146 40c133 0 207 -85 207 -215c0 -21 -2 -43 -4 -65zM332 147c-7 19 -12 39 -15 58c-14 3 -31 7 -47 7c-40 0 -81 -11 -81 -58c0 -30 28 -46 59 -46c37 0 72 21 84 39
zM564 386c-56 0 -91 -33 -106 -79h179c-1 41 -15 78 -73 79z" />
    <glyph glyph-name="ccedilla" unicode="&#xe7;" horiz-adv-x="577" 
d="M290 -86h-26l-12 13v72c-145 27 -192 156 -192 249c0 111 50 260 250 260c84 0 147 -42 199 -99l-78 -87c-32 35 -81 60 -121 60c-77 0 -115 -66 -115 -131c0 -82 56 -128 116 -128c31 0 73 14 110 50l79 -95c-46 -47 -99 -78 -166 -84v-22c73 -2 96 -59 96 -91
c0 -75 -56 -109 -117 -109c-32 0 -79 11 -106 27l30 66c10 -5 42 -17 66 -17c19 0 36 16 37 33s-13 33 -50 33z" />
    <glyph glyph-name="egrave" unicode="&#xe8;" horiz-adv-x="547" 
d="M498 227h-313c8 -59 45 -110 110 -110c42 0 87 16 125 45l66 -91c-60 -50 -118 -77 -191 -77c-191 0 -250 149 -250 257c0 105 59 256 250 256c133 0 207 -85 207 -215c0 -21 -2 -43 -4 -65zM295 386c-56 0 -91 -33 -106 -79h179c-1 41 -15 78 -73 79zM225 786l161 -125
l-52 -74l-174 108z" />
    <glyph glyph-name="eacute" unicode="&#xe9;" horiz-adv-x="547" 
d="M498 227h-313c8 -59 45 -110 110 -110c42 0 87 16 125 45l66 -91c-60 -50 -118 -77 -191 -77c-191 0 -250 149 -250 257c0 105 59 256 250 256c133 0 207 -85 207 -215c0 -21 -2 -43 -4 -65zM295 386c-56 0 -91 -33 -106 -79h179c-1 41 -15 78 -73 79zM184 661l161 125
l65 -91l-174 -108z" />
    <glyph glyph-name="ecircumflex" unicode="&#xea;" horiz-adv-x="547" 
d="M498 227h-313c8 -59 45 -110 110 -110c42 0 87 16 125 45l66 -91c-60 -50 -118 -77 -191 -77c-191 0 -250 149 -250 257c0 105 59 256 250 256c133 0 207 -85 207 -215c0 -21 -2 -43 -4 -65zM295 386c-56 0 -91 -33 -106 -79h179c-1 41 -15 78 -73 79zM112 660l161 125
l161 -125l-52 -74l-109 67l-109 -67z" />
    <glyph glyph-name="ntilde" unicode="&#xf1;" 
d="M215 344v-344h-135v500h92l12 -36c38 31 83 44 126 44c190 0 215 -133 215 -250v-258h-138v258c0 54 -8 129 -82 129c-42 0 -74 -21 -90 -43zM388 735l82 -43c-37 -82 -90 -102 -133 -102c-44 0 -60 34 -94 34c-10 0 -32 -1 -50 -39l-78 36c26 87 86 107 129 107
c48 0 68 -32 95 -32c7 0 26 -2 49 39z" />
    <glyph glyph-name="ograve" unicode="&#xf2;" horiz-adv-x="618" 
d="M309 510c192 0 249 -155 249 -260c0 -108 -57 -259 -249 -259s-249 151 -249 259c0 105 57 260 249 260zM309 112c100 0 114 104 114 138s-14 139 -114 139s-115 -105 -115 -139s15 -138 115 -138zM261 786l161 -125l-52 -74l-174 108z" />
    <glyph glyph-name="oacute" unicode="&#xf3;" horiz-adv-x="618" 
d="M309 510c192 0 249 -155 249 -260c0 -108 -57 -259 -249 -259s-249 151 -249 259c0 105 57 260 249 260zM309 112c100 0 114 104 114 138s-14 139 -114 139s-115 -105 -115 -139s15 -138 115 -138zM196 661l161 125l65 -91l-174 -108z" />
    <glyph glyph-name="ocircumflex" unicode="&#xf4;" horiz-adv-x="618" 
d="M309 510c192 0 249 -155 249 -260c0 -108 -57 -259 -249 -259s-249 151 -249 259c0 105 57 260 249 260zM309 112c100 0 114 104 114 138s-14 139 -114 139s-115 -105 -115 -139s15 -138 115 -138zM148 663l161 125l161 -125l-52 -74l-109 67l-109 -67z" />
    <glyph glyph-name="otilde" unicode="&#xf5;" horiz-adv-x="618" 
d="M309 510c192 0 249 -155 249 -260c0 -108 -57 -259 -249 -259s-249 151 -249 259c0 105 57 260 249 260zM309 112c100 0 114 104 114 138s-14 139 -114 139s-115 -105 -115 -139s15 -138 115 -138zM404 735l82 -43c-37 -82 -90 -102 -133 -102c-44 0 -60 34 -94 34
c-10 0 -32 -1 -50 -39l-78 36c26 87 86 107 129 107c48 0 68 -32 95 -32c7 0 26 -2 49 39z" />
    <glyph glyph-name="adieresis" unicode="&#xe4;" horiz-adv-x="548" 
d="M87 456c60 31 125 53 196 53c171 0 185 -111 185 -213v-296h-94l-10 32c-31 -26 -74 -40 -119 -42c-156 -7 -185 98 -185 157c0 137 111 166 214 166c21 0 40 -3 58 -7c0 70 -23 82 -67 82c-23 0 -83 -13 -134 -35zM332 147v54c-15 4 -39 11 -62 11
c-40 0 -81 -11 -81 -58c0 -30 28 -46 59 -46c37 0 72 21 84 39zM83 667c0 43 33 77 77 77c43 0 76 -34 76 -77c0 -44 -33 -76 -76 -76c-44 0 -77 32 -77 76zM312 667c0 43 33 77 77 77c43 0 76 -34 76 -77c0 -44 -33 -76 -76 -76c-44 0 -77 32 -77 76z" />
    <glyph glyph-name="edieresis" unicode="&#xeb;" horiz-adv-x="547" 
d="M498 227h-313c8 -59 45 -110 110 -110c42 0 87 16 125 45l66 -91c-60 -50 -118 -77 -191 -77c-191 0 -250 149 -250 257c0 105 59 256 250 256c133 0 207 -85 207 -215c0 -21 -2 -43 -4 -65zM295 386c-56 0 -91 -33 -106 -79h179c-1 41 -15 78 -73 79zM83 667
c0 43 33 77 77 77c43 0 76 -34 76 -77c0 -44 -33 -76 -76 -76c-44 0 -77 32 -77 76zM312 667c0 43 33 77 77 77c43 0 76 -34 76 -77c0 -44 -33 -76 -76 -76c-44 0 -77 32 -77 76z" />
    <glyph glyph-name="odieresis" unicode="&#xf6;" horiz-adv-x="618" 
d="M309 510c192 0 249 -155 249 -260c0 -108 -57 -259 -249 -259s-249 151 -249 259c0 105 57 260 249 260zM309 112c100 0 114 104 114 138s-14 139 -114 139s-115 -105 -115 -139s15 -138 115 -138zM118 667c0 43 33 77 77 77c43 0 76 -34 76 -77c0 -44 -33 -76 -76 -76
c-44 0 -77 32 -77 76zM347 667c0 43 33 77 77 77c43 0 76 -34 76 -77c0 -44 -33 -76 -76 -76c-44 0 -77 32 -77 76z" />
    <glyph glyph-name="Edieresis" unicode="&#xcb;" horiz-adv-x="636" 
d="M503 280h-262v-150h335v-130h-476v700h476v-130h-335v-160h262v-130zM127 867c0 43 33 77 77 77c43 0 76 -34 76 -77c0 -44 -33 -76 -76 -76c-44 0 -77 32 -77 76zM356 867c0 43 33 77 77 77c43 0 76 -34 76 -77c0 -44 -33 -76 -76 -76c-44 0 -77 32 -77 76z" />
    <glyph glyph-name="Adieresis" unicode="&#xc4;" horiz-adv-x="724" 
d="M30 0l327 709h10l327 -709h-157l-69 165h-212l-68 -165h-158zM362 419l-57 -137h114zM171 867c0 43 33 77 77 77c43 0 76 -34 76 -77c0 -44 -33 -76 -76 -76c-44 0 -77 32 -77 76zM400 867c0 43 33 77 77 77c43 0 76 -34 76 -77c0 -44 -33 -76 -76 -76
c-44 0 -77 32 -77 76z" />
    <glyph glyph-name="ugrave" unicode="&#xf9;" 
d="M370 156v344h135v-500h-92l-12 36c-38 -31 -83 -44 -126 -44c-190 0 -215 133 -215 250v258h138v-258c0 -54 8 -129 82 -129c42 0 74 21 90 43zM244 786l161 -125l-52 -74l-174 108z" />
    <glyph glyph-name="uacute" unicode="&#xfa;" 
d="M370 156v344h135v-500h-92l-12 36c-38 -31 -83 -44 -126 -44c-190 0 -215 133 -215 250v258h138v-258c0 -54 8 -129 82 -129c42 0 74 21 90 43zM179 661l161 125l65 -91l-174 -108z" />
    <glyph glyph-name="ucircumflex" unicode="&#xfb;" 
d="M370 156v344h135v-500h-92l-12 36c-38 -31 -83 -44 -126 -44c-190 0 -215 133 -215 250v258h138v-258c0 -54 8 -129 82 -129c42 0 74 21 90 43zM131 663l161 125l161 -125l-52 -74l-109 67l-109 -67z" />
    <glyph glyph-name="udieresis" unicode="&#xfc;" 
d="M370 156v344h135v-500h-92l-12 36c-38 -31 -83 -44 -126 -44c-190 0 -215 133 -215 250v258h138v-258c0 -54 8 -129 82 -129c42 0 74 21 90 43zM101 667c0 43 33 77 77 77c43 0 76 -34 76 -77c0 -44 -33 -76 -76 -76c-44 0 -77 32 -77 76zM330 667c0 43 33 77 77 77
c43 0 76 -34 76 -77c0 -44 -33 -76 -76 -76c-44 0 -77 32 -77 76z" />
    <glyph glyph-name="yacute" unicode="&#xfd;" horiz-adv-x="598" 
d="M228 40c-55 132 -143 317 -205 460h155l123 -301c31 81 81 206 119 301h152l-297 -699h-141v11zM186 661l161 125l65 -91l-174 -108z" />
    <glyph glyph-name="igrave" unicode="&#xec;" horiz-adv-x="266" 
d="M201 500v-500h-136v500h136zM85 786l161 -125l-52 -74l-174 108z" />
    <glyph glyph-name="iacute" unicode="&#xed;" horiz-adv-x="266" 
d="M201 500v-500h-136v500h136zM20 661l161 125l65 -91l-174 -108z" />
    <glyph glyph-name="icircumflex" unicode="&#xee;" horiz-adv-x="322" 
d="M229 500v-500h-136v500h136zM0 663l161 125l161 -125l-52 -74l-109 67l-109 -67z" />
    <glyph glyph-name="idieresis" unicode="&#xef;" horiz-adv-x="382" 
d="M259 500v-500h-136v500h136zM0 667c0 43 33 77 77 77c43 0 76 -34 76 -77c0 -44 -33 -76 -76 -76c-44 0 -77 32 -77 76zM229 667c0 43 33 77 77 77c43 0 76 -34 76 -77c0 -44 -33 -76 -76 -76c-44 0 -77 32 -77 76z" />
    <glyph glyph-name="oslash" unicode="&#xf8;" horiz-adv-x="618" 
d="M133 -32l-78 65l49 58c-32 49 -44 109 -44 159c0 105 57 260 249 260c50 0 91 -11 124 -29l54 64l78 -65l-56 -66c36 -51 49 -114 49 -164c0 -108 -57 -259 -249 -259c-54 0 -97 11 -131 30zM309 112c100 0 114 104 114 138c0 11 -2 31 -8 52l-153 -181
c13 -6 29 -9 47 -9zM194 250c0 -10 1 -27 6 -45l149 177c-11 4 -25 7 -40 7c-100 0 -115 -105 -115 -139z" />
    <glyph glyph-name="zero.ftd" horiz-adv-x="686" 
d="M342 683c202 0 264 -205 264 -344c0 -143 -62 -345 -264 -345c-201 0 -262 202 -262 345c0 139 61 344 262 344zM342 115c111 0 127 170 127 224s-16 222 -127 222c-110 0 -127 -168 -127 -222s17 -224 127 -224z" />
    <glyph glyph-name="two.ftd" horiz-adv-x="588" 
d="M141 480l-81 86c75 82 155 118 227 118c119 0 211 -64 211 -196c0 -58 -36 -128 -83 -187l-141 -174h206v-127h-430v52l265 329c48 60 51 98 51 111c0 34 -18 71 -78 71c-43 0 -92 -30 -147 -83z" />
    <glyph glyph-name="three.ftd" horiz-adv-x="576" 
d="M496 487c0 -56 -26 -116 -71 -148c51 -30 71 -94 71 -145c0 -72 -41 -199 -222 -199c-103 0 -169 53 -214 95l77 91c36 -35 96 -68 137 -68c47 0 91 26 91 81c0 56 -44 87 -91 87h-99v118h99c47 0 91 32 91 88c0 55 -44 81 -91 81c-41 0 -101 -34 -137 -68l-77 91
c45 42 111 95 214 95c181 0 222 -127 222 -199z" />
    <glyph glyph-name="four.ftd" horiz-adv-x="615" 
d="M467 133l-1 -134h-139l1 134h-268v78l299 464h108v-418h88v-124h-88zM327 404l-91 -147h92z" />
    <glyph glyph-name="five.ftd" horiz-adv-x="607" 
d="M80 108l91 81c41 -52 83 -73 119 -73c67 0 104 52 104 104c0 51 -36 100 -105 100h-171v359h366v-123h-224v-119h29c192 0 238 -132 238 -222c0 -72 -48 -221 -238 -221c-93 0 -158 49 -209 114z" />
    <glyph glyph-name="six.ftd" horiz-adv-x="646" 
d="M386 688l65 -99c-70 -37 -131 -92 -177 -157c11 5 31 12 69 12c174 -9 213 -139 213 -228c0 -69 -43 -222 -232 -222c-190 0 -233 161 -233 231c-1 244 158 389 295 463zM324 118c65 0 100 51 100 103c0 51 -33 102 -100 102s-99 -49 -101 -102c0 -52 34 -103 101 -103z
" />
    <glyph glyph-name="seven.ftd" horiz-adv-x="525" 
d="M50 555v123h427l3 -8l-266 -670h-141l220 555h-243z" />
    <glyph glyph-name="eight.ftd" horiz-adv-x="606" 
d="M526 485c0 -37 -16 -105 -76 -146c62 -37 76 -97 76 -143c0 -72 -41 -202 -223 -202s-223 129 -223 201c0 54 24 117 72 145c-39 28 -72 72 -72 145c0 72 41 199 223 199s223 -127 223 -199zM303 112c48 0 91 31 91 83c0 56 -43 85 -91 85s-92 -29 -92 -85
c0 -55 44 -83 92 -83zM303 400c48 0 91 29 91 85c0 55 -43 81 -91 81s-92 -26 -92 -81c0 -56 44 -85 92 -85z" />
    <glyph glyph-name="nine.ftd" horiz-adv-x="646" 
d="M260 -9l-65 99c70 37 131 92 177 157c-11 -5 -31 -12 -69 -12c-174 9 -213 139 -213 228c0 69 43 222 232 222c190 0 233 -161 233 -231c1 -244 -158 -389 -295 -463zM322 561c-65 0 -100 -51 -100 -103c0 -51 33 -102 100 -102s99 49 101 102c0 52 -34 103 -101 103z
" />
    <glyph glyph-name="Amacron" unicode="&#x100;" horiz-adv-x="724" 
d="M30 0l323 709h18l323 -709h-157l-69 165h-212l-68 -165h-158zM362 419l-57 -137h114zM211 894h301v-97h-301v97z" />
    <glyph glyph-name="amacron" unicode="&#x101;" horiz-adv-x="548" 
d="M258 508c9 0 17 1 25 1c171 0 185 -111 185 -213v-296h-94l-10 32c-31 -26 -74 -40 -119 -42c-156 -7 -185 98 -185 157c0 137 111 166 214 166c21 0 40 -3 58 -7c0 70 -23 82 -67 82c-23 0 -83 -13 -134 -35l-44 103c61 32 118 49 171 52zM332 147v54
c-15 4 -39 11 -62 11c-40 0 -81 -11 -81 -58c0 -30 28 -46 59 -46c37 0 72 21 84 39zM123 694h301v-97h-301v97z" />
    <glyph glyph-name="Abreve" unicode="&#x102;" horiz-adv-x="724" 
d="M30 0l323 709h18l323 -709h-157l-69 165h-212l-68 -165h-158zM362 419l-57 -137h114zM416 949l101 -30c-23 -90 -86 -129 -156 -129s-133 38 -155 129l99 29c9 -44 34 -54 56 -54c21 0 46 13 55 55z" />
    <glyph glyph-name="abreve" unicode="&#x103;" horiz-adv-x="548" 
d="M258 508c9 0 17 1 25 1c171 0 185 -111 185 -213v-296h-94l-10 32c-31 -26 -74 -40 -119 -42c-156 -7 -185 98 -185 157c0 137 111 166 214 166c21 0 40 -3 58 -7c0 70 -23 82 -67 82c-23 0 -83 -13 -134 -35l-44 103c61 32 118 49 171 52zM332 147v54
c-15 4 -39 11 -62 11c-40 0 -81 -11 -81 -58c0 -30 28 -46 59 -46c37 0 72 21 84 39zM328 749l101 -30c-23 -90 -86 -129 -156 -129s-133 38 -155 129l99 29c9 -44 34 -54 56 -54c21 0 46 13 55 55z" />
    <glyph glyph-name="aogonek" unicode="&#x105;" horiz-adv-x="548" 
d="M258 508c9 0 17 1 25 1c171 0 185 -111 185 -213v-299c0 -24 -34 -56 -34 -94c0 -32 22 -40 51 -40c25 0 61 10 82 18v-81c-37 -16 -81 -23 -113 -23c-62 0 -116 33 -116 106c0 53 40 94 40 117l-14 32c-31 -26 -74 -40 -119 -42c-156 -7 -185 98 -185 157
c0 137 111 166 214 166c21 0 40 -3 58 -7c0 70 -23 82 -67 82c-23 0 -83 -13 -134 -35l-44 103c61 32 118 49 171 52zM332 147v54c-15 4 -39 11 -62 11c-40 0 -81 -11 -81 -58c0 -30 28 -46 59 -46c37 0 72 21 84 39z" />
    <glyph glyph-name="Cacute" unicode="&#x106;" horiz-adv-x="741" 
d="M281 861l161 125l65 -91l-174 -108zM681 579l-93 -90c-38 47 -115 89 -180 89c-179 0 -204 -170 -204 -227s26 -226 205 -226c67 0 141 38 188 81l80 -97c-72 -72 -157 -118 -269 -118c-267 0 -348 210 -348 360c0 146 81 359 348 359c120 0 203 -52 273 -131z" />
    <glyph glyph-name="cacute" unicode="&#x107;" horiz-adv-x="577" 
d="M421 173l79 -95c-51 -52 -110 -85 -188 -85c-192 0 -252 150 -252 255c0 111 50 260 250 260c84 0 147 -42 199 -99l-78 -87c-32 35 -81 60 -121 60c-77 0 -115 -66 -115 -131c0 -82 56 -128 116 -128c31 0 73 14 110 50zM175 661l161 125l65 -91l-174 -108z" />
    <glyph glyph-name="Ccircumflex" unicode="&#x108;" horiz-adv-x="741" 
d="M681 579l-93 -90c-38 47 -115 89 -180 89c-179 0 -204 -170 -204 -227s26 -226 205 -226c67 0 141 38 188 81l80 -97c-72 -72 -157 -118 -269 -118c-267 0 -348 210 -348 360c0 146 81 359 348 359c120 0 203 -52 273 -131zM233 863l161 125l161 -125l-52 -74l-109 67
l-109 -67z" />
    <glyph glyph-name="ccircumflex" unicode="&#x109;" horiz-adv-x="577" 
d="M500 78l-79 95c-37 -36 -79 -50 -110 -50c-60 0 -116 46 -116 128c0 65 38 131 115 131c40 0 89 -25 121 -60l78 87c-52 57 -115 99 -199 99c-200 0 -250 -149 -250 -260c0 -105 60 -255 252 -255c78 0 137 33 188 85zM144 663l161 125l161 -125l-52 -74l-109 67
l-109 -67z" />
    <glyph glyph-name="Cdotaccent" unicode="&#x10a;" horiz-adv-x="741" 
d="M681 579l-93 -90c-38 47 -115 89 -180 89c-179 0 -204 -170 -204 -227s26 -226 205 -226c67 0 141 38 188 81l80 -97c-72 -72 -157 -118 -269 -118c-267 0 -348 210 -348 360c0 146 81 359 348 359c120 0 203 -52 273 -131zM316 867c0 43 33 77 77 77c43 0 76 -34 76 -77
c0 -44 -33 -76 -76 -76c-44 0 -77 32 -77 76z" />
    <glyph glyph-name="cdotaccent" unicode="&#x10b;" horiz-adv-x="577" 
d="M500 78l-79 95c-37 -36 -79 -50 -110 -50c-60 0 -116 46 -116 128c0 65 38 131 115 131c40 0 89 -25 121 -60l78 87c-52 57 -115 99 -199 99c-200 0 -250 -149 -250 -260c0 -105 60 -255 252 -255c78 0 137 33 188 85zM232 667c0 43 33 77 77 77c43 0 76 -34 76 -77
c0 -44 -33 -76 -76 -76c-44 0 -77 32 -77 76z" />
    <glyph glyph-name="Ccaron" unicode="&#x10c;" horiz-adv-x="741" 
d="M681 579l-93 -90c-38 47 -115 89 -180 89c-179 0 -204 -170 -204 -227s26 -226 205 -226c67 0 141 38 188 81l80 -97c-72 -72 -157 -118 -269 -118c-267 0 -348 210 -348 360c0 146 81 359 348 359c120 0 203 -52 273 -131zM406 786l-161 125l52 74l109 -67l109 67
l52 -74z" />
    <glyph glyph-name="ccaron" unicode="&#x10d;" horiz-adv-x="577" 
d="M421 173l79 -95c-51 -52 -110 -85 -188 -85c-192 0 -252 150 -252 255c0 111 50 260 250 260c84 0 147 -42 199 -99l-78 -87c-32 35 -81 60 -121 60c-77 0 -115 -66 -115 -131c0 -82 56 -128 116 -128c31 0 73 14 110 50zM308 586l-161 125l52 74l109 -67l109 67l52 -74z
" />
    <glyph glyph-name="Dcaron" unicode="&#x10e;" horiz-adv-x="755" 
d="M349 0h-249v700h249c266 0 346 -203 346 -349c0 -150 -80 -351 -346 -351zM240 130h109c177 0 203 164 203 221s-26 220 -203 220h-109v-441zM290 786l-161 125l52 74l109 -67l109 67l52 -74z" />
    <glyph glyph-name="dcaron" unicode="&#x10f;" horiz-adv-x="802" 
d="M309 509c-201 0 -249 -148 -249 -259c0 -107 53 -259 239 -259c41 0 102 18 131 44l11 -35h93v701h-135v-209c-24 11 -57 17 -90 17zM309 113c-103 0 -115 97 -115 137c0 49 14 138 123 138c23 0 62 -11 82 -24v-212c-13 -18 -49 -39 -90 -39zM695 388l-70 34
c22 37 48 100 56 128c-38 12 -54 39 -54 78c0 46 34 82 81 82c66 0 89 -46 89 -90c0 -66 -64 -184 -102 -232z" />
    <glyph glyph-name="Dcroat" unicode="&#x110;" horiz-adv-x="755" 
d="M349 0h-249v700h249c266 0 346 -203 346 -349c0 -150 -80 -351 -346 -351zM240 130h109c177 0 203 164 203 221s-26 220 -203 220h-109v-441zM128 894h301v-97h-301v97z" />
    <glyph glyph-name="dcroat" unicode="&#x111;" horiz-adv-x="614" 
d="M534 663h59v-76h-59v-587h-93l-11 35c-29 -26 -90 -44 -131 -44c-186 0 -239 152 -239 259c0 111 48 259 249 259c33 0 66 -6 90 -17v95h-76v76h76v37h135v-37zM309 113c41 0 77 21 90 39v212c-20 13 -59 24 -82 24c-109 0 -123 -89 -123 -138c0 -40 12 -137 115 -137z
" />
    <glyph glyph-name="Emacron" unicode="&#x112;" horiz-adv-x="636" 
d="M503 280h-262v-150h335v-130h-476v700h476v-130h-335v-160h262v-130zM167 894h301v-97h-301v97z" />
    <glyph glyph-name="emacron" unicode="&#x113;" horiz-adv-x="547" 
d="M498 227h-313c8 -59 45 -110 110 -110c42 0 87 16 125 45l66 -91c-60 -50 -118 -77 -191 -77c-191 0 -250 149 -250 257c0 105 59 256 250 256c133 0 207 -85 207 -215c0 -21 -2 -43 -4 -65zM295 386c-56 0 -91 -33 -106 -79h179c-1 41 -15 78 -73 79zM141 694h301v-97
h-301v97z" />
    <glyph glyph-name="Ebreve" unicode="&#x114;" horiz-adv-x="636" 
d="M503 280h-262v-150h335v-130h-476v700h476v-130h-335v-160h262v-130zM392 949l101 -30c-23 -90 -86 -129 -156 -129s-133 38 -155 129l99 29c9 -44 34 -54 56 -54c21 0 46 13 55 55z" />
    <glyph glyph-name="ebreve" unicode="&#x115;" horiz-adv-x="547" 
d="M498 227h-313c8 -59 45 -110 110 -110c42 0 87 16 125 45l66 -91c-60 -50 -118 -77 -191 -77c-191 0 -250 149 -250 257c0 105 59 256 250 256c133 0 207 -85 207 -215c0 -21 -2 -43 -4 -65zM295 386c-56 0 -91 -33 -106 -79h179c-1 41 -15 78 -73 79zM345 749l101 -30
c-23 -90 -86 -129 -156 -129s-133 38 -155 129l99 29c9 -44 34 -54 56 -54c21 0 46 13 55 55z" />
    <glyph glyph-name="Edotaccent" unicode="&#x116;" horiz-adv-x="636" 
d="M503 280h-262v-150h335v-130h-476v700h476v-130h-335v-160h262v-130zM257 867c0 43 33 77 77 77c43 0 76 -34 76 -77c0 -44 -33 -76 -76 -76c-44 0 -77 32 -77 76z" />
    <glyph glyph-name="edotaccent" unicode="&#x117;" horiz-adv-x="547" 
d="M498 227h-313c8 -59 45 -110 110 -110c42 0 87 16 125 45l66 -91c-60 -50 -118 -77 -191 -77c-191 0 -250 149 -250 257c0 105 59 256 250 256c133 0 207 -85 207 -215c0 -21 -2 -43 -4 -65zM295 386c-56 0 -91 -33 -106 -79h179c-1 41 -15 78 -73 79zM211 667
c0 43 33 77 77 77c43 0 76 -34 76 -77c0 -44 -33 -76 -76 -76c-44 0 -77 32 -77 76z" />
    <glyph glyph-name="Eogonek" unicode="&#x118;" horiz-adv-x="636" 
d="M503 280h-262v-150h335v-133c0 -24 -34 -56 -34 -94c0 -32 22 -40 51 -40c25 0 61 10 82 18v-81c-37 -16 -81 -23 -113 -23c-62 0 -116 33 -116 106c0 53 42 94 42 117h-388v700h476v-130h-335v-160h262v-130z" />
    <glyph glyph-name="eogonek" unicode="&#x119;" horiz-adv-x="547" 
d="M498 227h-313c8 -59 45 -110 110 -110c42 0 87 16 125 45l66 -91c-23 -19 -46 -36 -69 -48v-26c0 -24 -34 -56 -34 -94c0 -32 22 -40 51 -40c25 0 61 10 82 18v-81c-37 -16 -81 -23 -113 -23c-62 0 -116 33 -116 106c0 50 37 90 41 113c-11 -1 -22 -2 -33 -2
c-191 0 -250 149 -250 257c0 105 59 256 250 256c133 0 207 -85 207 -215c0 -21 -2 -43 -4 -65zM295 386c-56 0 -91 -33 -106 -79h179c-1 41 -15 78 -73 79z" />
    <glyph glyph-name="Ecaron" unicode="&#x11a;" horiz-adv-x="636" 
d="M503 280h-262v-150h335v-130h-476v700h476v-130h-335v-160h262v-130zM318 786l-161 125l52 74l109 -67l109 67l52 -74z" />
    <glyph glyph-name="ecaron" unicode="&#x11b;" horiz-adv-x="547" 
d="M498 227h-313c8 -59 45 -110 110 -110c42 0 87 16 125 45l66 -91c-60 -50 -118 -77 -191 -77c-191 0 -250 149 -250 257c0 105 59 256 250 256c133 0 207 -85 207 -215c0 -21 -2 -43 -4 -65zM295 386c-56 0 -91 -33 -106 -79h179c-1 41 -15 78 -73 79zM289 586l-161 125
l52 74l109 -67l109 67l52 -74z" />
    <glyph glyph-name="Gcircumflex" unicode="&#x11c;" horiz-adv-x="727" 
d="M523 245h-138v128h280v-279c-66 -66 -147 -103 -257 -103c-267 0 -348 210 -348 360c0 146 81 359 348 359c113 0 193 -43 259 -114l-87 -94c-39 41 -112 76 -172 76c-179 0 -204 -168 -204 -225s25 -233 204 -233c39 0 90 14 115 36v89zM228 863l161 125l161 -125
l-52 -74l-109 67l-109 -67z" />
    <glyph glyph-name="gcircumflex" unicode="&#x11d;" 
d="M60 -66c1 31 17 76 53 100c-24 19 -41 46 -41 93c0 33 21 69 52 84c-23 25 -35 59 -35 105c0 85 48 196 201 196c40 0 68 -5 95 -20l71 67l79 -79l-70 -75c20 -29 28 -68 28 -91c0 -82 -51 -194 -203 -194c-29 0 -53 3 -76 12c-12 -1 -23 -9 -23 -18c0 -23 10 -37 54 -35
c222 10 273 -58 273 -146c0 -28 -18 -156 -222 -156c-185 0 -236 91 -236 157zM290 242c55 0 62 56 62 74s-7 75 -62 75c-54 0 -63 -53 -63 -75c0 -18 6 -74 63 -74zM290 -109c95 0 100 38 100 40c0 31 -62 37 -100 37c-87 0 -102 -18 -102 -35c0 -9 15 -40 102 -42z
M131 663l161 125l161 -125l-52 -74l-109 67l-109 -67z" />
    <glyph glyph-name="Gbreve" unicode="&#x11e;" horiz-adv-x="727" 
d="M523 245h-138v128h280v-279c-66 -66 -147 -103 -257 -103c-267 0 -348 210 -348 360c0 146 81 359 348 359c113 0 193 -43 259 -114l-87 -94c-39 41 -112 76 -172 76c-179 0 -204 -168 -204 -225s25 -233 204 -233c39 0 90 14 115 36v89zM442 949l101 -30
c-23 -90 -86 -129 -156 -129s-133 38 -155 129l99 29c9 -44 34 -54 56 -54c21 0 46 13 55 55z" />
    <glyph glyph-name="gbreve" unicode="&#x11f;" 
d="M60 -66c1 31 17 76 53 100c-24 19 -41 46 -41 93c0 33 21 69 52 84c-23 25 -35 59 -35 105c0 85 48 196 201 196c40 0 68 -5 95 -20l71 67l79 -79l-70 -75c20 -29 28 -68 28 -91c0 -82 -51 -194 -203 -194c-29 0 -53 3 -76 12c-12 -1 -23 -9 -23 -18c0 -23 10 -37 54 -35
c222 10 273 -58 273 -146c0 -28 -18 -156 -222 -156c-185 0 -236 91 -236 157zM290 242c55 0 62 56 62 74s-7 75 -62 75c-54 0 -63 -53 -63 -75c0 -18 6 -74 63 -74zM290 -109c95 0 100 38 100 40c0 31 -62 37 -100 37c-87 0 -102 -18 -102 -35c0 -9 15 -40 102 -42z
M347 749l101 -30c-23 -90 -86 -129 -156 -129s-133 38 -155 129l99 29c9 -44 34 -54 56 -54c21 0 46 13 55 55z" />
    <glyph glyph-name="Gdotaccent" unicode="&#x120;" horiz-adv-x="727" 
d="M523 245h-138v128h280v-279c-66 -66 -147 -103 -257 -103c-267 0 -348 210 -348 360c0 146 81 359 348 359c113 0 193 -43 259 -114l-87 -94c-39 41 -112 76 -172 76c-179 0 -204 -168 -204 -225s25 -233 204 -233c39 0 90 14 115 36v89zM316 867c0 43 33 77 77 77
c43 0 76 -34 76 -77c0 -44 -33 -76 -76 -76c-44 0 -77 32 -77 76z" />
    <glyph glyph-name="gdotaccent" unicode="&#x121;" 
d="M60 -66c1 31 17 76 53 100c-24 19 -41 46 -41 93c0 33 21 69 52 84c-23 25 -35 59 -35 105c0 85 48 196 201 196c40 0 68 -5 95 -20l71 67l79 -79l-70 -75c20 -29 28 -68 28 -91c0 -82 -51 -194 -203 -194c-29 0 -53 3 -76 12c-12 -1 -23 -9 -23 -18c0 -23 10 -37 54 -35
c222 10 273 -58 273 -146c0 -28 -18 -156 -222 -156c-185 0 -236 91 -236 157zM290 242c55 0 62 56 62 74s-7 75 -62 75c-54 0 -63 -53 -63 -75c0 -18 6 -74 63 -74zM290 -109c95 0 100 38 100 40c0 31 -62 37 -100 37c-87 0 -102 -18 -102 -35c0 -9 15 -40 102 -42z
M216 667c0 43 33 77 77 77c43 0 76 -34 76 -77c0 -44 -33 -76 -76 -76c-44 0 -77 32 -77 76z" />
    <glyph glyph-name="Gcommaaccent" unicode="&#x122;" horiz-adv-x="727" 
d="M523 245h-138v128h280v-279c-66 -66 -147 -103 -257 -103c-267 0 -348 210 -348 360c0 146 81 359 348 359c113 0 193 -43 259 -114l-87 -94c-39 41 -112 76 -172 76c-179 0 -204 -168 -204 -225s25 -233 204 -233c39 0 90 14 115 36v89zM407 -342l-58 26
c15 30 31 66 38 88c-34 11 -49 37 -49 70c0 38 30 71 70 71c56 0 77 -39 77 -77c0 -53 -47 -131 -78 -178z" />
    <glyph glyph-name="gcommaaccent" unicode="&#x123;" 
d="M60 -66c1 31 17 76 53 100c-24 19 -41 46 -41 93c0 33 21 69 52 84c-23 25 -35 59 -35 105c0 85 48 196 201 196c40 0 68 -5 95 -20l71 67l79 -79l-70 -75c20 -29 28 -68 28 -91c0 -82 -51 -194 -203 -194c-29 0 -53 3 -76 12c-12 -1 -23 -9 -23 -18c0 -23 10 -37 54 -35
c222 10 273 -58 273 -146c0 -28 -18 -156 -222 -156c-185 0 -236 91 -236 157zM290 242c55 0 62 56 62 74s-7 75 -62 75c-54 0 -63 -53 -63 -75c0 -18 6 -74 63 -74zM290 -109c95 0 100 38 100 40c0 31 -62 37 -100 37c-87 0 -102 -18 -102 -35c0 -9 15 -40 102 -42z
M293 843l58 -26c-15 -30 -31 -66 -38 -88c34 -11 49 -37 49 -70c0 -38 -30 -71 -70 -71c-56 0 -77 39 -77 77c0 53 47 131 78 178z" />
    <glyph glyph-name="Hcircumflex" unicode="&#x124;" horiz-adv-x="775" 
d="M242 280v-280h-142v700h142v-290h292v290h141v-700h-141v280h-292zM226 863l161 125l161 -125l-52 -74l-109 67l-109 -67z" />
    <glyph glyph-name="hcircumflex" unicode="&#x125;" horiz-adv-x="584" 
d="M215 0h-135v700h135v-218c30 18 65 26 96 26c192 0 213 -131 213 -250v-258h-135v258c0 62 -9 130 -95 128c-35 -1 -66 -20 -79 -38v-348zM-13 865l161 125l161 -125l-52 -74l-109 67l-109 -67z" />
    <glyph glyph-name="Aogonek" unicode="&#x104;" horiz-adv-x="724" 
d="M30 0l323 709h18l323 -709h-69v-3c0 -24 -34 -56 -34 -94c0 -32 22 -40 51 -40c25 0 61 10 82 18v-81c-37 -16 -81 -23 -113 -23c-62 0 -116 33 -116 106c0 53 42 94 42 117l-69 165h-212l-68 -165h-158zM362 419l-57 -137h114z" />
    <glyph glyph-name="hbar" unicode="&#x127;" horiz-adv-x="584" 
d="M27 648h53v52h135v-52h113v-73h-113v-93c30 18 65 26 96 26c192 0 213 -131 213 -250v-258h-135v258c0 62 -9 130 -95 128c-35 -1 -66 -20 -79 -38v-348h-135v575h-53v73z" />
    <glyph glyph-name="Itilde" unicode="&#x128;" horiz-adv-x="355" 
d="M248 700v-700h-142v700h142zM273 935l82 -43c-37 -82 -90 -102 -133 -102c-44 0 -60 34 -94 34c-10 0 -32 -1 -50 -39l-78 36c26 87 86 107 129 107c48 0 68 -32 95 -32c7 0 26 -2 49 39z" />
    <glyph glyph-name="itilde" unicode="&#x129;" horiz-adv-x="355" 
d="M245 500v-500h-136v500h136zM273 735l82 -43c-37 -82 -90 -102 -133 -102c-44 0 -60 34 -94 34c-10 0 -32 -1 -50 -39l-78 36c26 87 86 107 129 107c48 0 68 -32 95 -32c7 0 26 -2 49 39z" />
    <glyph glyph-name="Imacron" unicode="&#x12a;" horiz-adv-x="301" 
d="M221 700v-700h-142v700h142zM0 894h301v-97h-301v97z" />
    <glyph glyph-name="imacron" unicode="&#x12b;" horiz-adv-x="301" 
d="M218 500v-500h-136v500h136zM0 694h301v-97h-301v97z" />
    <glyph glyph-name="Ibreve" unicode="&#x12c;" horiz-adv-x="311" 
d="M226 700v-700h-142v700h142zM210 949l101 -30c-23 -90 -86 -129 -156 -129s-133 38 -155 129l99 29c9 -44 34 -54 56 -54c21 0 46 13 55 55z" />
    <glyph glyph-name="ibreve" unicode="&#x12d;" horiz-adv-x="311" 
d="M223 500v-500h-136v500h136zM210 749l101 -30c-23 -90 -86 -129 -156 -129s-133 38 -155 129l99 29c9 -44 34 -54 56 -54c21 0 46 13 55 55z" />
    <glyph glyph-name="Idotaccent" unicode="&#x130;" horiz-adv-x="333" 
d="M237 700v-700h-142v700h142zM90 867c0 43 33 77 77 77c43 0 76 -34 76 -77c0 -44 -33 -76 -76 -76c-44 0 -77 32 -77 76z" />
    <glyph glyph-name="dotlessi" unicode="&#x131;" horiz-adv-x="313" 
d="M224 500v-500h-136v500h136z" />
    <glyph glyph-name="IJ" unicode="&#x132;" horiz-adv-x="926" 
d="M242 700v-700h-142v700h142zM315 206l126 46c21 -66 56 -126 129 -124c108 3 113 107 113 145v427h143v-427c0 -115 -48 -279 -256 -279c-158 0 -221 97 -255 212z" />
    <glyph glyph-name="ij" unicode="&#x133;" horiz-adv-x="606" 
d="M224 500v-500h-136v500h136zM80 663c0 43 33 77 77 77c43 0 76 -34 76 -77c0 -44 -33 -76 -76 -76c-44 0 -77 32 -77 76zM240 -57c28 -16 59 -28 84 -28c32 0 56 19 56 75v510h137v-502v-11c0 -42 -9 -190 -177 -190c-67 0 -133 35 -157 59zM373 664c0 43 32 77 76 77
c43 0 77 -34 77 -77c0 -45 -34 -76 -77 -76c-44 0 -76 31 -76 76z" />
    <glyph glyph-name="Jcircumflex" unicode="&#x134;" horiz-adv-x="631" 
d="M20 206l126 46c21 -66 56 -126 129 -124c108 3 113 107 113 145v427h143v-427c0 -115 -48 -279 -256 -279c-158 0 -221 97 -255 212zM300 863l161 125l161 -125l-52 -74l-109 67l-109 -67z" />
    <glyph glyph-name="jcircumflex" unicode="&#x135;" horiz-adv-x="293" 
d="M-73 -57c28 -16 59 -28 84 -28c32 0 56 19 56 75v510h137v-502v-11c0 -42 -9 -190 -177 -190c-67 0 -133 35 -157 59zM-14 663l161 125l161 -125l-52 -74l-109 67l-109 -67z" />
    <glyph glyph-name="Kcommaaccent" unicode="&#x136;" horiz-adv-x="710" 
d="M242 0h-142v700h142v-280l247 280h154l3 -9l-292 -330l316 -352l-4 -9h-158l-266 295v-295zM350 -342l-58 26c15 30 31 66 38 88c-34 11 -49 37 -49 70c0 38 30 71 70 71c56 0 77 -39 77 -77c0 -53 -47 -131 -78 -178z" />
    <glyph glyph-name="kcommaaccent" unicode="&#x137;" horiz-adv-x="601" 
d="M420 0l-205 224v-224h-135v700h135v-415l191 215h144l4 -10l-207 -230l224 -251l-4 -9h-147zM296 -342l-58 26c15 30 31 66 38 88c-34 11 -49 37 -49 70c0 38 30 71 70 71c56 0 77 -39 77 -77c0 -53 -47 -131 -78 -178z" />
    <glyph glyph-name="Lacute" unicode="&#x139;" horiz-adv-x="564" 
d="M242 700v-570h262v-130h-404v700h142zM107 861l161 125l65 -91l-174 -108z" />
    <glyph glyph-name="lacute" unicode="&#x13a;" horiz-adv-x="266" 
d="M201 691v-691h-137v691h137zM20 860l161 125l65 -91l-174 -108z" />
    <glyph glyph-name="Lcommaaccent" unicode="&#x13b;" horiz-adv-x="564" 
d="M242 700v-570h262v-130h-404v700h142zM277 -342l-58 26c15 30 31 66 38 88c-34 11 -49 37 -49 70c0 38 30 71 70 71c56 0 77 -39 77 -77c0 -53 -47 -131 -78 -178z" />
    <glyph glyph-name="lcommaaccent" unicode="&#x13c;" horiz-adv-x="297" 
d="M217 700v-700h-137v700h137zM144 -342l-58 26c15 30 31 66 38 88c-34 11 -49 37 -49 70c0 38 30 71 70 71c56 0 77 -39 77 -77c0 -53 -47 -131 -78 -178z" />
    <glyph glyph-name="Lcaron" unicode="&#x13d;" horiz-adv-x="564" 
d="M242 700v-570h262v-130h-404v700h142zM409 392l-70 34c22 37 48 100 56 128c-38 12 -54 39 -54 78c0 46 34 82 81 82c66 0 89 -46 89 -90c0 -66 -64 -184 -102 -232z" />
    <glyph glyph-name="lcaron" unicode="&#x13e;" horiz-adv-x="500" 
d="M217 702v-702h-137v702h137zM394 390l-70 34c22 37 48 100 56 128c-38 12 -54 39 -54 78c0 46 34 82 81 82c66 0 89 -46 89 -90c0 -66 -64 -184 -102 -232z" />
    <glyph glyph-name="Ldot" unicode="&#x13f;" horiz-adv-x="564" 
d="M242 700v-570h262v-130h-404v700h142zM322 368c0 -46 34 -83 81 -83c46 0 83 37 83 83c0 47 -37 81 -83 81c-47 0 -81 -34 -81 -81z" />
    <glyph glyph-name="ldot" unicode="&#x140;" horiz-adv-x="486" 
d="M217 701v-701h-137v701h137zM308 360c0 -46 34 -83 81 -83c46 0 83 37 83 83c0 47 -37 81 -83 81c-47 0 -81 -34 -81 -81z" />
    <glyph glyph-name="Utilde" unicode="&#x168;" horiz-adv-x="736" 
d="M368 122c108 0 135 109 135 150v428h143v-428c0 -118 -72 -279 -278 -279s-278 161 -278 279v428h142v-428c0 -41 28 -150 136 -150zM463 935l82 -43c-37 -82 -90 -102 -133 -102c-44 0 -60 34 -94 34c-10 0 -32 -1 -50 -39l-78 36c26 87 86 107 129 107
c48 0 68 -32 95 -32c7 0 26 -2 49 39z" />
    <glyph glyph-name="utilde" unicode="&#x169;" 
d="M370 156v344h135v-500h-92l-12 36c-38 -31 -83 -44 -126 -44c-190 0 -215 133 -215 250v258h138v-258c0 -54 8 -129 82 -129c42 0 74 21 90 43zM388 735l82 -43c-37 -82 -90 -102 -133 -102c-44 0 -60 34 -94 34c-10 0 -32 -1 -50 -39l-78 36c26 87 86 107 129 107
c48 0 68 -32 95 -32c7 0 26 -2 49 39z" />
    <glyph glyph-name="Umacron" unicode="&#x16a;" horiz-adv-x="736" 
d="M368 122c108 0 135 109 135 150v428h143v-428c0 -118 -72 -279 -278 -279s-278 161 -278 279v428h142v-428c0 -41 28 -150 136 -150zM217 894h301v-97h-301v97z" />
    <glyph glyph-name="umacron" unicode="&#x16b;" 
d="M370 156v344h135v-500h-92l-12 36c-38 -31 -83 -44 -126 -44c-190 0 -215 133 -215 250v258h138v-258c0 -54 8 -129 82 -129c42 0 74 21 90 43zM142 694h301v-97h-301v97z" />
    <glyph glyph-name="Ubreve" unicode="&#x16c;" horiz-adv-x="736" 
d="M368 122c108 0 135 109 135 150v428h143v-428c0 -118 -72 -279 -278 -279s-278 161 -278 279v428h142v-428c0 -41 28 -150 136 -150zM422 949l101 -30c-23 -90 -86 -129 -156 -129s-133 38 -155 129l99 29c9 -44 34 -54 56 -54c21 0 46 13 55 55z" />
    <glyph glyph-name="ubreve" unicode="&#x16d;" 
d="M370 156v344h135v-500h-92l-12 36c-38 -31 -83 -44 -126 -44c-190 0 -215 133 -215 250v258h138v-258c0 -54 8 -129 82 -129c42 0 74 21 90 43zM347 749l101 -30c-23 -90 -86 -129 -156 -129s-133 38 -155 129l99 29c9 -44 34 -54 56 -54c21 0 46 13 55 55z" />
    <glyph glyph-name="Uring" unicode="&#x16e;" horiz-adv-x="736" 
d="M368 122c108 0 135 109 135 150v428h143v-428c0 -118 -72 -279 -278 -279s-278 161 -278 279v428h142v-428c0 -41 28 -150 136 -150zM266 892c0 56 46 102 102 102s101 -46 101 -102s-45 -101 -101 -101s-102 45 -102 101zM338 892c0 -15 14 -29 30 -29c15 0 29 14 29 29
c0 16 -14 30 -29 30c-16 0 -30 -14 -30 -30z" />
    <glyph glyph-name="uring" unicode="&#x16f;" 
d="M370 156v344h135v-500h-92l-12 36c-38 -31 -83 -44 -126 -44c-190 0 -215 133 -215 250v258h138v-258c0 -54 8 -129 82 -129c42 0 74 21 90 43zM186 692c0 56 46 102 102 102s101 -46 101 -102s-45 -101 -101 -101s-102 45 -102 101zM258 692c0 -15 14 -29 30 -29
c15 0 29 14 29 29c0 16 -14 30 -29 30c-16 0 -30 -14 -30 -30z" />
    <glyph glyph-name="Uhungarumlaut" unicode="&#x170;" horiz-adv-x="736" 
d="M368 122c108 0 135 109 135 150v428h143v-428c0 -118 -72 -279 -278 -279s-278 161 -278 279v428h142v-428c0 -41 28 -150 136 -150zM571 954l-65 -158h-97l49 158h113zM368 954l-65 -158h-97l49 158h113z" />
    <glyph glyph-name="uhungarumlaut" unicode="&#x171;" 
d="M370 156v344h135v-500h-92l-12 36c-38 -31 -83 -44 -126 -44c-190 0 -215 133 -215 250v258h138v-258c0 -54 8 -129 82 -129c42 0 74 21 90 43zM475 754l-65 -158h-97l49 158h113zM272 754l-65 -158h-97l49 158h113z" />
    <glyph glyph-name="Uogonek" unicode="&#x172;" horiz-adv-x="736" 
d="M368 122c108 0 135 109 135 150v428h143v-428c0 -86 -38 -194 -138 -247v-28c0 -24 -34 -56 -34 -94c0 -32 22 -40 51 -40c25 0 61 10 82 18v-81c-37 -16 -81 -23 -113 -23c-62 0 -116 33 -116 106c0 51 38 90 42 114c-17 -3 -34 -4 -52 -4c-206 0 -278 161 -278 279v428
h142v-428c0 -41 28 -150 136 -150z" />
    <glyph glyph-name="uogonek" unicode="&#x173;" 
d="M370 156v344h135v-503c0 -24 -34 -56 -34 -94c0 -32 22 -40 51 -40c25 0 61 10 82 18v-81c-37 -16 -81 -23 -113 -23c-62 0 -116 33 -116 106c0 53 40 94 40 117l-14 36c-38 -31 -83 -44 -126 -44c-190 0 -215 133 -215 250v258h138v-258c0 -54 8 -129 82 -129
c42 0 74 21 90 43z" />
    <glyph glyph-name="Wcircumflex" unicode="&#x174;" horiz-adv-x="1091" 
d="M384 863l161 125l161 -125l-52 -74l-109 67l-109 -67zM1061 700l-327 -704h-6l-183 379l-182 -379h-7l-326 704h158l174 -411l179 416l8 -1l180 -415l174 411h158z" />
    <glyph glyph-name="wcircumflex" unicode="&#x175;" horiz-adv-x="764" 
d="M221 663l161 125l161 -125l-52 -74l-109 67l-109 -67zM272 267l107 238h8l105 -238l101 233h143l-237 -503h-7l-110 222l-111 -222h-7l-236 503h143z" />
    <glyph glyph-name="Eng" unicode="&#x14a;" horiz-adv-x="776" 
d="M398 -81c28 -16 59 -28 84 -28c32 0 53 19 53 75v148l-293 287v-401h-142v709h22l412 -406v397h142v-706h-1v-31c0 -42 -9 -190 -177 -190c-67 0 -133 35 -157 59z" />
    <glyph glyph-name="eng" unicode="&#x14b;" 
d="M247 -80c28 -16 59 -28 84 -28c32 0 56 19 56 75v291c0 54 -8 129 -82 129c-42 0 -74 -21 -90 -43v-344h-135v500h92l12 -36c38 31 83 44 126 44c190 0 215 -133 215 -250v-294c0 -42 -10 -190 -178 -190c-67 0 -133 35 -157 59z" />
    <glyph glyph-name="Omacron" unicode="&#x14c;" horiz-adv-x="814" 
d="M408 712c265 0 346 -215 346 -361c0 -150 -81 -362 -346 -362c-267 0 -348 212 -348 362c0 146 81 361 348 361zM408 120c176 0 202 174 202 231s-26 229 -202 229c-179 0 -204 -172 -204 -229s25 -231 204 -231zM256 894h301v-97h-301v97z" />
    <glyph glyph-name="omacron" unicode="&#x14d;" horiz-adv-x="618" 
d="M309 510c192 0 249 -155 249 -260c0 -108 -57 -259 -249 -259s-249 151 -249 259c0 105 57 260 249 260zM309 112c100 0 114 104 114 138s-14 139 -114 139s-115 -105 -115 -139s15 -138 115 -138zM158 694h301v-97h-301v97z" />
    <glyph glyph-name="Obreve" unicode="&#x14e;" horiz-adv-x="814" 
d="M408 712c265 0 346 -215 346 -361c0 -150 -81 -362 -346 -362c-267 0 -348 212 -348 362c0 146 81 361 348 361zM408 120c176 0 202 174 202 231s-26 229 -202 229c-179 0 -204 -172 -204 -229s25 -231 204 -231zM461 949l101 -30c-23 -90 -86 -129 -156 -129
s-133 38 -155 129l99 29c9 -44 34 -54 56 -54c21 0 46 13 55 55z" />
    <glyph glyph-name="obreve" unicode="&#x14f;" horiz-adv-x="618" 
d="M309 510c192 0 249 -155 249 -260c0 -108 -57 -259 -249 -259s-249 151 -249 259c0 105 57 260 249 260zM309 112c100 0 114 104 114 138s-14 139 -114 139s-115 -105 -115 -139s15 -138 115 -138zM360 749l101 -30c-23 -90 -86 -129 -156 -129s-133 38 -155 129l99 29
c9 -44 34 -54 56 -54c21 0 46 13 55 55z" />
    <glyph glyph-name="Ohungarumlaut" unicode="&#x150;" horiz-adv-x="814" 
d="M408 712c265 0 346 -215 346 -361c0 -150 -81 -362 -346 -362c-267 0 -348 212 -348 362c0 146 81 361 348 361zM408 120c176 0 202 174 202 231s-26 229 -202 229c-179 0 -204 -172 -204 -229s25 -231 204 -231zM612 954l-65 -158h-97l49 158h113zM409 954l-65 -158h-97
l49 158h113z" />
    <glyph glyph-name="ohungarumlaut" unicode="&#x151;" horiz-adv-x="618" 
d="M309 510c192 0 249 -155 249 -260c0 -108 -57 -259 -249 -259s-249 151 -249 259c0 105 57 260 249 260zM309 112c100 0 114 104 114 138s-14 139 -114 139s-115 -105 -115 -139s15 -138 115 -138zM508 754l-65 -158h-97l49 158h113zM305 754l-65 -158h-97l49 158h113z
" />
    <glyph glyph-name="Racute" unicode="&#x154;" horiz-adv-x="675" 
d="M240 243v-243h-140v700h265c192 0 250 -134 250 -227c0 -101 -59 -174 -138 -208l125 -265h-154l-114 243h-94zM374 374c81 2 99 68 99 99c0 34 -18 98 -103 98h-130v-197h134zM224 861l161 125l65 -91l-174 -108z" />
    <glyph glyph-name="racute" unicode="&#x155;" horiz-adv-x="415" 
d="M395 498l-39 -124c-19 4 -38 7 -59 7c-32 0 -63 -9 -82 -41v-340h-135v500h92l12 -31c40 26 82 37 128 37c22 0 60 -3 83 -8zM95 661l161 125l65 -91l-174 -108z" />
    <glyph glyph-name="Rcommaaccent" unicode="&#x156;" horiz-adv-x="675" 
d="M240 243v-243h-140v700h265c192 0 250 -134 250 -227c0 -101 -59 -174 -138 -208l125 -265h-154l-114 243h-94zM374 374c81 2 99 68 99 99c0 34 -18 98 -103 98h-130v-197h134zM333 -342l-58 26c15 30 31 66 38 88c-34 11 -49 37 -49 70c0 38 30 71 70 71
c56 0 77 -39 77 -77c0 -53 -47 -131 -78 -178z" />
    <glyph glyph-name="rcommaaccent" unicode="&#x157;" horiz-adv-x="415" 
d="M395 498l-39 -124c-19 4 -38 7 -59 7c-32 0 -63 -9 -82 -41v-340h-135v500h92l12 -31c40 26 82 37 128 37c22 0 60 -3 83 -8zM141 -342l-58 26c15 30 31 66 38 88c-34 11 -49 37 -49 70c0 38 30 71 70 71c56 0 77 -39 77 -77c0 -53 -47 -131 -78 -178z" />
    <glyph glyph-name="Rcaron" unicode="&#x158;" horiz-adv-x="675" 
d="M240 243v-243h-140v700h265c192 0 250 -134 250 -227c0 -101 -59 -174 -138 -208l125 -265h-154l-114 243h-94zM374 374c81 2 99 68 99 99c0 34 -18 98 -103 98h-130v-197h134zM293 786l-161 125l52 74l109 -67l109 67l52 -74z" />
    <glyph glyph-name="rcaron" unicode="&#x159;" horiz-adv-x="415" 
d="M395 498l-39 -124c-19 4 -38 7 -59 7c-32 0 -63 -9 -82 -41v-340h-135v500h92l12 -31c40 26 82 37 128 37c22 0 60 -3 83 -8zM208 586l-161 125l52 74l109 -67l109 67l52 -74z" />
    <glyph glyph-name="Sacute" unicode="&#x15a;" horiz-adv-x="642" 
d="M214 512c2 -49 62 -66 134 -87c105 -31 234 -71 234 -232c0 -114 -109 -201 -255 -201c-105 0 -185 25 -271 71l59 117c67 -32 137 -57 205 -57c61 0 116 27 116 71c0 66 -75 85 -157 110c-99 30 -207 67 -207 203c0 128 95 204 227 204c40 0 137 -9 255 -64l-54 -121
c-51 21 -141 50 -179 50c-58 0 -104 -11 -107 -64zM208 861l161 125l65 -91l-174 -108z" />
    <glyph glyph-name="sacute" unicode="&#x15b;" horiz-adv-x="512" 
d="M207 357c0 -18 33 -29 74 -42c75 -24 171 -55 171 -170c0 -91 -80 -153 -188 -153c-75 0 -134 20 -204 61l54 106c51 -26 103 -46 145 -46c29 0 55 12 55 31c0 29 -38 41 -83 54c-71 22 -155 50 -155 155c0 97 69 155 170 155c28 0 101 -6 194 -52l-51 -111
c-41 20 -97 39 -127 39c-28 0 -55 -6 -55 -27zM149 661l161 125l65 -91l-174 -108z" />
    <glyph glyph-name="Scircumflex" unicode="&#x15c;" horiz-adv-x="642" 
d="M214 512c2 -49 62 -66 134 -87c105 -31 234 -71 234 -232c0 -114 -109 -201 -255 -201c-105 0 -185 25 -271 71l59 117c67 -32 137 -57 205 -57c61 0 116 27 116 71c0 66 -75 85 -157 110c-99 30 -207 67 -207 203c0 128 95 204 227 204c40 0 137 -9 255 -64l-54 -121
c-51 21 -141 50 -179 50c-58 0 -104 -11 -107 -64zM160 863l161 125l161 -125l-52 -74l-109 67l-109 -67z" />
    <glyph glyph-name="scircumflex" unicode="&#x15d;" horiz-adv-x="512" 
d="M207 357c0 -18 33 -29 74 -42c75 -24 171 -55 171 -170c0 -91 -80 -153 -188 -153c-75 0 -134 20 -204 61l54 106c51 -26 103 -46 145 -46c29 0 55 12 55 31c0 29 -38 41 -83 54c-71 22 -155 50 -155 155c0 97 69 155 170 155c28 0 101 -6 194 -52l-51 -111
c-41 20 -97 39 -127 39c-28 0 -55 -6 -55 -27zM95 663l161 125l161 -125l-52 -74l-109 67l-109 -67z" />
    <glyph glyph-name="Scedilla" unicode="&#x15e;" horiz-adv-x="642" 
d="M307 -86h-26l-12 13v68c-78 7 -144 31 -213 68l59 117c67 -32 137 -57 205 -57c61 0 116 27 116 71c0 66 -75 85 -157 110c-99 30 -207 67 -207 203c0 128 95 204 227 204c40 0 137 -9 255 -64l-54 -121c-51 21 -141 50 -179 50c-58 0 -104 -11 -107 -64
c2 -49 62 -66 134 -87c105 -31 234 -71 234 -232c0 -108 -98 -192 -231 -200v-21c73 -2 96 -59 96 -91c0 -75 -56 -109 -117 -109c-32 0 -79 11 -106 27l30 66c10 -5 42 -17 66 -17c19 0 36 16 37 33s-13 33 -50 33z" />
    <glyph glyph-name="scedilla" unicode="&#x15f;" horiz-adv-x="512" 
d="M247 -86h-26l-12 13v69c-51 7 -97 26 -149 57l54 106c51 -26 103 -46 145 -46c29 0 55 12 55 31c0 29 -38 41 -83 54c-71 22 -155 50 -155 155c0 97 69 155 170 155c28 0 101 -6 194 -52l-51 -111c-41 20 -97 39 -127 39c-28 0 -55 -6 -55 -27c0 -18 33 -29 74 -42
c75 -24 171 -55 171 -170c0 -84 -67 -142 -161 -151v-22c73 -2 96 -59 96 -91c0 -75 -56 -109 -117 -109c-32 0 -79 11 -106 27l30 66c10 -5 42 -17 66 -17c19 0 36 16 37 33s-13 33 -50 33z" />
    <glyph glyph-name="scaron" unicode="&#x161;" horiz-adv-x="512" 
d="M207 357c0 -18 33 -29 74 -42c75 -24 171 -55 171 -170c0 -91 -80 -153 -188 -153c-75 0 -134 20 -204 61l54 106c51 -26 103 -46 145 -46c29 0 55 12 55 31c0 29 -38 41 -83 54c-71 22 -155 50 -155 155c0 97 69 155 170 155c28 0 101 -6 194 -52l-51 -111
c-41 20 -97 39 -127 39c-28 0 -55 -6 -55 -27zM262 586l-161 125l52 74l109 -67l109 67l52 -74z" />
    <glyph glyph-name="Tcommaaccent" unicode="&#x162;" horiz-adv-x="613" 
d="M234 0v570h-189v130h523v-130h-191v-570h-143zM302 -342l-58 26c15 30 31 66 38 88c-34 11 -49 37 -49 70c0 38 30 71 70 71c56 0 77 -39 77 -77c0 -53 -47 -131 -78 -178z" />
    <glyph glyph-name="tcommaaccent" unicode="&#x163;" horiz-adv-x="330" 
d="M62 380h-52v120h52l10 98h126v-98h94v-120h-94v-235c0 -24 12 -32 28 -32c20 0 47 9 71 15l23 -110c-66 -19 -118 -24 -139 -24c-109 0 -119 100 -119 136v250zM160 -342l-58 26c15 30 31 66 38 88c-34 11 -49 37 -49 70c0 38 30 71 70 71c56 0 77 -39 77 -77
c0 -53 -47 -131 -78 -178z" />
    <glyph glyph-name="Tcaron" unicode="&#x164;" horiz-adv-x="613" 
d="M234 0v570h-189v130h523v-130h-191v-570h-143zM306 786l-161 125l52 74l109 -67l109 67l52 -74z" />
    <glyph glyph-name="tcaron" unicode="&#x165;" horiz-adv-x="560" 
d="M62 380h-52v120h52l10 98h126v-98h94v-120h-94v-235c0 -24 12 -32 28 -32c20 0 47 9 71 15l23 -110c-66 -19 -118 -24 -139 -24c-109 0 -119 100 -119 136v250zM435 387l-70 34c22 37 48 100 56 128c-38 12 -54 39 -54 78c0 46 34 82 81 82c66 0 89 -46 89 -90
c0 -66 -64 -184 -102 -232z" />
    <glyph glyph-name="tbar" unicode="&#x167;" horiz-adv-x="330" 
d="M9 319h53v61h-52v120h52l10 98h126v-98h94v-120h-94v-61h92v-97h-92v-77c0 -24 12 -32 28 -32c20 0 47 9 71 15l23 -110c-66 -19 -118 -24 -139 -24c-109 0 -119 100 -119 136v92h-53v97z" />
    <glyph glyph-name="longs" unicode="&#x17f;" horiz-adv-x="376" 
d="M386 671l-40 -107c-32 13 -71 22 -96 22c-26 0 -52 -13 -52 -53v-533h-136v383h-52v117h52v37c0 116 81 170 180 170c41 0 93 -11 144 -36z" />
    <glyph glyph-name="Iogonek" unicode="&#x12e;" horiz-adv-x="342" 
d="M242 700v-700h-1v-3c0 -24 -34 -56 -34 -94c0 -32 22 -40 51 -40c25 0 61 10 82 18v-81c-37 -16 -81 -23 -113 -23c-62 0 -116 33 -116 106c0 53 42 94 42 117h-53v700h142z" />
    <glyph glyph-name="iogonek" unicode="&#x12f;" horiz-adv-x="313" 
d="M224 500v-503c0 -24 -34 -56 -34 -94c0 -32 22 -40 51 -40c25 0 61 10 82 18v-81c-37 -16 -81 -23 -113 -23c-62 0 -116 33 -116 106c0 53 42 94 42 117h-48v500h136zM80 663c0 43 33 77 77 77c43 0 76 -34 76 -77c0 -44 -33 -76 -76 -76c-44 0 -77 32 -77 76z" />
    <glyph glyph-name="kgreenlandic" unicode="&#x138;" horiz-adv-x="601" 
d="M420 0l-205 224v-224h-135v500h135v-215l191 215h144l4 -10l-207 -230l224 -251l-3 -9h-148z" />
    <glyph glyph-name="Nacute" unicode="&#x143;" horiz-adv-x="776" 
d="M275 861l161 125l65 -91l-174 -108zM100 702l9 4l425 -403v397h142v-701l-9 -5l-425 407v-401h-142v702z" />
    <glyph glyph-name="nacute" unicode="&#x144;" 
d="M215 344v-344h-135v500h92l12 -36c38 31 83 44 126 44c190 0 215 -133 215 -250v-258h-138v258c0 54 -8 129 -82 129c-42 0 -74 -21 -90 -43zM179 661l161 125l65 -91l-174 -108z" />
    <glyph glyph-name="ncommaaccent" unicode="&#x146;" 
d="M215 344v-344h-135v500h92l12 -36c38 31 83 44 126 44c190 0 215 -133 215 -250v-258h-138v258c0 54 -8 129 -82 129c-42 0 -74 -21 -90 -43zM288 -342l-58 26c15 30 31 66 38 88c-34 11 -49 37 -49 70c0 38 30 71 70 71c56 0 77 -39 77 -77c0 -53 -47 -131 -78 -178z
" />
    <glyph glyph-name="zero.num" horiz-adv-x="328" 
d="M164 706c104 0 134 -100 134 -169c0 -71 -30 -166 -134 -166c-103 0 -134 95 -134 166c0 69 31 169 134 169zM164 450c40 0 47 65 47 87c0 23 -7 89 -47 89s-47 -66 -47 -89c0 -22 7 -87 47 -87z" />
    <glyph glyph-name="one.num" horiz-adv-x="228" 
d="M183 702v-327h-88v208l-41 -22l-34 56l119 85h44z" />
    <glyph glyph-name="two.num" horiz-adv-x="305" 
d="M84 588l-54 52c41 50 83 68 126 68c70 0 109 -43 109 -104c0 -29 -16 -61 -40 -94l-41 -57h76v-78h-222l-3 8l123 177c20 29 18 36 18 43c0 10 -9 23 -24 23c-19 0 -35 -8 -68 -38z" />
    <glyph glyph-name="three.num" horiz-adv-x="282" 
d="M252 603c0 -20 -11 -49 -31 -66c23 -18 31 -42 31 -64c0 -35 -22 -104 -116 -104c-53 0 -90 25 -116 49l49 54c22 -21 48 -26 67 -26c18 0 35 11 35 27c0 21 -17 31 -35 31h-55v67h55c18 0 35 11 35 32c0 17 -17 27 -35 27c-17 0 -48 -12 -67 -28l-47 54
c24 24 62 51 114 51c94 0 116 -67 116 -104z" />
    <glyph glyph-name="four.num" horiz-adv-x="301" 
d="M235 422v-47h-83v47h-132v66l147 215h68v-207h46v-74h-46zM152 557l-42 -61h42v61z" />
    <glyph glyph-name="five.num" horiz-adv-x="305" 
d="M30 431l57 52c22 -29 52 -33 66 -33c23 0 36 20 36 35c0 19 -13 34 -37 34h-88v183h189v-73h-102v-39c104 0 124 -61 124 -105c0 -38 -26 -115 -123 -115c-49 0 -92 23 -122 61z" />
    <glyph glyph-name="six.num" horiz-adv-x="300" 
d="M176 709l40 -52c-27 -18 -57 -42 -84 -72c6 4 20 6 31 6c96 0 107 -83 106 -109c-1 -34 -24 -114 -120 -114c-97 0 -119 78 -119 114c0 114 76 186 146 227zM149 449c22 0 35 19 35 36c0 18 -12 34 -35 34c-18 0 -34 -14 -34 -34c0 -17 12 -36 34 -36z" />
    <glyph glyph-name="seven.num" horiz-adv-x="265" 
d="M20 621v79h223l2 -4l-129 -323h-89l101 248h-108z" />
    <glyph glyph-name="eight.num" horiz-adv-x="288" 
d="M258 606c0 -18 -10 -52 -36 -68c31 -20 35 -57 35 -72c0 -35 -21 -97 -112 -97c-93 0 -115 60 -115 98c0 22 12 58 35 72c-23 11 -35 42 -35 66c0 32 22 100 115 100c91 0 113 -58 113 -99zM145 446c14 0 28 10 28 26s-14 26 -28 26c-15 0 -30 -10 -30 -26s15 -26 30 -26
zM145 576c14 0 28 10 28 26c0 17 -14 27 -28 27c-15 0 -30 -10 -30 -27c0 -16 15 -26 30 -26z" />
    <glyph glyph-name="nine.num" horiz-adv-x="300" 
d="M124 368l-40 52c27 18 57 42 84 72c-6 -4 -20 -6 -31 -6c-96 0 -107 83 -106 109c1 34 24 114 120 114c97 0 119 -78 119 -114c0 -114 -76 -186 -146 -227zM151 628c-22 0 -35 -19 -35 -36c0 -18 12 -34 35 -34c18 0 34 14 34 34c0 17 -12 36 -34 36z" />
    <glyph glyph-name="zeroinferior" unicode="&#x2080;" horiz-adv-x="328" 
d="M164 169c104 0 134 -100 134 -169c0 -71 -30 -166 -134 -166c-103 0 -134 95 -134 166c0 69 31 169 134 169zM164 -87c40 0 47 65 47 87c0 23 -7 89 -47 89s-47 -66 -47 -89c0 -22 7 -87 47 -87z" />
    <glyph glyph-name="oneinferior" unicode="&#x2081;" horiz-adv-x="228" 
d="M183 165v-327h-88v208l-41 -22l-34 56l119 85h44z" />
    <glyph glyph-name="twoinferior" unicode="&#x2082;" horiz-adv-x="305" 
d="M84 50l-54 52c41 50 83 68 126 68c70 0 109 -43 109 -104c0 -29 -16 -61 -40 -94l-41 -57h76v-78h-222l-3 8l123 177c20 29 18 36 18 43c0 10 -9 23 -24 23c-19 0 -35 -8 -68 -38z" />
    <glyph glyph-name="threeinferior" unicode="&#x2083;" horiz-adv-x="282" 
d="M252 66c0 -20 -11 -49 -31 -66c23 -18 31 -42 31 -64c0 -35 -22 -104 -116 -104c-53 0 -90 25 -116 49l49 54c22 -21 48 -26 67 -26c18 0 35 11 35 27c0 21 -17 31 -35 31h-55v67h55c18 0 35 11 35 32c0 17 -17 27 -35 27c-17 0 -48 -12 -67 -28l-47 54
c24 24 62 51 114 51c94 0 116 -67 116 -104z" />
    <glyph glyph-name="fourinferior" unicode="&#x2084;" horiz-adv-x="301" 
d="M235 -115v-47h-83v47h-132v66l147 215h68v-207h46v-74h-46zM152 20l-42 -61h42v61z" />
    <glyph glyph-name="fiveinferior" unicode="&#x2085;" horiz-adv-x="305" 
d="M30 -106l57 52c22 -29 52 -33 66 -33c23 0 36 20 36 35c0 19 -13 34 -37 34h-88v183h189v-73h-102v-39c104 0 124 -61 124 -105c0 -38 -26 -115 -123 -115c-49 0 -92 23 -122 61z" />
    <glyph glyph-name="sixinferior" unicode="&#x2086;" horiz-adv-x="300" 
d="M176 172l40 -52c-27 -18 -57 -42 -84 -72c6 4 20 6 31 6c96 0 107 -83 106 -109c-1 -34 -24 -114 -120 -114c-97 0 -119 78 -119 114c0 114 76 186 146 227zM149 -88c22 0 35 19 35 36c0 18 -12 34 -35 34c-18 0 -34 -14 -34 -34c0 -17 12 -36 34 -36z" />
    <glyph glyph-name="seveninferior" unicode="&#x2087;" horiz-adv-x="264" 
d="M20 86v79h222l2 -3l-128 -324h-89l101 248h-108z" />
    <glyph glyph-name="eightinferior" unicode="&#x2088;" horiz-adv-x="288" 
d="M258 69c0 -18 -10 -52 -36 -68c31 -20 35 -57 35 -72c0 -35 -21 -97 -112 -97c-93 0 -115 60 -115 98c0 22 12 58 35 72c-23 11 -35 42 -35 66c0 32 22 100 115 100c91 0 113 -58 113 -99zM145 -91c14 0 28 10 28 26s-14 26 -28 26c-15 0 -30 -10 -30 -26s15 -26 30 -26z
M145 39c14 0 28 10 28 26c0 17 -14 27 -28 27c-15 0 -30 -10 -30 -27c0 -16 15 -26 30 -26z" />
    <glyph glyph-name="nineinferior" unicode="&#x2089;" horiz-adv-x="300" 
d="M124 -169l-40 52c27 18 57 42 84 72c-6 -4 -20 -6 -31 -6c-96 0 -107 83 -106 109c1 34 24 114 120 114c97 0 119 -78 119 -114c0 -114 -76 -186 -146 -227zM151 91c-22 0 -35 -19 -35 -36c0 -18 12 -34 35 -34c18 0 34 14 34 34c0 17 -12 36 -34 36z" />
    <glyph glyph-name="zerosuperior" unicode="&#x2070;" horiz-adv-x="328" 
d="M164 803c104 0 134 -100 134 -169c0 -71 -30 -166 -134 -166c-103 0 -134 95 -134 166c0 69 31 169 134 169zM164 547c40 0 47 65 47 87c0 23 -7 89 -47 89s-47 -66 -47 -89c0 -22 7 -87 47 -87z" />
    <glyph glyph-name="foursuperior" unicode="&#x2074;" horiz-adv-x="301" 
d="M235 519v-47h-83v47h-132v66l147 215h68v-207h46v-74h-46zM152 654l-42 -61h42v61z" />
    <glyph glyph-name="onesuperior" unicode="&#xb9;" horiz-adv-x="228" 
d="M183 799v-327h-88v208l-41 -22l-34 56l119 85h44z" />
    <glyph glyph-name="twosuperior" unicode="&#xb2;" horiz-adv-x="305" 
d="M84 685l-54 52c41 50 83 68 126 68c70 0 109 -43 109 -104c0 -29 -16 -61 -40 -94l-41 -57h76v-78h-222l-3 8l123 177c20 29 18 36 18 43c0 10 -9 23 -24 23c-19 0 -35 -8 -68 -38z" />
    <glyph glyph-name="threesuperior" unicode="&#xb3;" horiz-adv-x="282" 
d="M252 700c0 -20 -11 -49 -31 -66c23 -18 31 -42 31 -64c0 -35 -22 -104 -116 -104c-53 0 -90 25 -116 49l49 54c22 -21 48 -26 67 -26c18 0 35 11 35 27c0 21 -17 31 -35 31h-55v67h55c18 0 35 11 35 32c0 17 -17 27 -35 27c-17 0 -48 -12 -67 -28l-47 54
c24 24 62 51 114 51c94 0 116 -67 116 -104z" />
    <glyph glyph-name="fivesuperior" unicode="&#x2075;" horiz-adv-x="305" 
d="M30 528l57 52c22 -29 52 -33 66 -33c23 0 36 20 36 35c0 19 -13 34 -37 34h-88v183h189v-73h-102v-39c104 0 124 -61 124 -105c0 -38 -26 -115 -123 -115c-49 0 -92 23 -122 61z" />
    <glyph glyph-name="sixsuperior" unicode="&#x2076;" horiz-adv-x="300" 
d="M176 806l40 -52c-27 -18 -57 -42 -84 -72c6 4 20 6 31 6c96 0 107 -83 106 -109c-1 -34 -24 -114 -120 -114c-97 0 -119 78 -119 114c0 114 76 186 146 227zM149 546c22 0 35 19 35 36c0 18 -12 34 -35 34c-18 0 -34 -14 -34 -34c0 -17 12 -36 34 -36z" />
    <glyph glyph-name="sevensuperior" unicode="&#x2077;" horiz-adv-x="264" 
d="M20 721v79h222l2 -4l-128 -323h-89l101 248h-108z" />
    <glyph glyph-name="eightsuperior" unicode="&#x2078;" horiz-adv-x="288" 
d="M258 703c0 -18 -10 -52 -36 -68c31 -20 35 -57 35 -72c0 -35 -21 -97 -112 -97c-93 0 -115 60 -115 98c0 22 12 58 35 72c-23 11 -35 42 -35 66c0 32 22 100 115 100c91 0 113 -58 113 -99zM145 543c14 0 28 10 28 26s-14 26 -28 26c-15 0 -30 -10 -30 -26s15 -26 30 -26
zM145 673c14 0 28 10 28 26c0 17 -14 27 -28 27c-15 0 -30 -10 -30 -27c0 -16 15 -26 30 -26z" />
    <glyph glyph-name="ninesuperior" unicode="&#x2079;" horiz-adv-x="300" 
d="M124 465l-40 52c27 18 57 42 84 72c-6 -4 -20 -6 -31 -6c-96 0 -107 83 -106 109c1 34 24 114 120 114c97 0 119 -78 119 -114c0 -114 -76 -186 -146 -227zM151 725c-22 0 -35 -19 -35 -36c0 -18 12 -34 35 -34c18 0 34 14 34 34c0 17 -12 36 -34 36z" />
    <glyph glyph-name="dollar" unicode="$" horiz-adv-x="642" 
d="M214 512c2 -49 62 -66 134 -87c105 -31 234 -71 234 -232c0 -102 -87 -182 -210 -198v-92h-102v92c-79 7 -145 30 -214 68l59 117c67 -32 137 -57 205 -57c61 0 116 27 116 71c0 66 -75 85 -157 110c-99 30 -207 67 -207 203c0 118 81 192 198 202v90h102v-95
c48 -8 111 -24 182 -57l-54 -121c-51 21 -141 50 -179 50c-58 0 -104 -11 -107 -64z" />
    <glyph glyph-name="Scaron" unicode="&#x160;" horiz-adv-x="642" 
d="M214 514c2 -47 60 -66 129 -90c109 -37 248 -81 239 -231c-7 -114 -109 -201 -255 -201c-105 0 -185 25 -271 71l62 117c67 -32 134 -57 202 -57c61 0 105 26 112 67c8 50 -44 77 -112 98c-106 33 -248 67 -248 219c0 128 95 204 227 204c40 0 137 -9 255 -64l-51 -119
c-34 14 -124 51 -194 51c-49 0 -93 -16 -95 -65zM321 786l-161 125l52 74l109 -67l109 67l52 -74z" />
    <glyph glyph-name="scommaaccent" unicode="&#x219;" horiz-adv-x="512" 
d="M207 357c0 -18 33 -29 74 -42c75 -24 171 -55 171 -170c0 -91 -80 -153 -188 -153c-75 0 -134 20 -204 61l54 106c51 -26 103 -46 145 -46c29 0 55 12 55 31c0 29 -38 41 -83 54c-71 22 -155 50 -155 155c0 97 69 155 170 155c28 0 101 -6 194 -52l-51 -111
c-41 20 -97 39 -127 39c-28 0 -55 -6 -55 -27zM251 -342l-58 26c15 30 31 66 38 88c-34 11 -49 37 -49 70c0 38 30 71 70 71c56 0 77 -39 77 -77c0 -53 -47 -131 -78 -178z" />
    <glyph glyph-name="Scommaaccent" unicode="&#x218;" horiz-adv-x="642" 
d="M328 -342l-58 26c15 30 31 66 38 88c-34 11 -49 37 -49 70c0 38 30 71 70 71c56 0 77 -39 77 -77c0 -53 -47 -131 -78 -178zM214 514c2 -47 60 -66 129 -90c109 -37 248 -81 239 -231c-7 -114 -109 -201 -255 -201c-105 0 -185 25 -271 71l62 117c67 -32 134 -57 202 -57
c61 0 105 26 112 67c8 50 -44 77 -112 98c-106 33 -248 67 -248 219c0 128 95 204 227 204c40 0 137 -9 255 -64l-51 -119c-34 14 -124 51 -194 51c-49 0 -93 -16 -95 -65z" />
    <glyph glyph-name="Zacute" unicode="&#x179;" horiz-adv-x="661" 
d="M282 130h313v-130h-531l-4 8l316 563h-286v129h507l4 -8zM217 861l161 125l65 -91l-174 -108z" />
    <glyph glyph-name="zacute" unicode="&#x17a;" horiz-adv-x="509" 
d="M67 371v129h394l3 -8l-197 -363h187v-129h-406l-3 7l199 364h-177zM141 661l161 125l65 -91l-174 -108z" />
    <glyph glyph-name="Zdotaccent" unicode="&#x17b;" horiz-adv-x="661" 
d="M282 130h313v-130h-531l-4 8l316 563h-286v129h507l4 -8zM254 867c0 43 33 77 77 77c43 0 76 -34 76 -77c0 -44 -33 -76 -76 -76c-44 0 -77 32 -77 76z" />
    <glyph glyph-name="zdotaccent" unicode="&#x17c;" horiz-adv-x="509" 
d="M67 371v129h394l3 -8l-197 -363h187v-129h-406l-3 7l199 364h-177zM178 667c0 43 33 77 77 77c43 0 76 -34 76 -77c0 -44 -33 -76 -76 -76c-44 0 -77 32 -77 76z" />
    <glyph glyph-name="Zcaron" unicode="&#x17d;" horiz-adv-x="661" 
d="M282 130h313v-130h-531l-4 8l316 563h-286v129h507l4 -8zM330 786l-161 125l52 74l109 -67l109 67l52 -74z" />
    <glyph glyph-name="zcaron" unicode="&#x17e;" horiz-adv-x="509" 
d="M67 371v129h394l3 -8l-197 -363h187v-129h-406l-3 7l199 364h-177zM255 586l-161 125l52 74l109 -67l109 67l52 -74z" />
    <glyph glyph-name="Ncommaaccent" unicode="&#x145;" horiz-adv-x="776" 
d="M100 702l9 4l425 -403v397h142v-701l-9 -5l-425 407v-401h-142v702zM383 -342l-58 26c15 30 31 66 38 88c-34 11 -49 37 -49 70c0 38 30 71 70 71c56 0 77 -39 77 -77c0 -53 -47 -131 -78 -178z" />
    <glyph glyph-name="Hbar" unicode="&#x126;" horiz-adv-x="761" 
d="M40 613h52v87h142v-87h292v87h141v-87h54v-97h-54v-516h-141v280h-292v-280h-142v516h-52v97zM234 410h292v106h-292v-106z" />
    <glyph glyph-name="Tbar" unicode="&#x166;" horiz-adv-x="613" 
d="M469 306h-90v-306h-146v306h-88v82h88v182h-188v130h523v-130h-189v-182h90v-82z" />
    <glyph glyph-name="ycircumflex" unicode="&#x177;" horiz-adv-x="609" 
d="M235 40c-55 132 -143 317 -205 460h155l123 -301c31 81 81 206 119 301h152l-297 -699h-141v11zM143 663l161 125l161 -125l-52 -74l-109 67l-109 -67z" />
    <glyph glyph-name="Ycircumflex" unicode="&#x176;" horiz-adv-x="677" 
d="M409 313v-313h-141v311l-238 389h156l152 -254l152 254h157zM177 863l161 125l161 -125l-52 -74l-109 67l-109 -67z" />
    <glyph glyph-name="Ydieresis" unicode="&#x178;" horiz-adv-x="677" 
d="M409 313v-313h-141v311l-238 389h156l152 -254l152 254h157zM147 867c0 43 33 77 77 77c43 0 76 -34 76 -77c0 -44 -33 -76 -76 -76c-44 0 -77 32 -77 76zM376 867c0 43 33 77 77 77c43 0 76 -34 76 -77c0 -44 -33 -76 -76 -76c-44 0 -77 32 -77 76z" />
    <glyph glyph-name="ampersand.alt1" horiz-adv-x="812" 
d="M230 233c2 -86 50 -113 105 -113c30 0 65 9 93 19l-30 20c-90 60 -125 111 -125 183c0 42 22 96 64 114c-28 19 -36 55 -36 80c0 106 86 176 189 176c172 0 240 -128 240 -262c0 -109 -33 -213 -92 -294l114 -89l-81 -100l-130 95c-55 -45 -123 -72 -192 -72
c-153 0 -256 81 -256 241v11v267c-1 30 -18 36 -63 36v117c35 6 53 6 61 6c101 0 139 -60 139 -162v-273zM473 279l55 -44c39 58 64 132 64 214c0 83 -34 135 -94 135c-39 0 -56 -32 -56 -53s18 -37 34 -37h36v-97h-60c-26 0 -41 -23 -41 -45s22 -44 62 -73z" />
    <glyph glyph-name="T_L" horiz-adv-x="597" 
d="M137 700h138v-106l191 71v-92l-191 -69v-54l191 71v-92l-191 -69v-222c84 29 142 105 154 212h128c-16 -225 -181 -355 -350 -355c-19 0 -43 1 -70 5v311l-117 -43v90l117 42v55l-117 -41v87l117 43v156z" />
    </font>
</defs>
</svg>
