<svg id="Layer_1" data-name="Layer 1" xmlns="http://www.w3.org/2000/svg" xmlns:xlink="http://www.w3.org/1999/xlink" viewBox="0 0 110 119.44"><defs><style>.cls-1,.cls-4{fill:none;}.cls-2{clip-path:url(#clip-path);}.cls-3{fill:#fff;}.cls-4{stroke:#fff;stroke-width:2.33px;}.cls-5{fill:#b2b3b2;}.cls-6{fill:#55565a;}</style><clipPath id="clip-path" transform="translate(-10 -5.54)"><rect class="cls-1" x="10" y="5.54" width="110" height="119.44"/></clipPath></defs><title>Marnie - white logo for web</title><g class="cls-2"><path class="cls-3" d="M43.9,12.52S17,12.52,17,39.44V91.07S17,118,43.9,118H86.1S113,118,113,91.07V39.44s0-26.92-26.92-26.92Z" transform="translate(-10 -5.54)"/><path class="cls-4" d="M43.9,6.7c-11.32,0-32.74,6.84-32.74,32.74V91.07c0,11.32,6.84,32.74,32.74,32.74H86.1c11.32,0,32.74-6.84,32.74-32.74V39.44C118.83,28.11,112,6.7,86.1,6.7Z" transform="translate(-10 -5.54)"/><path class="cls-4" d="M43.92,18.33c-2.2,0-21.13.82-21.13,21.11V91.07c0,2.14.79,21.11,21.11,21.11H86.1c2.14,0,21.11-.79,21.11-21.11V39.44c0-2.14-.79-21.11-21.11-21.11Z" transform="translate(-10 -5.54)"/><path class="cls-5" d="M16.93,55.75s80.82-5.07,96.2,14.37v4.73l-96.2-1.18Z" transform="translate(-10 -5.54)"/><path class="cls-5" d="M16.93,72.81V91.58s.14,24.45,25.29,27.23h43.4s26.31-1.18,27.51-24.52v-20Z" transform="translate(-10 -5.54)"/><path class="cls-6" d="M88.11,39.76c-8.17,4-13.44-8.19-21.69-5.58-4.46,1.41-9-2.56,1.79-2.14,2.83.11,5.82,1.81,8.26,3.06C80.25,37,83.86,39,88.05,39.88" transform="translate(-10 -5.54)"/><path class="cls-6" d="M69.66,98.21c1.17-1.58-1.78,2-1.25,1.2,1.89-3,2.5-5.42,4.32-8.44,5-8.32,7-18.49,10.69-27.5C85,59.63,88.87,56.64,91,53a17.34,17.34,0,0,0,1.65-11.83,11.24,11.24,0,0,0-.59,1c-2.45,4.68-1.28,10.49-4.72,15.25C82.9,63.58,78.1,68.73,76,76.37c-2.52,9.19-7.18,36.74-21.67,37-1-3.78,11.72-47.9,7.64-47.75-12.47.5-16.05,25.24-26.61,30.95-8.38-8.41,5.19-26.4,9.75-40.75,3.1-9.75.4-20.84,8.92-25.56.44,3.31-3.26,5.61-4.52,8.88-2,5.11-1,11.8-3,17.89-4.24,12.69-14.35,26-11.25,36.66C41.29,90,44.07,78.3,49.74,70.93c2.81-3.66,10-9.79,13.38-8.4,9.54,3.93-.35,22.2-1.53,27.31-.85,3.71-2.36,7-3.48,10.67-.62,2-2.78,7.86.22,8.44,7.79,1.51,14.31-19.87,15.92-24.41" transform="translate(-10 -5.54)"/><path class="cls-6" d="M90.19,30.67c-1.82,1.35-2.89-3.11-3.41-3.79-1.29-1.69-3.49-2.52-5.4-3.32-4.38-1.84-9.47-.77-13.88.28a6.92,6.92,0,0,1-3.42.33,10,10,0,0,1,4.86-3.07c3.07-1.08,6.57-.71,9.67,0,5.11,1.13,10.1,4.5,11.54,9.72" transform="translate(-10 -5.54)"/></g></svg>